<svg xmlns="http://www.w3.org/2000/svg" xmlns:xlink="http://www.w3.org/1999/xlink" width="224" height="163" viewBox="0 0 224 163"><defs><style>.a{fill:#fff;stroke:#707070;}.b{opacity:0.3;clip-path:url(#a);}.c{clip-path:url(#b);}.d{fill:#cb9118;}</style><clipPath id="a"><rect class="a" width="224" height="163" transform="translate(937 192)"/></clipPath><clipPath id="b"><rect class="a" width="219" height="265" transform="translate(928 191.667)"/></clipPath></defs><g class="b" transform="translate(-937 -192)"><g class="c" transform="translate(4 -97.667)"><g transform="translate(946.503 209.433)"><g transform="translate(0 0)"><path class="d" d="M200.227,490.057c-.691-.45-5.892-4.092-11.1-15.112-9.562-20.238-11.568-48.746-11.568-69.1,0-.089,0-.178-.007-.266A66.688,66.688,0,0,0,138.3,345.1V329.184A26.194,26.194,0,0,0,112.154,303h-2.167a26.193,26.193,0,0,0-26.142,26.184V345.1a66.692,66.692,0,0,0-39.264,60.752c0,20.351-2.006,48.859-11.568,69.1-5.207,11.02-10.408,14.662-11.1,15.112a6.694,6.694,0,0,0-3.678,7.613,7,7,0,0,0,6.905,5.382H75.618a35.455,35.455,0,0,0,70.905,0H197a7.006,7.006,0,0,0,6.905-5.382,6.7,6.7,0,0,0-3.678-7.613ZM97.618,329.184a12.4,12.4,0,0,1,12.369-12.391h2.167a12.4,12.4,0,0,1,12.369,12.391v11.439a66.68,66.68,0,0,0-26.9,0Zm13.453,195.074a21.733,21.733,0,0,1-21.68-21.207h43.36a21.732,21.732,0,0,1-21.68,21.207Zm27.729-35H40.838a72.4,72.4,0,0,0,3.608-6.336c9.229-18.2,13.909-44.13,13.909-77.074a52.714,52.714,0,1,1,105.427.021c0,.086,0,.17,0,.256.026,32.81,4.706,58.651,13.909,76.8a72.406,72.406,0,0,0,3.608,6.336Zm0,0" transform="translate(-18.075 -303)"/></g></g></g></g></svg>