<svg xmlns="http://www.w3.org/2000/svg" xmlns:xlink="http://www.w3.org/1999/xlink" width="247" height="175" viewBox="0 0 247 175">
  <defs>
    <clipPath id="clip-path">
      <rect id="Rectangle_936" data-name="Rectangle 936" width="247" height="175" transform="translate(124 390)" fill="#fff" stroke="#707070" stroke-width="1" opacity="0.1"/>
    </clipPath>
  </defs>
  <g id="Mask_Group_2000" data-name="Mask Group 2000" transform="translate(-124 -390)" opacity="0.3" clip-path="url(#clip-path)">
    <g id="checklist" transform="translate(128 357.968)">
      <path id="Path_12597" data-name="Path 12597" d="M350.113,396.144a2.632,2.632,0,1,0-3.722,3.722l10.556,10.556a2.632,2.632,0,0,0,3.722,0l20.075-20.072a2.632,2.632,0,1,0-3.722-3.722L358.81,404.84Z" transform="translate(-176.064 -213.81)" fill="#cb9118"/>
      <path id="Path_12598" data-name="Path 12598" d="M47.89,215.971H156.506a15.226,15.226,0,0,0,4.386-.664,40.866,40.866,0,1,0,37.78-70.322V32.155a2.661,2.661,0,0,0-.935-1.985L170.241,6.24a4.591,4.591,0,0,0-3.01-1.129L74.217,5a15.906,15.906,0,0,0-15.9,15.782V26.93H47.906A15.953,15.953,0,0,0,32,42.837V200.08a15.937,15.937,0,0,0,15.89,15.89Zm175.224-31.663A35.611,35.611,0,1,1,187.5,148.7a35.611,35.611,0,0,1,35.61,35.61ZM170.6,13.425l18.461,16.137H170.6ZM63.58,20.783A10.52,10.52,0,0,1,74.1,10.263h91.238v21.99a2.572,2.572,0,0,0,2.572,2.572h25.5V143.863a40.884,40.884,0,0,0-21.053,2.483V54.072a2.661,2.661,0,0,0-.935-1.985L143.826,28.071a4.244,4.244,0,0,0-2.782-1.043l-77.464-.1Zm99.165,30.71H144.284V35.343ZM37.263,42.7A10.507,10.507,0,0,1,47.77,32.194h91.25V54.171a2.585,2.585,0,0,0,2.585,2.585h25.486v92.152a40.828,40.828,0,0,0-10.766,61.8H47.906a10.674,10.674,0,0,1-10.642-10.642Z" transform="translate(0 0)" fill="#cb9118"/>
      <path id="Path_12599" data-name="Path 12599" d="M135.189,175.263h31.648a2.632,2.632,0,1,0,0-5.263H135.189a2.632,2.632,0,1,0,0,5.263Z" transform="translate(-56.452 -92.63)" fill="#cb9118"/>
      <path id="Path_12600" data-name="Path 12600" d="M86.29,173.963a6.572,6.572,0,1,0-6.553-6.573A6.572,6.572,0,0,0,86.29,173.963Zm0-7.88A1.309,1.309,0,1,1,85,167.392a1.309,1.309,0,0,1,1.29-1.309Z" transform="translate(-26.799 -87.475)" fill="#cb9118"/>
      <path id="Path_12601" data-name="Path 12601" d="M135.189,245.263h65.868a2.632,2.632,0,1,0,0-5.263H135.189a2.632,2.632,0,1,0,0,5.263Z" transform="translate(-56.452 -131.927)" fill="#cb9118"/>
      <path id="Path_12602" data-name="Path 12602" d="M86.29,244.2a6.572,6.572,0,1,0-6.553-6.572A6.572,6.572,0,0,0,86.29,244.2Zm0-7.88A1.309,1.309,0,1,1,85,237.63,1.309,1.309,0,0,1,86.29,236.322Z" transform="translate(-26.799 -126.907)" fill="#cb9118"/>
      <path id="Path_12603" data-name="Path 12603" d="M135.189,315.263h65.868a2.632,2.632,0,0,0,0-5.263H135.189a2.632,2.632,0,0,0,0,5.263Z" transform="translate(-56.452 -171.224)" fill="#cb9118"/>
      <path id="Path_12604" data-name="Path 12604" d="M86.29,314.442a6.572,6.572,0,1,0-6.553-6.572A6.572,6.572,0,0,0,86.29,314.442Zm0-7.881A1.309,1.309,0,1,1,85,307.87a1.309,1.309,0,0,1,1.29-1.309Z" transform="translate(-26.799 -166.339)" fill="#cb9118"/>
      <path id="Path_12605" data-name="Path 12605" d="M135.189,386.263h65.868a2.632,2.632,0,0,0,0-5.263H135.189a2.632,2.632,0,0,0,0,5.263Z" transform="translate(-56.452 -211.083)" fill="#cb9118"/>
      <path id="Path_12606" data-name="Path 12606" d="M86.29,384.676a6.572,6.572,0,1,0-6.553-6.572A6.572,6.572,0,0,0,86.29,384.676Zm0-7.88A1.309,1.309,0,1,1,85,378.1a1.309,1.309,0,0,1,1.29-1.309Z" transform="translate(-26.799 -205.768)" fill="#cb9118"/>
      <path id="Path_12607" data-name="Path 12607" d="M62.632,88.682a2.632,2.632,0,0,0,2.632-2.632V84.165a2.632,2.632,0,1,0-5.263,0v1.886A2.632,2.632,0,0,0,62.632,88.682Z" transform="translate(-15.719 -42.965)" fill="#cb9118"/>
      <path id="Path_12608" data-name="Path 12608" d="M62.632,145.431a2.632,2.632,0,0,0,2.632-2.632V109.465a2.632,2.632,0,1,0-5.263,0V142.8a2.632,2.632,0,0,0,2.632,2.632Z" transform="translate(-15.719 -57.168)" fill="#cb9118"/>
    </g>
  </g>
</svg>
