<svg xmlns="http://www.w3.org/2000/svg" xmlns:xlink="http://www.w3.org/1999/xlink" width="247" height="175" viewBox="0 0 247 175">
  <defs>
    <clipPath id="clip-path">
      <rect id="Rectangle_936" data-name="Rectangle 936" width="247" height="175" transform="translate(124 390)" fill="#fff" stroke="#707070" stroke-width="1"/>
    </clipPath>
  </defs>
  <g id="Mask_Group_20" data-name="Mask Group 20" transform="translate(-124 -390)" opacity="0.3" clip-path="url(#clip-path)">
    <g id="finance" transform="translate(134 338.546)">
      <path id="Path_12587" data-name="Path 12587" d="M145.321,107.71c-.474-.168-.956-.341-1.439-.519V97.456a16.676,16.676,0,0,1,4.163,1.246,3.434,3.434,0,0,0,3.067-6.145,23.292,23.292,0,0,0-7.229-2.019V89.313a3.434,3.434,0,1,0-6.867,0v1.7c-.119.033-.239.063-.358.1a10.82,10.82,0,0,0-7.423,8.479,9.645,9.645,0,0,0,3.2,9.5,22.952,22.952,0,0,0,4.582,2.7v12.6a9.678,9.678,0,0,1-3.663-1.67,3.434,3.434,0,1,0-3.759,5.747,15.516,15.516,0,0,0,7.421,2.844v1.66a3.434,3.434,0,1,0,6.867,0v-1.993a13.012,13.012,0,0,0,9.233-10.293A11.467,11.467,0,0,0,145.321,107.71Zm-8.65-4.022a2.926,2.926,0,0,1-.689-2.822,4.507,4.507,0,0,1,1.032-2.12v5.2C136.9,103.859,136.78,103.774,136.671,103.688Zm9.671,15.86a6.17,6.17,0,0,1-2.46,3.947v-8.94A4.51,4.51,0,0,1,146.342,119.548Z" transform="translate(-69.418 -22.516)" fill="#cb9118"/>
      <path id="Path_12588" data-name="Path 12588" d="M314.643,97.628a3.434,3.434,0,0,0,0-6.867H274.627a3.434,3.434,0,1,0,0,6.867Z" transform="translate(-147.033 -25.163)" fill="#cb9118"/>
      <path id="Path_12589" data-name="Path 12589" d="M241.193,130.795a3.434,3.434,0,0,0,3.434,3.434h53.752a3.434,3.434,0,1,0,0-6.867H244.627A3.434,3.434,0,0,0,241.193,130.795Z" transform="translate(-130.767 -45.007)" fill="#cb9118"/>
      <path id="Path_12590" data-name="Path 12590" d="M244.627,170.826h53.752a3.434,3.434,0,1,0,0-6.867H244.627a3.434,3.434,0,1,0,0,6.867Z" transform="translate(-130.767 -64.849)" fill="#cb9118"/>
      <path id="Path_12591" data-name="Path 12591" d="M127.186,324.142a5.957,5.957,0,0,0-5.95,5.95V362.9a5.957,5.957,0,0,0,5.95,5.95h21.405a5.957,5.957,0,0,0,5.95-5.95V330.092a5.957,5.957,0,0,0-5.95-5.95Zm20.488,37.841H128.1V331.009h19.571Z" transform="translate(-65.73 -151.695)" fill="#cb9118"/>
      <path id="Path_12592" data-name="Path 12592" d="M219.626,310.092v41.965a5.957,5.957,0,0,0,5.95,5.95h21.406a5.957,5.957,0,0,0,5.95-5.95V310.092a5.957,5.957,0,0,0-5.95-5.95H225.576A5.957,5.957,0,0,0,219.626,310.092Zm6.867.917h19.571v40.13H226.493Z" transform="translate(-119.074 -140.852)" fill="#cb9118"/>
      <path id="Path_12593" data-name="Path 12593" d="M226.754,164.563a9.1,9.1,0,0,0,.336-2.423v-6.547a9.164,9.164,0,0,0-6.789-8.834,9.118,9.118,0,0,0,.384-2.61V137.6a9.118,9.118,0,0,0-.384-2.61,9.165,9.165,0,0,0,6.789-8.835v-6.546a9.167,9.167,0,0,0-9.156-9.156H196.778V51.484a7.143,7.143,0,0,0-7.135-7.135H94.165a3.434,3.434,0,0,0,0,6.867h95.477a.268.268,0,0,1,.268.267V231.015a.268.268,0,0,1-.268.267H44.767a.268.268,0,0,1-.267-.267V51.484a.268.268,0,0,1,.267-.267h35.67a3.434,3.434,0,0,0,0-6.867H44.767a7.143,7.143,0,0,0-7.135,7.135v76.963H16.476A9.167,9.167,0,0,0,7.32,137.6v6.547a9.118,9.118,0,0,0,.336,2.422A9.162,9.162,0,0,0,0,155.593v6.547a9.163,9.163,0,0,0,7.655,9.022,9.1,9.1,0,0,0-.336,2.423v6.546a9.124,9.124,0,0,0,.336,2.423A9.161,9.161,0,0,0,0,191.575v6.547a9.11,9.11,0,0,0,2.019,5.722A9.107,9.107,0,0,0,0,209.566v6.546a9.167,9.167,0,0,0,9.156,9.157h5.489a3.434,3.434,0,0,0,0-6.867H9.156a2.292,2.292,0,0,1-2.289-2.289v-6.546a2.291,2.291,0,0,1,2.289-2.289H37.632V218.4H28.375a3.434,3.434,0,1,0,0,6.867h9.257v5.747a7.143,7.143,0,0,0,7.135,7.135H189.643a7.143,7.143,0,0,0,7.135-7.135v-5.747h21.155a9.167,9.167,0,0,0,9.156-9.157v-6.546a9.107,9.107,0,0,0-2.02-5.722,9.106,9.106,0,0,0,2.02-5.722v-6.547a9.119,9.119,0,0,0-.336-2.422,9.163,9.163,0,0,0,7.655-9.022v-6.546A9.163,9.163,0,0,0,226.754,164.563ZM14.187,180.131v-6.546a2.291,2.291,0,0,1,2.289-2.289H37.631v11.123H16.476A2.291,2.291,0,0,1,14.187,180.131Zm0-42.528a2.291,2.291,0,0,1,2.289-2.289H37.631v11.123H16.476a2.291,2.291,0,0,1-2.289-2.288ZM6.867,162.14v-6.547A2.291,2.291,0,0,1,9.156,153.3H37.631v11.123H9.156a2.291,2.291,0,0,1-2.288-2.289Zm2.289,38.27a2.291,2.291,0,0,1-2.289-2.288v-6.547a2.291,2.291,0,0,1,2.289-2.288H37.632V200.41Zm211.066-8.835v6.547a2.291,2.291,0,0,1-2.289,2.288H196.778V189.287h21.155a2.291,2.291,0,0,1,2.289,2.288Zm-6.4-53.972v6.547a2.291,2.291,0,0,1-2.289,2.288H196.778V135.314h14.751A2.291,2.291,0,0,1,213.818,137.6Zm-17.04,15.7h21.155a2.291,2.291,0,0,1,2.289,2.288v6.547a2.291,2.291,0,0,1-2.289,2.289H196.778Zm21.155-35.982a2.291,2.291,0,0,1,2.289,2.289v6.546a2.291,2.291,0,0,1-2.289,2.289H196.778V117.323Zm2.289,98.789a2.291,2.291,0,0,1-2.289,2.289H196.778V207.277h21.155a2.291,2.291,0,0,1,2.289,2.289Zm7.32-35.981a2.291,2.291,0,0,1-2.289,2.289H196.778V171.3h28.475a2.291,2.291,0,0,1,2.289,2.289Z" transform="translate(0)" fill="#cb9118"/>
      <path id="Path_12594" data-name="Path 12594" d="M347.888,305.957a3.433,3.433,0,0,0,3.434-3.434V270.092a5.957,5.957,0,0,0-5.95-5.95H323.966a5.957,5.957,0,0,0-5.95,5.95V330.37a5.957,5.957,0,0,0,5.95,5.95h21.406a5.957,5.957,0,0,0,5.95-5.95V316.252a3.434,3.434,0,1,0-6.867,0v13.2H324.883V271.009h19.571v31.514A3.434,3.434,0,0,0,347.888,305.957Z" transform="translate(-172.418 -119.165)" fill="#cb9118"/>
    </g>
  </g>
</svg>
