<svg xmlns="http://www.w3.org/2000/svg" xmlns:xlink="http://www.w3.org/1999/xlink" width="243" height="176" viewBox="0 0 243 176"><defs><style>.a{fill:#fff;stroke:#707070;}.b{opacity:0.3;clip-path:url(#a);}.c{fill:#cb9118;}</style><clipPath id="a"><rect class="a" width="243" height="176" transform="translate(920 456)"/></clipPath></defs><g class="b" transform="translate(-920 -456)"><g transform="translate(932.856 413.997)"><path class="c" d="M465.787,390.212l-28.558-33.318a4.762,4.762,0,0,0-3.614-1.662H371.739V336.194h80.915a4.76,4.76,0,0,0,4.76-4.76V264.8a4.76,4.76,0,0,0-4.76-4.76H371.739v-4.76a14.279,14.279,0,1,0-28.558,0v4.76H281.3a4.753,4.753,0,0,0-3.611,1.662l-28.558,33.318a4.755,4.755,0,0,0,0,6.186l28.558,33.318a4.758,4.758,0,0,0,3.611,1.671h61.876v19.039H262.266a4.76,4.76,0,0,0-4.76,4.76v66.636a4.76,4.76,0,0,0,4.76,4.76h80.915v90.434a4.76,4.76,0,0,0,4.76,4.76h19.039a4.76,4.76,0,0,0,4.76-4.76V431.388h61.876a4.762,4.762,0,0,0,3.614-1.662l28.558-33.318a4.762,4.762,0,0,0,0-6.2ZM352.7,255.279a4.76,4.76,0,0,1,4.76-4.76,4.629,4.629,0,0,1,3.389,1.457,4.557,4.557,0,0,1,1.371,3.3v4.76H352.7Zm-93.686,42.837,24.48-28.558h164.4v57.116h-164.4ZM352.7,336.194h9.519v19.039H352.7Zm9.519,180.868H352.7V431.388h9.519Zm69.206-95.194h-164.4V364.752h164.4l24.48,28.558Zm0,0" transform="translate(-247.992 -241)"/><path class="c" d="M332.744,322.519H446.976a4.76,4.76,0,1,0,0-9.519H332.744a4.76,4.76,0,1,0,0,9.519Zm0,0" transform="translate(-280.392 -270.163)"/><path class="c" d="M451.736,349.76a4.76,4.76,0,0,0-4.76-4.76H332.744a4.76,4.76,0,1,0,0,9.519H446.976a4.76,4.76,0,0,0,4.76-4.76Zm0,0" transform="translate(-280.392 -283.124)"/><path class="c" d="M446.976,473H332.744a4.76,4.76,0,0,0,0,9.519H446.976a4.76,4.76,0,1,0,0-9.519Zm0,0" transform="translate(-280.392 -334.969)"/><path class="c" d="M446.976,505H332.744a4.76,4.76,0,1,0,0,9.519H446.976a4.76,4.76,0,1,0,0-9.519Zm0,0" transform="translate(-280.392 -347.93)"/></g></g></svg>