<svg xmlns="http://www.w3.org/2000/svg" xmlns:xlink="http://www.w3.org/1999/xlink" width="247" height="175" viewBox="0 0 247 175"><defs><style>.a{fill:#fff;stroke:#707070;}.b{opacity:0.3;clip-path:url(#a);}.c{fill:#cb9118;}</style><clipPath id="a"><rect class="a" width="247" height="175" transform="translate(124 390)"/></clipPath></defs><g class="b" transform="translate(-124 -390)"><g transform="translate(5 201)"><path class="c" d="M510.941,398.669a5.771,5.771,0,1,1-5.771-5.771,5.771,5.771,0,0,1,5.771,5.771Zm0,0" transform="translate(-207.579 -133.443)"/><path class="c" d="M480.453,248.3a21.209,21.209,0,0,0-21.219,21.219v.008a5.771,5.771,0,1,0,11.543-.008,9.683,9.683,0,1,1,9.684,9.69,5.772,5.772,0,0,0-5.771,5.771v6.182a5.771,5.771,0,0,0,11.543,0v-1.207a21.228,21.228,0,0,0-5.779-41.655Zm0,0" transform="translate(-182.869 -44.482)"/><path class="c" d="M217.382,471.564a30.5,30.5,0,1,0-37.4,0A36.641,36.641,0,0,0,162,503.136V515.5a5.771,5.771,0,0,0,5.771,5.771h61.82a5.772,5.772,0,0,0,5.771-5.771V503.136a36.642,36.642,0,0,0-17.98-31.572ZM179.725,447.5a18.957,18.957,0,1,1,18.957,18.957A18.978,18.978,0,0,1,179.725,447.5Zm44.095,62.23H173.543v-6.592a25.138,25.138,0,1,1,50.275,0v6.592Zm0,0" transform="translate(0 -148.271)"/><path class="c" d="M453.3,176H379.118A24.3,24.3,0,0,0,354.8,200.317V311.591a5.776,5.776,0,0,0,9.234,4.617l23.188-17.391H453.3A24.3,24.3,0,0,0,477.618,274.5V200.317A24.3,24.3,0,0,0,453.3,176Zm12.774,98.5A12.764,12.764,0,0,1,453.3,287.274h-68a5.779,5.779,0,0,0-3.463,1.154l-15.493,11.62V200.317a12.764,12.764,0,0,1,12.774-12.774H453.3a12.764,12.764,0,0,1,12.774,12.774Zm0,0" transform="translate(-118.618)"/></g></g></svg>