<svg xmlns="http://www.w3.org/2000/svg" xmlns:xlink="http://www.w3.org/1999/xlink" width="239" height="163" viewBox="0 0 239 163"><defs><style>.a{fill:#fff;stroke:#707070;}.b{opacity:0.3;clip-path:url(#a);}.c{fill:#cb9118;}</style><clipPath id="a"><rect class="a" width="239" height="163" transform="translate(137 192)"/></clipPath></defs><g class="b" transform="translate(-137 -192)"><g transform="translate(-75.978 -111.203)"><path class="c" d="M421.938,274.2h-201.5a7.4,7.4,0,0,0-7.393,7.393v26.02c0,4.1,6.337,4.1,6.337,0V281.6a1.056,1.056,0,0,1,1.056-1.056h201.5a1.057,1.057,0,0,1,1.056,1.056V436.1a1.058,1.058,0,0,1-1.056,1.056h-40.6v-6.594H413.2a3.168,3.168,0,0,0,3.168-3.168V394.216c0-4.1-6.337-4.1-6.337,0v30.009h-28.7V410.167l.306.026c2.629.231,5.9.519,8.167-1.752s1.978-5.542,1.747-8.173c-.247-2.825.02-3.6,2.189-5.4,5.589-4.647,5.695-9.624,0-14.354-2.169-1.806-2.436-2.579-2.189-5.4.62-7.087-2.689-10.559-9.914-9.926-2.821.249-3.584-.02-5.384-2.191-4.638-5.6-9.617-5.705-14.343,0-1.8,2.171-2.563,2.44-5.382,2.191-7.094-.622-10.55,2.706-9.917,9.926.247,2.825-.02,3.6-2.189,5.4-5.589,4.645-5.692,9.622,0,14.354,2.169,1.8,2.436,2.576,2.189,5.4-.664,7.59,2.959,10.526,10.218,9.9v14.059h-124.5V293.468h177.7v83.85c0,4.1,6.337,4.1,6.337,0V290.3a3.169,3.169,0,0,0-3.168-3.168H229.169A3.169,3.169,0,0,0,226,290.3V427.393a3.168,3.168,0,0,0,3.168,3.168H356.834v6.594h-136.4a1.058,1.058,0,0,1-1.056-1.056V323.668c0-4.1-6.337-4.1-6.337,0V436.1a7.4,7.4,0,0,0,7.393,7.393h136.4v14.341q.68,3.9,4.506,2.873l7.745-3.6,7.747,3.6a3.232,3.232,0,0,0,4.5-2.873V443.492h40.6a7.4,7.4,0,0,0,7.393-7.393V281.6a7.4,7.4,0,0,0-7.393-7.393ZM355.976,403.881c-3.171.279-3.325.11-3.048-3.061.425-4.865-.693-7.705-4.451-10.827-2.572-2.139-2.572-2.47,0-4.609,3.758-3.124,4.876-5.963,4.451-10.827-.277-3.171-.123-3.34,3.048-3.06,4.867.426,7.7-.7,10.818-4.462,2.127-2.57,2.453-2.57,4.583,0,3.118,3.762,5.952,4.889,10.818,4.462,3.171-.28,3.325-.11,3.048,3.06-.425,4.865.693,7.7,4.451,10.827,2.57,2.136,2.572,2.47,0,4.609-3.758,3.124-4.878,5.96-4.451,10.825.277,3.171.123,3.342-3.048,3.063-1.991-.176-4.249-.374-6.235.451a12.638,12.638,0,0,0-4.583,4.011,11.731,11.731,0,0,1-2.292,2.344,11.751,11.751,0,0,1-2.292-2.344c-1.307-1.579-2.658-3.212-4.583-4.011a13.882,13.882,0,0,0-6.233-.451Zm14.446,46.853a3.173,3.173,0,0,0-2.673,0l-4.579,2.13V413.853c1.505,1.654,3.36,3.188,5.914,3.188s4.411-1.534,5.914-3.188v39.012Zm0,0"/><path class="c" d="M283.6,350.579H392.827c4.095,0,4.095-6.337,0-6.337H283.6c-4.1,0-4.1,6.337,0,6.337Zm0,0" transform="translate(-29.476 -30.589)"/><path class="c" d="M420.89,381.621a3.169,3.169,0,0,0-3.168-3.168H283.6c-4.094,0-4.094,6.337,0,6.337H417.721a3.168,3.168,0,0,0,3.168-3.168Zm0,0" transform="translate(-29.477 -45.531)"/><path class="c" d="M362.971,415.836a3.167,3.167,0,0,0-3.168-3.168H283.6c-4.094,0-4.094,6.337,0,6.337h76.2a3.168,3.168,0,0,0,3.168-3.168Zm0,0" transform="translate(-29.477 -60.474)"/><path class="c" d="M322.313,475.408l-5.181.007c-3.324,0-5.153-.884-5.832-4.407-.621-3.219-5.261-2.808-6.11,0-.376,1.243-2.277,4.8-3.938,4.51-.88-.154-1.265-1.512-1.589-2.216a26.81,26.81,0,0,1-1.489-4.271c-1.668-6.141-2-12.55-3.045-18.805-.606-3.628-6.134-2.6-6.225.843a96.974,96.974,0,0,1-5.982,32.075c-1.45,3.815,4.673,5.465,6.11,1.685a89.648,89.648,0,0,0,3.631-12.148,31.832,31.832,0,0,0,1.815,4.407c1.851,3.657,5.624,5.82,9.661,4.193a10.832,10.832,0,0,0,3.875-2.83c3,3.457,7.456,3.3,11.617,3.3q9.409-.014,18.816-.042c4.077-.011,4.086-6.348,0-6.337q-8.066.023-16.132.037Zm0,0" transform="translate(-30.424 -75.883)"/><path class="c" d="M480.485,478.465a12.375,12.375,0,1,0-12.374-12.376,12.389,12.389,0,0,0,12.374,12.376Zm0-18.413a6.038,6.038,0,1,1-6.037,6.038,6.045,6.045,0,0,1,6.037-6.038Zm0,0" transform="translate(-111.401 -78.401)"/></g></g></svg>