<svg xmlns="http://www.w3.org/2000/svg" xmlns:xlink="http://www.w3.org/1999/xlink" width="247" height="175" viewBox="0 0 247 175"><defs><style>.a{fill:#fff;stroke:#707070;}.b{opacity:0.3;clip-path:url(#a);}.c{fill:#cb9118;}</style><clipPath id="a"><rect class="a" width="247" height="175" transform="translate(124 390)"/></clipPath></defs><g class="b" transform="translate(-124 -390)"><g transform="translate(45 103.981)"><path class="c" d="M268.78,461.04h-7.323v7.323H122.323V263.323h113.5v25.63h25.63v54.921h7.323V283.827L240.953,256H115V475.686H268.78ZM243.15,268.448l13.182,13.182H243.15Zm0,0" transform="translate(0)"/><rect class="c" width="51.601" height="6.616" transform="translate(165.719 274.548)"/><rect class="c" width="72.771" height="6.616" transform="translate(177.627 303.656)"/><rect class="c" width="72.771" height="7.939" transform="translate(177.627 318.211)"/><path class="c" d="M191.614,362.307h-7.323v7.323a3.459,3.459,0,0,1-3.661,3.661H165.984a3.459,3.459,0,0,1-3.661-3.661V354.984a3.459,3.459,0,0,1,3.661-3.661h7.323V344h-7.323A10.787,10.787,0,0,0,155,354.984V369.63a10.787,10.787,0,0,0,10.984,10.984H180.63a10.787,10.787,0,0,0,10.984-10.984Zm0,0" transform="translate(-21.693 -47.724)"/><path class="c" d="M181.543,364.361l18.382-18.381,5.178,5.178L186.72,369.54Zm0,0" transform="translate(-36.088 -48.798)"/><rect class="c" width="29.108" height="7.939" transform="translate(177.627 357.904)"/><rect class="c" width="21.17" height="6.616" transform="translate(177.627 373.781)"/><path class="c" d="M191.614,482.307h-7.323v7.323a3.459,3.459,0,0,1-3.661,3.661H165.984a3.459,3.459,0,0,1-3.661-3.661V474.984a3.459,3.459,0,0,1,3.661-3.661h7.323V464h-7.323A10.787,10.787,0,0,0,155,474.984V489.63a10.787,10.787,0,0,0,10.984,10.984H180.63a10.787,10.787,0,0,0,10.984-10.984Zm0,0" transform="translate(-21.693 -112.803)"/><path class="c" d="M181.543,484.359l18.38-18.382,5.18,5.179-18.383,18.38Zm0,0" transform="translate(-36.088 -113.875)"/><rect class="c" width="18.524" height="7.939" transform="translate(177.627 413.475)"/><rect class="c" width="21.17" height="7.939" transform="translate(177.627 428.029)"/><path class="c" d="M155,594.984V609.63a10.787,10.787,0,0,0,10.984,10.984H180.63a10.787,10.787,0,0,0,10.984-10.984v-7.323h-7.323v7.323a3.459,3.459,0,0,1-3.661,3.661H165.984a3.459,3.459,0,0,1-3.661-3.661V594.984a3.459,3.459,0,0,1,3.661-3.661h7.323V584h-7.323A10.787,10.787,0,0,0,155,594.984Zm0,0" transform="translate(-21.693 -177.882)"/><path class="c" d="M181.543,604.359l18.38-18.382,5.18,5.177L186.72,609.536Zm0,0" transform="translate(-36.088 -178.954)"/><path class="c" d="M366.26,464a51.26,51.26,0,1,0,51.26,51.26A51.409,51.409,0,0,0,366.26,464Zm0,95.2a43.1,43.1,0,0,1-32.586-14.646l8.787-17.574a2.752,2.752,0,0,1,2.564-1.831l15.377-3.661-4.759-13.548c0-.367-.367-.733-.367-1.1V493.291a3.459,3.459,0,0,1,3.661-3.661h14.646a3.459,3.459,0,0,1,3.661,3.661V506.84a1.345,1.345,0,0,1-.367,1.1l-4.392,13.548,15.377,3.661a6.539,6.539,0,0,1,2.564,1.831l8.787,17.574A44.457,44.457,0,0,1,366.26,559.2Zm37.347-21.235-6.959-14.281a10.78,10.78,0,0,0-7.323-5.856l-7.687-1.831,2.2-6.225a10.818,10.818,0,0,0,.733-3.661V493.291a10.787,10.787,0,0,0-10.984-10.984H358.937a10.787,10.787,0,0,0-10.984,10.984V506.84a10.692,10.692,0,0,0,.733,3.295l2.2,6.223-7.687,1.831a10.79,10.79,0,0,0-7.323,5.859l-6.959,14.279a43.956,43.956,0,1,1,75.059-45.768,43.163,43.163,0,0,1-.364,45.4Zm0,0" transform="translate(-108.464 -112.803)"/></g></g></svg>