<svg xmlns="http://www.w3.org/2000/svg" xmlns:xlink="http://www.w3.org/1999/xlink" width="247" height="175" viewBox="0 0 247 175"><defs><style>.a{fill:#fff;stroke:#707070;}.b{opacity:0.3;clip-path:url(#a);}.c{fill:#cb9118;}</style><clipPath id="a"><rect class="a" width="247" height="175" transform="translate(124 390)"/></clipPath></defs><g class="b" transform="translate(-124 -390)"><g transform="translate(-34.998 253)"><path class="c" d="M392.388,225.182v-7.466a3.733,3.733,0,0,0,3.733-3.733v-22.4a3.734,3.734,0,0,0-3.733-3.733H372.231l-.725-2.8a68.98,68.98,0,0,0-7.615-18.237l-1.494-2.5,14.312-14.337a3.7,3.7,0,0,0,0-5.226l-15.853-15.876a3.787,3.787,0,0,0-5.228,0l-14.337,14.337-2.5-1.492a69.067,69.067,0,0,0-18.261-7.619l-2.8-.729V113.2A3.733,3.733,0,0,0,314,109.466H291.6a3.733,3.733,0,0,0-3.733,3.733v20.158l-2.8.724a69.123,69.123,0,0,0-18.24,7.61l-2.5,1.494-14.332-14.308a3.786,3.786,0,0,0-5.246,0L228.891,144.73a3.706,3.706,0,0,0,0,5.249l14.338,14.337-1.494,2.5a68.974,68.974,0,0,0-7.613,18.237l-.733,2.8H213.213a3.733,3.733,0,0,0-3.733,3.733v22.4a3.732,3.732,0,0,0,3.733,3.733v7.466a11.2,11.2,0,0,1-11.2-11.2v-22.4a11.2,11.2,0,0,1,11.2-11.2h14.444a76.225,76.225,0,0,1,6.211-14.867L223.6,155.257a11.159,11.159,0,0,1,0-15.8l15.865-15.865a11.432,11.432,0,0,1,15.807,0l10.262,10.261a76.258,76.258,0,0,1,14.867-6.2V113.2A11.2,11.2,0,0,1,291.6,102H314a11.2,11.2,0,0,1,11.2,11.2v14.446a76.27,76.27,0,0,1,14.867,6.208l10.265-10.265a11.434,11.434,0,0,1,15.809,0L382,139.448a11.166,11.166,0,0,1,0,15.8l-10.265,10.265a76.51,76.51,0,0,1,6.209,14.872h14.443a11.2,11.2,0,0,1,11.2,11.2v22.4a11.2,11.2,0,0,1-11.2,11.2Zm0,0" transform="translate(-18.755)"/><path class="c" d="M436.33,284.056h-7.466a44.793,44.793,0,1,0-89.587,0h-7.466a52.259,52.259,0,1,1,104.518,0Zm0,0" transform="translate(-100.025 -81.271)"/><path class="c" d="M434.084,376.434a22.4,22.4,0,1,1,22.4-22.4,22.4,22.4,0,0,1-22.4,22.4Zm0-37.328a14.931,14.931,0,1,0,14.931,14.931,14.932,14.932,0,0,0-14.931-14.931Zm0,0" transform="translate(-150.038 -143.786)"/><path class="c" d="M603.818,416.371a22.4,22.4,0,1,1,22.4-22.4,22.4,22.4,0,0,1-22.4,22.4Zm0-37.328a14.931,14.931,0,1,0,14.931,14.931,14.932,14.932,0,0,0-14.931-14.931Zm0,0" transform="translate(-256.314 -168.792)"/><path class="c" d="M264.349,416.371a22.4,22.4,0,1,1,22.4-22.4,22.4,22.4,0,0,1-22.4,22.4Zm0-37.328a14.931,14.931,0,1,0,14.931,14.931,14.932,14.932,0,0,0-14.931-14.931Zm0,0" transform="translate(-43.761 -168.792)"/><path class="c" d="M381.344,482.213a33.218,33.218,0,0,0-18.909-5.845H332.572a33.347,33.347,0,0,0-5.417.492,33.506,33.506,0,0,0-9.141-9.485,14.483,14.483,0,0,0-1.722-1.119,33.342,33.342,0,0,0-17.316-4.819H269.115a33.22,33.22,0,0,0-28.168,15.423,33.5,33.5,0,0,0-5.427-.492H205.657a33.219,33.219,0,0,0-18.9,5.837,33.6,33.6,0,0,0-14.7,27.758v14.931a26.153,26.153,0,0,0,15.2,23.718,25.3,25.3,0,0,0,10.928,2.411h37.328v-7.466h-33.6V502.5h-7.466v40.687a17.469,17.469,0,0,1-4.066-1.351,18.689,18.689,0,0,1-10.865-16.939V509.963a26.15,26.15,0,0,1,11.445-21.6,25.815,25.815,0,0,1,14.684-4.532h29.862c.657,0,1.292.07,1.934.114a33.579,33.579,0,0,0-1.934,11.085V532.36a18.688,18.688,0,0,0,18.664,18.664h11.2V491.3h-7.466v52.259h-3.733a11.2,11.2,0,0,1-11.2-11.2V495.032a26.13,26.13,0,0,1,26.129-26.13h29.863a26.083,26.083,0,0,1,13.6,3.841,9.189,9.189,0,0,1,1.089.7,26.425,26.425,0,0,1,8.37,9.332,26.064,26.064,0,0,1,3.065,12.259V532.36a11.2,11.2,0,0,1-11.2,11.2h-3.733V491.3H302.71v59.725h11.2a18.687,18.687,0,0,0,18.664-18.664V495.032a33.658,33.658,0,0,0-1.931-11.085c.643-.044,1.278-.114,1.931-.114h29.862a25.836,25.836,0,0,1,14.695,4.539,26.157,26.157,0,0,1,11.435,21.591v14.931a18.689,18.689,0,0,1-10.928,16.968,17.124,17.124,0,0,1-4,1.322V502.5h-7.466v41.061h-33.6v7.466H369.9a25.242,25.242,0,0,0,10.865-2.382,26.163,26.163,0,0,0,15.264-23.747V509.963a33.594,33.594,0,0,0-14.686-27.75Zm0,0" transform="translate(0 -225.056)"/><rect class="c" width="29.862" height="7.466" transform="translate(269.115 318.502)"/></g></g></svg>