<svg xmlns="http://www.w3.org/2000/svg" width="10.48" height="16.769" viewBox="0 0 10.48 16.769"><defs><style>.a{fill:#fff;}</style></defs><g transform="translate(0 0)"><path class="a" d="M-123.975,38.12l-2.4,2.4V28.381a1.048,1.048,0,0,0-1.048-1.048,1.048,1.048,0,0,0-1.048,1.048V40.523l-2.4-2.4a1.048,1.048,0,0,0-1.482,0,1.048,1.048,0,0,0,0,1.482l4.192,4.192c.024.024.05.048.077.069l.037.028c.015.011.03.023.045.033l.046.028.042.025.047.023.046.021.047.017.05.018.047.012.052.013.055.008.046.007c.034,0,.068.005.1.005h0q.051,0,.1-.005l.046-.007.055-.008.052-.013.047-.012.05-.017.047-.017.045-.021.047-.023.042-.025.046-.028c.016-.01.03-.022.045-.033l.037-.028a1.034,1.034,0,0,0,.077-.069l4.192-4.192a1.048,1.048,0,0,0,0-1.482A1.048,1.048,0,0,0-123.975,38.12Z" transform="translate(132.666 -27.333)"/></g></svg>