<svg xmlns="http://www.w3.org/2000/svg" width="31.557" height="33.5" viewBox="0 0 31.557 33.5">
  <g id="Group_18491" data-name="Group 18491" transform="translate(20748.057 16226)">
    <g id="xls" transform="translate(-20748.057 -16226)">
      <path id="Path_12581" data-name="Path 12581" d="M52.422,4.822,48.028.428A1.452,1.452,0,0,0,47,0H28.5a1.463,1.463,0,0,0-1.461,1.461V15.926H26.008a1.961,1.961,0,0,0-1.959,1.959v8.958A1.961,1.961,0,0,0,26.008,28.8H41.435A1.463,1.463,0,0,0,42.9,27.34V20.373a1.463,1.463,0,0,0-1.461-1.461H26.008a1.027,1.027,0,0,1,0-2.055h1.027v.53a.466.466,0,1,0,.931,0V1.461a.53.53,0,0,1,.53-.53H46.444V5.442a.964.964,0,0,0,.963.963h4.511V24.187a2.336,2.336,0,0,1,.931.384V5.855A1.451,1.451,0,0,0,52.422,4.822ZM26.008,19.843H41.435a.53.53,0,0,1,.53.53V27.34a.53.53,0,0,1-.53.53H26.008a1.029,1.029,0,0,1-1.027-1.027V19.551A1.946,1.946,0,0,0,26.008,19.843Zm21.368-14.4V1.092l4.382,4.382h-4.35A.032.032,0,0,1,47.375,5.442Z" transform="translate(-24.049 0)" fill="#8e2520"/>
      <path id="Path_12586" data-name="Path 12586" d="M51.136,78.86l-17.845-.046a.53.53,0,0,1-.53-.53.466.466,0,0,0-.931,0,1.463,1.463,0,0,0,1.461,1.461H51.58C51.522,79.543,51.222,79.493,51.136,78.86Z" transform="translate(-28.681 -47.958)" fill="#8e2520"/>
      <path id="Path_12582" data-name="Path 12582" d="M161.991,348.968a3.794,3.794,0,0,0,.505.01l.985,0a.466.466,0,1,0-.005-.931l-.94,0V344.49a.466.466,0,1,0-.931,0v4.019a.466.466,0,0,0,.387.459Z" transform="translate(-153.064 -322.666)" fill="#cb9118"/>
      <path id="Path_12583" data-name="Path 12583" d="M215.72,348.979a1.622,1.622,0,0,0,1.656-1.256,1.48,1.48,0,0,0-1.146-1.627c-.5-.185-.966-.386-1.1-.445a.315.315,0,0,1-.116-.3.44.44,0,0,1,.346-.353,1.377,1.377,0,0,1,1.141.263.466.466,0,0,0,.6-.715,2.3,2.3,0,0,0-2.007-.44,1.378,1.378,0,0,0-1,1.112,1.242,1.242,0,0,0,.554,1.229.467.467,0,0,0,.065.035c.023.01.576.256,1.2.486.185.068.61.262.551.589a.716.716,0,0,1-.739.488,1.438,1.438,0,0,1-1.057-.443.466.466,0,0,0-.69.625,2.383,2.383,0,0,0,1.747.749Z" transform="translate(-202.069 -322.666)" fill="#cb9118"/>
      <path id="Path_12584" data-name="Path 12584" d="M80.2,348.894a.466.466,0,0,0,.649-.113l1.137-1.614,1.135,1.613a.466.466,0,1,0,.762-.536l-1.327-1.886,1.128-1.6a.466.466,0,1,0-.761-.536l-.935,1.328-.934-1.328a.466.466,0,0,0-.762.536l1.126,1.6-1.329,1.886a.466.466,0,0,0,.112.649Z" transform="translate(-76.525 -322.666)" fill="#cb9118"/>
      <path id="Path_12585" data-name="Path 12585" d="M189.23,129.22a.964.964,0,0,0-.963-.963H177.318a.964.964,0,0,0-.963.963v6.47a.964.964,0,0,0,.963.963h10.949a.964.964,0,0,0,.963-.963v-6.47Zm-7.963,4.013v-1.557h3.05v1.557Zm3.05.931v1.557h-3.05v-1.557Zm-7.032-2.488h3.05v1.557h-3.05Zm3.981-.931v-1.557h3.05v1.557Zm3.981.931h3.05v1.557h-3.05Zm3.05-2.456v1.525h-3.05v-1.557h3.018A.032.032,0,0,1,188.3,129.22Zm-10.981-.032h3.018v1.557h-3.05V129.22A.032.032,0,0,1,177.318,129.188Zm-.032,6.5v-1.525h3.05v1.557h-3.018A.032.032,0,0,1,177.286,135.69Zm10.981.032h-3.018v-1.557h3.05v1.525A.032.032,0,0,1,188.267,135.722Z" transform="translate(-166.899 -120.294)" fill="#cb9118"/>
    </g>
    <path id="Icon_ionic-ios-arrow-round-forward" data-name="Icon ionic-ios-arrow-round-forward" d="M2.448.081a.287.287,0,0,0,0,.4l.711.713H.284a.286.286,0,0,0,0,.571H3.154l-.711.713a.289.289,0,0,0,0,.4.285.285,0,0,0,.4,0l1.186-1.2h0a.321.321,0,0,0,.059-.09.273.273,0,0,0,.022-.11.286.286,0,0,0-.081-.2L2.848.087A.28.28,0,0,0,2.448.081Z" transform="translate(-20719.516 -16198.796) rotate(90)" fill="#8e2520"/>
    <circle id="Ellipse_697" data-name="Ellipse 697" cx="4" cy="4" r="4" transform="translate(-20725 -16201)" fill="none" stroke="#cb9118" stroke-width="1"/>
  </g>
</svg>
