<svg xmlns="http://www.w3.org/2000/svg" width="11.18" height="16.769" viewBox="0 0 11.18 16.769"><defs><style>.a{fill:#8e2520;}</style></defs><g transform="translate(0 0)"><path class="a" d="M2.116-140.331l-2.795-2.795h0c-.016-.016-.033-.031-.051-.046l-.025-.019-.03-.022-.031-.019-.028-.017-.032-.015-.03-.014-.031-.011L-.97-143.3-1-143.309l-.035-.008-.037-.006-.031,0a.7.7,0,0,0-.138,0l-.031,0-.037.006-.035.008-.032.008-.033.012-.031.011-.03.014-.032.015-.028.017-.031.019-.03.022-.025.019c-.018.015-.035.03-.051.046h0l-2.795,2.795a.7.7,0,0,0,0,.988.7.7,0,0,0,.988,0l1.6-1.6v8.1a.7.7,0,0,0,.7.7.7.7,0,0,0,.7-.7v-8.1l1.6,1.6a.7.7,0,0,0,.988,0A.7.7,0,0,0,2.116-140.331Z" transform="translate(8.859 143.331)"/><path class="a" d="M-126.872,34.525l-1.6,1.6v-8.1a.7.7,0,0,0-.7-.7.7.7,0,0,0-.7.7v8.1l-1.6-1.6a.7.7,0,0,0-.988,0,.7.7,0,0,0,0,.988l2.795,2.795c.016.016.033.032.051.046l.025.019.03.022.03.018.028.017.032.015.03.014.031.011.033.012.031.008.035.008.037.006.031,0c.023,0,.045,0,.068,0h0q.034,0,.068,0l.031,0,.037-.006.035-.008.032-.008.033-.012.031-.011.03-.014.032-.015.028-.017.03-.018.03-.022.025-.019a.69.69,0,0,0,.051-.046l2.795-2.795a.7.7,0,0,0,0-.988A.7.7,0,0,0-126.872,34.525Z" transform="translate(132.666 -21.743)"/></g></svg>