<svg xmlns="http://www.w3.org/2000/svg" width="19.843" height="19.843" viewBox="0 0 19.843 19.843">
  <path id="Icon_material-block" data-name="Icon material-block" d="M12.921,3a9.921,9.921,0,1,0,9.921,9.921A9.925,9.925,0,0,0,12.921,3ZM4.984,12.921a7.935,7.935,0,0,1,7.937-7.937,7.84,7.84,0,0,1,4.861,1.677L6.661,17.783A7.84,7.84,0,0,1,4.984,12.921Zm7.937,7.937A7.84,7.84,0,0,1,8.06,19.182L19.182,8.06a7.84,7.84,0,0,1,1.677,4.861A7.935,7.935,0,0,1,12.921,20.858Z" transform="translate(-3 -3)" fill="#8e2520"/>
</svg>
