<svg xmlns="http://www.w3.org/2000/svg" width="71.521" height="71.522" viewBox="0 0 71.521 71.522"><defs><style>.a{fill:#cb9118;}.b{fill:#8e2520;}</style></defs><path class="a" d="M675.232,409.07a1.2,1.2,0,0,0,1.065.651,1.18,1.18,0,0,0,.539-.13,102.411,102.411,0,0,1,10.547-4.693,1.193,1.193,0,0,0-.72-2.274,102.316,102.316,0,0,0-10.909,4.843,1.193,1.193,0,0,0-.522,1.6Zm0,0" transform="translate(-634.575 -375.152)"/><path class="a" d="M676.3,327.8a1.189,1.189,0,0,0,.539-.13,102.258,102.258,0,0,1,10.547-4.693,1.193,1.193,0,0,0-.72-2.275,102.235,102.235,0,0,0-10.909,4.843,1.192,1.192,0,0,0,.542,2.254Zm0,0" transform="translate(-634.575 -307.536)"/><path class="b" d="M513.329,263.435a1.192,1.192,0,0,0-1.192,1.192v46.488a3.58,3.58,0,0,1-3.575,3.576H479.953V311.95a35.132,35.132,0,0,1,10.728-2.025,61.473,61.473,0,0,1,17.5,2.323,1.192,1.192,0,0,0,1.567-1.131V258.668a1.19,1.19,0,0,0-.933-1.164s-.934-.209-2.532-.5a1.192,1.192,0,0,0-.432,2.345c.609.112,1.119.211,1.513.289v49.9a67.291,67.291,0,0,0-16.689-1.992,37.441,37.441,0,0,0-11.874,2.284,27.917,27.917,0,0,0-10.775-2.284,80.327,80.327,0,0,0-17.88,2.042V259.59a78.46,78.46,0,0,1,17.88-2.115,25.853,25.853,0,0,1,9.536,1.964v46.908a1.192,1.192,0,0,0,1.806,1.021c.118-.07,11.928-7.124,22.411-10.618a1.192,1.192,0,0,0,.815-1.131V246.747a1.194,1.194,0,0,0-1.612-1.116,126.826,126.826,0,0,0-19.284,9.642,1.192,1.192,0,0,0,1.264,2.022,127.262,127.262,0,0,1,17.248-8.8v46.276a133.556,133.556,0,0,0-20.265,9.511v-45.61a1.193,1.193,0,0,0-.659-1.067,27.6,27.6,0,0,0-11.261-2.509,77.4,77.4,0,0,0-19.4,2.43,1.192,1.192,0,0,0-.864,1.146v52.448a1.192,1.192,0,0,0,1.192,1.192,1.184,1.184,0,0,0,.327-.046,76.572,76.572,0,0,1,18.745-2.338,25.788,25.788,0,0,1,9.536,1.966v2.8H448.96a3.58,3.58,0,0,1-3.576-3.576V264.628a1.192,1.192,0,1,0-2.384,0v46.488a5.967,5.967,0,0,0,5.96,5.96h59.6a5.967,5.967,0,0,0,5.96-5.96V264.628a1.192,1.192,0,0,0-1.192-1.192Zm0,0" transform="translate(-443 -245.555)"/><path class="a" d="M675.232,368.11a1.193,1.193,0,0,0,1.6.521,102.222,102.222,0,0,1,10.547-4.693,1.193,1.193,0,0,0-.72-2.274,102.311,102.311,0,0,0-10.909,4.843,1.193,1.193,0,0,0-.522,1.6Zm0,0" transform="translate(-634.575 -341.344)"/><path class="a" d="M675.232,450.029a1.192,1.192,0,0,0,1.6.521,102.285,102.285,0,0,1,10.547-4.693,1.193,1.193,0,0,0-.72-2.275,102.238,102.238,0,0,0-10.909,4.843,1.192,1.192,0,0,0-.522,1.6Zm0,0" transform="translate(-634.575 -408.959)"/><path class="a" d="M528.226,369.129c-7.361-1.727-15.725.473-16.077.568a1.192,1.192,0,0,0,.308,2.344,1.21,1.21,0,0,0,.31-.04c.08-.023,8.133-2.141,14.916-.55a1.192,1.192,0,1,0,.544-2.321Zm0,0" transform="translate(-499.346 -347.007)"/><path class="a" d="M528.226,410.093c-7.361-1.726-15.725.474-16.077.568a1.192,1.192,0,1,0,.618,2.3c.08-.023,8.133-2.14,14.916-.549a1.192,1.192,0,1,0,.544-2.321Zm0,0" transform="translate(-499.346 -380.819)"/><path class="a" d="M675.232,490.99a1.194,1.194,0,0,0,1.6.521,102.4,102.4,0,0,1,10.547-4.693,1.193,1.193,0,0,0-.72-2.274,102.235,102.235,0,0,0-10.909,4.843,1.193,1.193,0,0,0-.522,1.6Zm0,0" transform="translate(-634.575 -442.767)"/><path class="a" d="M528.226,451.051c-7.361-1.726-15.725.472-16.077.567a1.193,1.193,0,0,0,.308,2.344,1.22,1.22,0,0,0,.31-.042c.08-.023,8.133-2.141,14.916-.55a1.192,1.192,0,1,0,.544-2.32Zm0,0" transform="translate(-499.346 -414.625)"/><path class="a" d="M528.226,532.969c-7.361-1.727-15.725.473-16.077.567a1.193,1.193,0,0,0,.308,2.345,1.215,1.215,0,0,0,.31-.042c.08-.023,8.133-2.141,14.916-.55a1.192,1.192,0,1,0,.544-2.321Zm0,0" transform="translate(-499.346 -482.239)"/><path class="a" d="M528.226,492.01c-7.361-1.728-15.725.472-16.077.567a1.193,1.193,0,0,0,.308,2.344,1.218,1.218,0,0,0,.31-.042c.08-.023,8.133-2.141,14.916-.55a1.192,1.192,0,1,0,.544-2.32Zm0,0" transform="translate(-499.346 -448.431)"/></svg>