<svg xmlns="http://www.w3.org/2000/svg" width="24.067" height="21.622" viewBox="0 0 24.067 21.622">
  <g id="Group_18460" data-name="Group 18460" transform="translate(-407.398 -314)">
    <path id="Path_12460" data-name="Path 12460" d="M604.669,394a.47.47,0,1,0,.47.47.47.47,0,0,0-.47-.47Zm0,0" transform="translate(-185.238 -75.299)" fill="#cb9118"/>
    <path id="Path_12461" data-name="Path 12461" d="M471.868,522.94a.47.47,0,1,0-.47-.47.47.47,0,0,0,.47.47Zm0,0" transform="translate(-60.24 -195.779)" fill="#cb9118"/>
    <path id="Path_12462" data-name="Path 12462" d="M423.192,314c-4.232,0-7.705,2.918-7.974,6.593-4.03.2-7.82,3.108-7.82,7.039a6.568,6.568,0,0,0,1.833,4.5,2.858,2.858,0,0,1-.755,2.693.47.47,0,0,0,.332.8,5.185,5.185,0,0,0,3.592-1.452,10.708,10.708,0,0,0,3.27.512c4.231,0,7.7-2.917,7.973-6.591a10.562,10.562,0,0,0,2.818-.5,5.185,5.185,0,0,0,3.592,1.452.47.47,0,0,0,.332-.8,2.859,2.859,0,0,1-.756-2.693,6.567,6.567,0,0,0,1.833-4.5c0-4.084-4.082-7.051-8.273-7.051Zm-7.521,19.742a9.5,9.5,0,0,1-3.22-.555.47.47,0,0,0-.521.119,4.242,4.242,0,0,1-2.109,1.252,3.8,3.8,0,0,0,.286-2.8.467.467,0,0,0-.115-.2,5.648,5.648,0,0,1-1.654-3.931c0-3.312,3.358-6.111,7.333-6.111,3.753,0,7.051,2.61,7.051,6.111,0,3.37-3.163,6.111-7.051,6.111Zm13.2-8.761a.471.471,0,0,0-.115.2,3.8,3.8,0,0,0,.287,2.8,4.239,4.239,0,0,1-2.109-1.252.471.471,0,0,0-.521-.119,9.261,9.261,0,0,1-2.769.543,6.728,6.728,0,0,0-2.54-4.689h6.131a.47.47,0,1,0,0-.94h-7.575a8.764,8.764,0,0,0-3.5-.926c.27-3.157,3.321-5.654,7.031-5.654,3.975,0,7.333,2.8,7.333,6.111a5.649,5.649,0,0,1-1.654,3.931Zm0,0" transform="translate(0 0)" fill="#8e2520"/>
    <path id="Path_12463" data-name="Path 12463" d="M509.791,522h-5.923a.47.47,0,0,0,0,.94h5.923a.47.47,0,0,0,0-.94Zm0,0" transform="translate(-90.359 -195.779)" fill="#cb9118"/>
    <path id="Path_12464" data-name="Path 12464" d="M479.671,570h-7.8a.47.47,0,0,0,0,.94h7.8a.47.47,0,0,0,0-.94Zm0,0" transform="translate(-60.24 -240.958)" fill="#cb9118"/>
    <path id="Path_12465" data-name="Path 12465" d="M642.592,394h-5.923a.47.47,0,0,0,0,.94h5.923a.47.47,0,0,0,0-.94Zm0,0" transform="translate(-215.357 -75.299)" fill="#cb9118"/>
    <path id="Path_12572" data-name="Path 12572" d="M643.63,394h-6.885a.572.572,0,0,0,0,1.143h6.885a.572.572,0,0,0,0-1.143Zm0,0" transform="translate(-216.472 -72.503)" fill="#cb9118"/>
  </g>
</svg>
