<svg xmlns="http://www.w3.org/2000/svg" width="74.004" height="74.004" viewBox="0 0 74.004 74.004">
  <g id="Icon_awesome-check-circle" data-name="Icon awesome-check-circle" transform="translate(4.438 4.438)" fill="#00b84a">
    <path d="M 32.56445693969727 67.06641387939453 C 27.90781211853027 67.06641387939453 23.38913536071777 66.15384674072266 19.13395690917969 64.35405731201172 C 15.02517890930176 62.6161994934082 11.33565711975098 60.12883377075195 8.167867660522461 56.96104431152344 C 5.000079154968262 53.79325866699219 2.512712478637695 50.10373306274414 0.7748569250106812 45.99495697021484 C -1.024931907653809 41.73978042602539 -1.937498569488525 37.22109985351563 -1.937498569488525 32.56445693969727 C -1.937498569488525 27.90781211853027 -1.024931907653809 23.38913536071777 0.7748569250106812 19.13395690917969 C 2.512712478637695 15.02517890930176 5.000079154968262 11.33565711975098 8.167867660522461 8.167867660522461 C 11.33565711975098 5.000079154968262 15.02517890930176 2.512712478637695 19.13395690917969 0.7748569250106812 C 23.38913536071777 -1.024931907653809 27.90781211853027 -1.937498569488525 32.56445693969727 -1.937498569488525 C 37.22109985351563 -1.937498569488525 41.73978042602539 -1.024931907653809 45.99495697021484 0.7748569250106812 C 50.10373306274414 2.512712478637695 53.79325866699219 5.000079154968262 56.96104431152344 8.167867660522461 C 60.12883377075195 11.33565711975098 62.6161994934082 15.02517890930176 64.35405731201172 19.13395690917969 C 66.15384674072266 23.38913536071777 67.06641387939453 27.90781211853027 67.06641387939453 32.56445693969727 C 67.06641387939453 37.22109985351563 66.15384674072266 41.73978042602539 64.35405731201172 45.99495697021484 C 62.6161994934082 50.10373306274414 60.12883377075195 53.79325866699219 56.96104431152344 56.96104431152344 C 53.79325866699219 60.12883377075195 50.10373306274414 62.6161994934082 45.99495697021484 64.35405731201172 C 41.73978042602539 66.15384674072266 37.22109985351563 67.06641387939453 32.56445693969727 67.06641387939453 Z M 14.59834671020508 34.62903594970703 L 27.40291213989258 47.43360137939453 L 50.53056335449219 24.30595207214355 L 48.2264518737793 22.00183868408203 L 29.17061233520508 41.05754470825195 L 27.40284538269043 42.82530212402344 L 25.63508987426758 41.05753326416016 L 16.90247344970703 32.32491683959961 L 14.59834671020508 34.62903594970703 Z" stroke="none"/>
    <path d="M 32.56445693969727 0.5625 C 14.89021682739258 0.5625 0.5625 14.89021682739258 0.5625 32.56445693969727 C 0.5625 50.23869705200195 14.89021682739258 64.56641387939453 32.56445693969727 64.56641387939453 C 50.23870849609375 64.56641387939453 64.56641387939453 50.23870849609375 64.56641387939453 32.56445693969727 C 64.56641387939453 14.89021682739258 50.23870849609375 0.5625 32.56445693969727 0.5625 M 27.40291595458984 50.11390686035156 C 26.87453079223633 50.11390686035156 26.34607696533203 49.91229629516602 25.94289779663086 49.50910949707031 L 12.52270889282227 36.08893585205078 C 11.71646881103516 35.28268432617188 11.71646881103516 33.97537612915039 12.52270889282227 33.16913604736328 L 15.44250869750977 30.24935150146484 C 15.84569549560547 29.84622955322266 16.37411499023438 29.64466857910156 16.90251541137695 29.64466857910156 C 17.43091583251953 29.64466857910156 17.95930480957031 29.84622955322266 18.36243057250977 30.24935150146484 L 27.40285873413086 39.28977966308594 L 46.76648330688477 19.9262580871582 C 47.169677734375 19.5230712890625 47.69809722900391 19.32147598266602 48.22650146484375 19.32147598266602 C 48.75489807128906 19.32147598266602 49.28328323364258 19.5230712890625 49.6864013671875 19.9262580871582 L 52.60620498657227 22.8460578918457 C 53.41244506835938 23.65229797363281 53.41244506835938 24.95960235595703 52.60620498657227 25.76584243774414 L 28.86281585693359 49.50923156738281 L 28.86281585693359 49.50924301147461 C 28.45962905883789 49.9123649597168 27.93130493164063 50.11390686035156 27.40291595458984 50.11390686035156 M 32.56445693969727 -4.4375 C 37.5574951171875 -4.4375 42.40383148193359 -3.458488464355469 46.96884155273438 -1.527664184570313 C 51.37561798095703 0.33624267578125 55.33224487304688 3.003524780273438 58.72881698608398 6.400096893310547 C 62.12538909912109 9.796684265136719 64.79268646240234 13.75331115722656 66.65657806396484 18.16006851196289 C 68.58740234375 22.72508239746094 69.56641387939453 27.57141876220703 69.56641387939453 32.56445693969727 C 69.56641387939453 37.5574951171875 68.58740234375 42.40383148193359 66.65657806396484 46.96884155273438 C 64.79268646240234 51.37561798095703 62.12538909912109 55.33224487304688 58.72881698608398 58.72881698608398 C 55.33224487304688 62.12538909912109 51.37561798095703 64.79268646240234 46.96884155273438 66.65657806396484 C 42.40383148193359 68.58740234375 37.5574951171875 69.56641387939453 32.56445693969727 69.56641387939453 C 27.57141876220703 69.56641387939453 22.72508239746094 68.58740234375 18.16006851196289 66.65657806396484 C 13.75331115722656 64.79267120361328 9.796684265136719 62.12538909912109 6.400096893310547 58.72881698608398 C 3.003524780273438 55.33222961425781 0.33624267578125 51.37560272216797 -1.527664184570313 46.96884155273438 C -3.458488464355469 42.40383148193359 -4.4375 37.5574951171875 -4.4375 32.56445693969727 C -4.4375 27.57141876220703 -3.458488464355469 22.72508239746094 -1.527664184570313 18.16006851196289 C 0.33624267578125 13.75331115722656 3.003524780273438 9.796684265136719 6.400096893310547 6.400096893310547 C 9.796684265136719 3.003524780273438 13.75331115722656 0.33624267578125 18.16006851196289 -1.527664184570313 C 22.72508239746094 -3.458488464355469 27.57141876220703 -4.4375 32.56445693969727 -4.4375 Z" stroke="none" fill="#fff"/>
  </g>
</svg>
