<svg xmlns="http://www.w3.org/2000/svg" width="51" height="51" viewBox="0 0 51 51">
  <g id="Icon_awesome-check-circle" data-name="Icon awesome-check-circle" transform="translate(2.438 2.438)" fill="#00b84a">
    <path d="M 23.0625 47.0625 C 19.82316970825195 47.0625 16.67995071411133 46.42773818969727 13.72014045715332 45.17584991455078 C 10.86205959320068 43.96699142456055 8.295559883117676 42.23670959472656 6.091919898986816 40.0330810546875 C 3.888289928436279 37.82944869995117 2.158010005950928 35.262939453125 0.949150025844574 32.40486145019531 C -0.3027400076389313 29.44504928588867 -0.9375 26.30183029174805 -0.9375 23.0625 C -0.9375 19.82316970825195 -0.3027400076389313 16.67995071411133 0.949150025844574 13.72014045715332 C 2.158010005950928 10.86205959320068 3.888289928436279 8.295559883117676 6.091919898986816 6.091919898986816 C 8.295559883117676 3.888289928436279 10.86205959320068 2.158010005950928 13.72014045715332 0.949150025844574 C 16.67995071411133 -0.3027400076389313 19.82316970825195 -0.9375 23.0625 -0.9375 C 26.30183029174805 -0.9375 29.44504928588867 -0.3027400076389313 32.40486145019531 0.949150025844574 C 35.262939453125 2.158010005950928 37.82944869995117 3.888289928436279 40.0330810546875 6.091919898986816 C 42.23670959472656 8.295559883117676 43.96699142456055 10.86205959320068 45.17584991455078 13.72014045715332 C 46.42773818969727 16.67995071411133 47.0625 19.82316970825195 47.0625 23.0625 C 47.0625 26.30183029174805 46.42773818969727 29.44504928588867 45.17584991455078 32.40486145019531 C 43.96699142456055 35.262939453125 42.23670959472656 37.82944869995117 40.0330810546875 40.0330810546875 C 37.82944869995117 42.23670959472656 35.262939453125 43.96699142456055 32.40486145019531 45.17584991455078 C 29.44504928588867 46.42773818969727 26.30183029174805 47.0625 23.0625 47.0625 Z M 10.06640529632568 24.51406478881836 L 19.43350982666016 33.88116836547852 L 36.05859375 17.25609397888184 L 34.07416534423828 15.27165508270264 L 20.4941291809082 28.85161018371582 L 19.43346977233887 29.91226959228516 L 18.37281036376953 28.85161018371582 L 12.0508451461792 22.52964401245117 L 10.06640529632568 24.51406478881836 Z" stroke="none"/>
    <path d="M 23.0625 0.5625 C 10.63605880737305 0.5625 0.5625 10.63605880737305 0.5625 23.0625 C 0.5625 35.48894119262695 10.63605880737305 45.5625 23.0625 45.5625 C 35.48894882202148 45.5625 45.5625 35.48894882202148 45.5625 23.0625 C 45.5625 10.63605880737305 35.48894882202148 0.5625 23.0625 0.5625 M 19.43351364135742 35.40120315551758 C 19.06201362609863 35.40120315551758 18.69046974182129 35.25945281982422 18.4069995880127 34.97597885131836 L 8.971511840820313 25.54048919677734 C 8.404651641845703 24.97364044189453 8.404651641845703 24.05448913574219 8.971511840820313 23.48764038085938 L 11.02436065673828 21.43478965759277 C 11.30783462524414 21.15135955810547 11.67935562133789 21.00964546203613 12.05086898803711 21.00964546203613 C 12.42237854003906 21.00964546203613 12.79388046264648 21.15135955810547 13.07730865478516 21.43478965759277 L 19.43346977233887 27.79095077514648 L 33.04769134521484 14.17680931091309 C 33.3311653137207 13.89334106445313 33.70269012451172 13.75160598754883 34.07420349121094 13.75160598754883 C 34.44571685791016 13.75160598754883 34.81721496582031 13.89334106445313 35.10063934326172 14.17680931091309 L 37.15348815917969 16.22966957092285 C 37.72035217285156 16.7965202331543 37.72035217285156 17.71566009521484 37.15348815917969 18.28252029418945 L 20.45993995666504 34.97607040405273 C 20.17646980285645 35.25949859619141 19.80501365661621 35.40120315551758 19.43351364135742 35.40120315551758 M 23.0625 -2.4375 C 26.50366973876953 -2.4375 29.84349060058594 -1.762870788574219 32.98918914794922 -0.4323616027832031 C 36.02606964111328 0.8521308898925781 38.75283050537109 2.690361022949219 41.0937385559082 5.031261444091797 C 43.43463897705078 7.372169494628906 45.27286911010742 10.09894180297852 46.5573616027832 13.13581848144531 C 47.88787078857422 16.28152084350586 48.5625 19.62133979797363 48.5625 23.0625 C 48.5625 26.50366973876953 47.88787078857422 29.84349060058594 46.5573616027832 32.98918914794922 C 45.27286911010742 36.02606964111328 43.43463897705078 38.75283050537109 41.0937385559082 41.0937385559082 C 38.75283050537109 43.43463897705078 36.02606964111328 45.27286911010742 32.98918914794922 46.5573616027832 C 29.84349060058594 47.88787078857422 26.50366973876953 48.5625 23.0625 48.5625 C 19.62133979797363 48.5625 16.28152084350586 47.88787078857422 13.13581848144531 46.5573616027832 C 10.09894180297852 45.27286911010742 7.372169494628906 43.43463897705078 5.031261444091797 41.0937385559082 C 2.690361022949219 38.75283050537109 0.8521308898925781 36.02606201171875 -0.4323616027832031 32.98918151855469 C -1.762870788574219 29.84347915649414 -2.4375 26.50366020202637 -2.4375 23.0625 C -2.4375 19.62133979797363 -1.762870788574219 16.28152084350586 -0.4323616027832031 13.13581848144531 C 0.8521308898925781 10.09894180297852 2.690361022949219 7.372169494628906 5.031261444091797 5.031261444091797 C 7.372169494628906 2.690361022949219 10.09894180297852 0.8521308898925781 13.13581848144531 -0.4323616027832031 C 16.28152084350586 -1.762870788574219 19.62133979797363 -2.4375 23.0625 -2.4375 Z" stroke="none" fill="#fff"/>
  </g>
</svg>
