<svg xmlns="http://www.w3.org/2000/svg" width="23.63" height="21.812" viewBox="0 0 23.63 21.812"><defs><style>.a{fill:#3a3a3a;}</style></defs><path class="a" d="M321.232,406.14a1.315,1.315,0,0,0-.966-.4h-6.589l-1.931,1.932a2.744,2.744,0,0,1-3.863,0l-1.917-1.932h-6.6A1.358,1.358,0,0,0,298,407.105v4.545a1.357,1.357,0,0,0,1.363,1.363h20.9a1.357,1.357,0,0,0,1.363-1.363v-4.545a1.314,1.314,0,0,0-.4-.965Zm-5.325,4.786a.892.892,0,1,1,.27-.639.876.876,0,0,1-.27.639Zm3.635,0a.892.892,0,1,1,.27-.639.875.875,0,0,1-.27.639Zm0,0" transform="translate(-298 -391.201)"/><path class="a" d="M325.437,354.18a.891.891,0,0,0,1.277,0l6.362-6.362a.819.819,0,0,0,.2-.994.848.848,0,0,0-.837-.554H328.8v-6.362a.921.921,0,0,0-.909-.909h-3.635a.921.921,0,0,0-.909.909v6.362h-3.636a.848.848,0,0,0-.837.554.819.819,0,0,0,.2.994Zm0,0" transform="translate(-314.261 -339)"/></svg>