<svg xmlns="http://www.w3.org/2000/svg" width="12.999" height="12.999" viewBox="0 0 12.999 12.999"><defs><style>.a{fill:#fff;}</style></defs><path class="a" d="M-326.015-116.557l-1.773-1.774a1.208,1.208,0,0,0-1.672,0l-7.941,8.02a.3.3,0,0,0-.074.127l-1.182,4.14a.3.3,0,0,0,.075.29.3.3,0,0,0,.209.087.3.3,0,0,0,.081-.011l4.136-1.183a.3.3,0,0,0,.127-.075l8.014-7.949a1.175,1.175,0,0,0,.346-.836A1.175,1.175,0,0,0-326.015-116.557Zm-10.177,6.754.509,1.018a.3.3,0,0,0,.132.132l1.019.509v.776l-1.414.4-1.427-1.426.4-1.414Zm2.087,1.213-.815-.407,5.678-5.678,1.087,1.088-5.787,5.735v-.473A.3.3,0,0,0-334.1-108.591Zm-1.233-.825-.408-.815a.3.3,0,0,0-.264-.163h-.473l5.735-5.787,1.088,1.088Zm-2.22,1.676.962.962-1.347.385Zm11.126-7.555-1.3,1.291-2.6-2.6,1.29-1.3a.6.6,0,0,1,.836,0l1.773,1.773a.587.587,0,0,1,.173.418A.586.586,0,0,1-326.432-115.3Z" transform="translate(338.668 118.667)"/></svg>