<svg xmlns="http://www.w3.org/2000/svg" width="23.334" height="23.334" viewBox="0 0 23.334 23.334"><defs><style>.a{fill:#8e2520;}</style></defs><g transform="translate(-717 -126.801)"><path class="a" d="M767.659,134.725a6.194,6.194,0,0,1,9.319-.639l.483.483,3.867-3.867-.483-.484a11.667,11.667,0,0,0-16.5,0q-.3.3-.575.618Zm0,0" transform="translate(-43.928)"/><path class="a" d="M906.066,286.292q.317-.275.618-.575a11.592,11.592,0,0,0,3.417-8.25,11.77,11.77,0,0,0-.191-2.113l-.1-.561H897.75v5.469h6.219a6.169,6.169,0,0,1-1.786,2.147Zm0,0" transform="translate(-169.767 -138.999)"/><path class="a" d="M775.129,382.32a6.207,6.207,0,0,1-7.471-1.917l-3.888,3.889q.275.317.575.618a11.674,11.674,0,0,0,14.789,1.416Zm0,0" transform="translate(-43.928 -238.192)"/><path class="a" d="M723.01,220.262a6.193,6.193,0,0,1,0-5.062L719,211.192a11.682,11.682,0,0,0,0,13.078Zm0,0" transform="translate(0 -79.263)"/></g></svg>