<svg xmlns="http://www.w3.org/2000/svg" width="12" height="20" viewBox="0 0 12 20"><defs><style>.a{fill:#828282;stroke:#828282;}.b{stroke:none;}.c{fill:none;}</style></defs><g transform="translate(-318.169 -19.25)"><g class="a" transform="translate(318.169 19.25)"><rect class="b" width="4" height="4" rx="1"/><rect class="c" x="0.5" y="0.5" width="3" height="3" rx="0.5"/></g><g class="a" transform="translate(318.169 27.25)"><rect class="b" width="4" height="4" rx="1"/><rect class="c" x="0.5" y="0.5" width="3" height="3" rx="0.5"/></g><g class="a" transform="translate(318.169 35.25)"><rect class="b" width="4" height="4" rx="1"/><rect class="c" x="0.5" y="0.5" width="3" height="3" rx="0.5"/></g><g class="a" transform="translate(326.169 19.25)"><rect class="b" width="4" height="4" rx="1"/><rect class="c" x="0.5" y="0.5" width="3" height="3" rx="0.5"/></g><g class="a" transform="translate(326.169 27.25)"><rect class="b" width="4" height="4" rx="1"/><rect class="c" x="0.5" y="0.5" width="3" height="3" rx="0.5"/></g><g class="a" transform="translate(326.169 35.25)"><rect class="b" width="4" height="4" rx="1"/><rect class="c" x="0.5" y="0.5" width="3" height="3" rx="0.5"/></g></g></svg>