<svg xmlns="http://www.w3.org/2000/svg" width="24.517" height="15.567" viewBox="0 0 24.517 15.567"><defs><style>.a{fill:#fff;}</style></defs><path class="a" d="M572.7,86.45a2.8,2.8,0,1,0-3.211,0,4.85,4.85,0,0,0-1.654.97,6.275,6.275,0,0,0-2.27-1.237,3.546,3.546,0,1,0-3.667,0,6.329,6.329,0,0,0-2.246,1.222,4.888,4.888,0,0,0-1.635-.951,2.8,2.8,0,1,0-3.211,0A4.913,4.913,0,0,0,551.5,91.1v.32a.021.021,0,0,0,.019.019h5.933a6.517,6.517,0,0,0-.053.82v.33a2.58,2.58,0,0,0,2.581,2.581H567.5a2.58,2.58,0,0,0,2.581-2.581v-.33a6.529,6.529,0,0,0-.053-.82H576a.021.021,0,0,0,.019-.019V91.1A4.932,4.932,0,0,0,572.7,86.45Zm-3.629-2.295a2.023,2.023,0,1,1,2.062,2.023h-.078A2.02,2.02,0,0,1,569.075,84.155Zm-8.121-1.009a2.77,2.77,0,1,1,2.93,2.765h-.32A2.774,2.774,0,0,1,560.955,83.146Zm-6.578,1.009a2.023,2.023,0,1,1,2.062,2.023h-.078A2.023,2.023,0,0,1,554.377,84.155Zm3.211,6.5h-5.3a4.145,4.145,0,0,1,4.085-3.7h.058a4.1,4.1,0,0,1,2.644.985A6.37,6.37,0,0,0,557.588,90.656Zm11.706,1.931a1.807,1.807,0,0,1-1.8,1.8H559.97a1.807,1.807,0,0,1-1.8-1.8v-.33a5.572,5.572,0,0,1,5.4-5.564c.053,0,.112,0,.165,0s.112,0,.165,0a5.572,5.572,0,0,1,5.4,5.564Zm.577-1.931a6.351,6.351,0,0,0-1.47-2.7,4.122,4.122,0,0,1,2.668-1h.058a4.145,4.145,0,0,1,4.085,3.7Z" transform="translate(-551.5 -79.6)"/></svg>