<svg xmlns="http://www.w3.org/2000/svg" width="71.207" height="71.207" viewBox="0 0 71.207 71.207"><defs><style>.a{fill:#8e2520;}.b{fill:#cb9118;}</style></defs><path class="a" d="M407.073,281.488a13.088,13.088,0,0,0,13.073-13.073v-24a13.073,13.073,0,1,0-26.146,0v24a13.088,13.088,0,0,0,13.073,13.073Zm0-47.36a10.3,10.3,0,0,1,10.291,10.292v11.494H396.782V244.419a10.3,10.3,0,0,1,10.292-10.292Zm-10.292,24.567h20.583v9.72a10.291,10.291,0,1,1-20.583,0Zm0,0" transform="translate(-371.469 -231.346)"/><path class="a" d="M443.125,323.178h6.768a1.391,1.391,0,1,0,0-2.781h-6.768a1.391,1.391,0,0,0,0,2.781Zm0,0" transform="translate(-410.905 -304.916)"/><path class="a" d="M443.125,293.362h6.768a1.391,1.391,0,1,0,0-2.781h-6.768a1.391,1.391,0,0,0,0,2.781Zm0,0" transform="translate(-410.905 -280.283)"/><path class="a" d="M395.776,436.573a1.39,1.39,0,0,0-1.391,1.391,16.416,16.416,0,0,1-32.831,0,1.391,1.391,0,1,0-2.782,0,19.229,19.229,0,0,0,15.1,18.754v7.031h-.109a6.97,6.97,0,0,0-6.963,6.963,1.391,1.391,0,0,0,1.391,1.391h19.563a1.391,1.391,0,0,0,1.391-1.391,6.971,6.971,0,0,0-6.962-6.963h-.109v-7.031a19.23,19.23,0,0,0,15.1-18.754,1.39,1.39,0,0,0-1.391-1.391Zm-9.653,32.748H369.817a4.188,4.188,0,0,1,3.944-2.79h8.42a4.187,4.187,0,0,1,3.943,2.79Zm-6.834-5.572h-2.638v-6.635c.437.03.876.046,1.319.046s.883-.016,1.319-.046Zm0,0" transform="translate(-342.366 -400.895)"/><path class="b" d="M297.789,306.073a1.39,1.39,0,0,0-1.391,1.391v13.576a1.391,1.391,0,0,0,2.782,0V307.464a1.39,1.39,0,0,0-1.391-1.391Zm0,0" transform="translate(-290.835 -293.082)"/><path class="b" d="M361.789,335.467a1.391,1.391,0,0,0,1.391-1.391v-6.624a1.391,1.391,0,1,0-2.781,0v6.624a1.39,1.39,0,0,0,1.391,1.391Zm0,0" transform="translate(-343.709 -309.595)"/><path class="b" d="M265.789,274.545a1.391,1.391,0,0,0-1.391,1.391v23.133a1.391,1.391,0,1,0,2.781,0V275.936a1.391,1.391,0,0,0-1.391-1.391Zm0,0" transform="translate(-264.398 -267.035)"/><path class="b" d="M329.789,298a1.391,1.391,0,0,0-1.391,1.391v18.8a1.391,1.391,0,1,0,2.782,0v-18.8A1.391,1.391,0,0,0,329.789,298Zm0,0" transform="translate(-317.272 -286.412)"/><path class="b" d="M627.391,306.073A1.39,1.39,0,0,0,626,307.464v13.576a1.391,1.391,0,1,0,2.781,0V307.464a1.39,1.39,0,0,0-1.391-1.391Zm0,0" transform="translate(-563.137 -293.082)"/><path class="b" d="M563.391,335.467a1.39,1.39,0,0,0,1.391-1.391v-6.624a1.391,1.391,0,1,0-2.781,0v6.624a1.39,1.39,0,0,0,1.391,1.391Zm0,0" transform="translate(-510.263 -309.595)"/><path class="b" d="M659.391,274.545A1.39,1.39,0,0,0,658,275.936v23.133a1.391,1.391,0,1,0,2.781,0V275.936a1.391,1.391,0,0,0-1.391-1.391Zm0,0" transform="translate(-589.574 -267.035)"/><path class="b" d="M595.391,406.135a1.39,1.39,0,1,0,.983.407,1.4,1.4,0,0,0-.983-.407Zm0,0" transform="translate(-536.7 -375.749)"/><path class="b" d="M595.391,298A1.39,1.39,0,0,0,594,299.39v12.894a1.391,1.391,0,1,0,2.781,0V299.39A1.391,1.391,0,0,0,595.391,298Zm0,0" transform="translate(-536.7 -286.412)"/><path class="b" d="M462.59,445.191a7.236,7.236,0,0,0,7.228-7.227,1.391,1.391,0,1,0-2.781,0,4.452,4.452,0,0,1-4.447,4.446,1.391,1.391,0,0,0,0,2.782Zm0,0" transform="translate(-426.986 -400.895)"/><path class="b" d="M496.164,411.729a1.392,1.392,0,1,0-.983-.408,1.4,1.4,0,0,0,.983.408Zm0,0" transform="translate(-454.723 -378.073)"/></svg>