<svg id="Group_18555" data-name="Group 18555" xmlns="http://www.w3.org/2000/svg" width="58" height="58" viewBox="0 0 58 58">
  <g id="Group_18546" data-name="Group 18546">
    <rect id="Rectangle_947" data-name="Rectangle 947" width="58" height="58" rx="12" fill="#c1c7d0"/>
    <path id="Path_12528" data-name="Path 12528" d="M359.138,51.341l-.779-3.115a4.523,4.523,0,0,0-2.965-3.217l-5.71-1.9c-1.393-.58-2.03-2.823-2.167-3.674a5.4,5.4,0,0,0,1.908-3.508,1.058,1.058,0,0,1,.157-.668.649.649,0,0,0,.445-.389,9.7,9.7,0,0,0,.7-2.836.622.622,0,0,0-.019-.157,1.669,1.669,0,0,0-.629-.945v-3.44c0-2.091-.638-2.949-1.311-3.446-.128-1.007-1.207-3.043-5.178-3.043a6.767,6.767,0,0,0-6.489,6.489v3.44a1.669,1.669,0,0,0-.629.945.622.622,0,0,0-.019.157,9.7,9.7,0,0,0,.7,2.837.552.552,0,0,0,.389.372c.073.036.209.224.209.684a5.4,5.4,0,0,0,1.918,3.514c-.136.85-.77,3.091-2.123,3.657l-5.761,1.913a4.523,4.523,0,0,0-2.964,3.215l-.779,3.115a.649.649,0,0,0,.628.809h29.849a.649.649,0,0,0,.629-.806Z" transform="translate(-314.753 -7.74)" fill="#f4f5f7"/>
  </g>
</svg>
