<svg xmlns="http://www.w3.org/2000/svg" xmlns:xlink="http://www.w3.org/1999/xlink" width="1415" height="207" viewBox="0 0 1415 207"><defs><style>.a{fill:#fff;stroke:#707070;}.b{fill:none;}.c{fill:url(#a);}.d{clip-path:url(#b);}.e{clip-path:url(#c);}.f{opacity:0.4;}.g{fill:#cb9118;}</style><linearGradient id="a" x1="0.5" x2="0.5" y2="1" gradientUnits="objectBoundingBox"><stop offset="0" stop-color="#8e2520"/><stop offset="1" stop-color="#471310"/></linearGradient><clipPath id="b"><rect class="a" width="1415" height="96" transform="translate(47 162)"/></clipPath><clipPath id="c"><rect class="b" width="1490" height="72.345"/></clipPath></defs><g transform="translate(0)"><path class="c" d="M19,0H1396a19,19,0,0,1,19,19V188a19,19,0,0,1-19,19H19A19,19,0,0,1,0,188V19A19,19,0,0,1,19,0Z" transform="translate(0)"/><g class="d" transform="translate(-47 -84)"><g class="e" transform="translate(-28 179.5)"><g transform="translate(28 -179.5)"><g class="f" transform="translate(23.279 -16.205)"><path class="g" d="M633.7,231.281l-7.07-7.192c5.246-5.152,10.6-10.4,15.94-15.662,3.065-3.023,6.046-6.134,9.178-9.084a4.569,4.569,0,0,1,2.842-1.171q44.948-.078,89.9,0a3.62,3.62,0,0,1,2.308.663c3.658,3.472,7.217,7.051,10.818,10.607l-7.377,6.974c-2.1-2.2-4.384-4.744-6.857-7.1a4.9,4.9,0,0,0-3.051-1.277q-40.768-.119-81.538-.026a5.14,5.14,0,0,0-3.241,1.4C648.216,216.643,640.983,223.965,633.7,231.281Z" transform="translate(-230.224 -0.826)"/><path class="g" d="M306.924,209.445l-6.965,7.158c-2.364-2.44-4.627-4.946-7.1-7.228a5.337,5.337,0,0,0-3.287-1.335q-40.643-.124-81.285-.029a5.185,5.185,0,0,0-3.28,1.35c-5.92,5.774-11.709,11.682-17.575,17.512-1.438,1.429-3.009,2.724-4.587,4.141l-6.915-6.945c8.452-8.3,16.961-16.676,25.533-24.994a3.82,3.82,0,0,1,2.441-.905q29-.059,58-.008c10.465,0,20.93-.06,31.394.07a6.466,6.466,0,0,1,3.906,1.634C300.557,202.931,303.7,206.231,306.924,209.445Z" transform="translate(-77.164 -0.829)"/><path class="g" d="M401.746,223.921c8.24-8.2,16.661-16.6,25.146-24.941a3.816,3.816,0,0,1,2.461-.886c27.772-.019,55.549.3,83.313-.165,6.563-.11,11.024,1.815,14.9,6.62A49.822,49.822,0,0,0,532.6,209.3l-7.584,7.021c-1.961-2.086-4.091-4.574-6.478-6.783a6.027,6.027,0,0,0-3.691-1.558c-26.841-.1-53.682-.075-80.523-.145a5.627,5.627,0,0,0-4.409,1.86c-7.086,7.178-14.261,14.27-21.454,21.439Z" transform="translate(-153.852 -0.754)"/><path class="g" d="M81.513,209.619l-6.762,6.541c-1.779-1.83-3.747-3.637-5.444-5.67a6.042,6.042,0,0,0-5.1-2.554q-40.155.11-80.311-.019a5.624,5.624,0,0,0-4.432,1.813c-7.109,7.213-14.318,14.328-21.5,21.489l-6.757-7.262c4.491-4.429,9.354-9.208,14.2-14.007,3.479-3.448,6.876-6.982,10.435-10.344a5.272,5.272,0,0,1,3.247-1.417q39.141-.106,78.282-.039c3.772,0,7.545-.031,11.316.029a3.73,3.73,0,0,1,2.308.6c2.99,2.791,5.878,5.693,8.764,8.594A24.3,24.3,0,0,1,81.513,209.619Z" transform="translate(-0.842 -0.827)"/><path class="g" d="M-26.667,274.7l7.352-7.029c2.115,2.223,4.274,4.707,6.682,6.916a6.07,6.07,0,0,0,3.7,1.576c26.775.091,53.55.054,80.325.112a5.641,5.641,0,0,0,4.435-1.826c6.388-6.512,12.872-12.93,19.293-19.409a20.869,20.869,0,0,0,1.769-2.322l7.305,7.329c-5.328,5.276-10.84,10.727-16.344,16.185-2.819,2.8-5.567,5.665-8.475,8.364a4.957,4.957,0,0,1-3.036,1.3q-44.852.1-89.7.009a4.293,4.293,0,0,1-2.716-.872C-19.655,281.691-23.1,278.212-26.667,274.7Z" transform="translate(-8.358 -19.363)"/><path class="g" d="M547.677,252.857l7.167,7.04c-2.918,2.85-5.824,5.646-8.685,8.489-5.33,5.3-10.58,10.676-16,15.882a6.265,6.265,0,0,1-3.884,1.657c-12.663.123-25.328.075-37.992.072-16.534,0-33.068-.073-49.6.046a7.552,7.552,0,0,1-6.154-2.592c-2.8-3.011-5.866-5.779-8.913-8.74l7.589-6.955c2.012,2.131,4.213,4.683,6.671,6.956a6.083,6.083,0,0,0,3.7,1.508c8.355.13,16.713.066,25.07.065,18.383,0,36.767-.026,55.15.037a5.58,5.58,0,0,0,4.418-1.828C533.3,267.255,540.466,260.108,547.677,252.857Z" transform="translate(-161.28 -19.409)"/><path class="g" d="M649.359,274.837l6.891-7.157c2.4,2.484,4.668,4.991,7.134,7.279a5.319,5.319,0,0,0,3.267,1.377q40.538.111,81.077-.013a5.889,5.889,0,0,0,3.682-1.611c7.317-7.126,14.518-14.371,21.683-21.51l7.036,6.909c-4.74,4.686-9.538,9.415-14.321,14.161-3.537,3.509-7,7.091-10.619,10.519a4.9,4.9,0,0,1-3.046,1.276q-44.85.092-89.7,0a4.23,4.23,0,0,1-2.7-.908C656.2,281.783,652.79,278.275,649.359,274.837Z" transform="translate(-237.944 -19.527)"/><path class="g" d="M322.456,252.983l7.167,6.916c-5.069,5.04-10.087,10.022-15.1,15.013-3.288,3.276-6.513,6.62-9.886,9.805a4.908,4.908,0,0,1-3.046,1.27q-44.815.092-89.631.01a4,4,0,0,1-2.538-.676c-3.659-3.46-7.2-7.046-10.77-10.585l7.22-7.155c2.093,2.245,4.318,4.518,6.4,6.913a5.006,5.006,0,0,0,4.149,1.864c26.922-.05,53.845-.018,80.766-.1a5.479,5.479,0,0,0,3.467-1.463C308,267.579,315.224,260.251,322.456,252.983Z" transform="translate(-84.881 -19.452)"/><path class="g" d="M2.7,241.326l-6.546-6.935c1.794-1.765,3.754-3.813,5.868-5.688a3.863,3.863,0,0,1,2.358-.541c8.352-.037,16.7-.077,25.055.041a5.257,5.257,0,0,1,3.235,1.445c5.683,5.531,11.205,11.23,16.919,16.729a6.571,6.571,0,0,0,3.923,1.6c3.956.209,7.929.028,11.895.086,3.8.055,7.708.563,9.9-3.838l7.021,7.517c-1.848,1.722-3.88,3.707-6.035,5.551a3.532,3.532,0,0,1-2.126.479c-8.438.029-16.878.067-25.315-.052a5.239,5.239,0,0,1-3.229-1.436c-5.685-5.529-11.213-11.219-16.92-16.726a6.052,6.052,0,0,0-3.695-1.51c-5.058-.166-10.128.059-15.186-.114-2.451-.083-4.443.341-5.922,2.407A6.32,6.32,0,0,1,2.7,241.326Z" transform="translate(-16.11 -11.01)"/><path class="g" d="M533.3,251.641c-1.817,1.72-3.6,3.517-5.514,5.156a4.1,4.1,0,0,1-2.427.942c-8.6.067-17.21.089-25.814-.023a4.909,4.909,0,0,1-2.983-1.429c-5.671-5.535-11.205-11.212-16.909-16.713a6.1,6.1,0,0,0-3.688-1.527c-4.465-.183-8.948.061-13.412-.116-3.445-.137-6.618-.011-8.6,4.153-2.176-2.285-4.129-4.112-5.756-6.194a3.046,3.046,0,0,1,.32-2.808A25.674,25.674,0,0,1,452.638,229a4.261,4.261,0,0,1,2.509-.809c8.438-.059,16.878-.093,25.314.028a5.283,5.283,0,0,1,3.223,1.506c5.737,5.595,11.326,11.34,17.082,16.915A5.728,5.728,0,0,0,504.253,248c3.959.166,7.929.075,11.9.052,3.814-.022,7.984.973,10.028-3.949Z" transform="translate(-169.55 -11.013)"/><path class="g" d="M751.024,244.621l7.023,7.115c-1.88,1.739-3.841,3.69-5.969,5.436a4.388,4.388,0,0,1-2.586.585c-8.442.033-16.886.059-25.327-.065a4.923,4.923,0,0,1-2.961-1.473c-5.613-5.491-11.083-11.127-16.74-16.571a6.543,6.543,0,0,0-3.913-1.59c-4.042-.205-8.1-.036-12.155-.087-3.71-.048-7.575-.648-9.626,3.707l-7.068-7.318c1.81-1.73,3.7-3.661,5.74-5.409a4.177,4.177,0,0,1,2.521-.766c8.359-.055,16.72-.086,25.078.029a5.267,5.267,0,0,1,3.266,1.4c5.751,5.589,11.348,11.337,17.108,16.917a5.7,5.7,0,0,0,3.484,1.452c5.059.161,10.128-.03,15.187.122,2.373.071,4.29-.412,5.732-2.382A7.7,7.7,0,0,1,751.024,244.621Z" transform="translate(-245.531 -11.013)"/><path class="g" d="M307.329,251.934c-1.656,1.556-3.627,3.5-5.72,5.3a3.487,3.487,0,0,1-2.114.518c-8.526.034-17.053.069-25.578-.04a4.893,4.893,0,0,1-3-1.389c-5.493-5.368-10.945-10.782-16.281-16.306a6.325,6.325,0,0,0-5.072-2.152c-4.637.1-9.292.265-13.912-.03-3.351-.214-5.576,1.238-7.45,3.754l-6.756-6.991c1.9-1.92,3.9-4.042,6.041-6.016a3.507,3.507,0,0,1,2.144-.412c8.358-.028,16.716-.065,25.072.037a4.871,4.871,0,0,1,3.032,1.29q8.441,8.208,16.674,16.626A5.948,5.948,0,0,0,279.3,248.1c4.048-.136,8.1-.1,12.155-.022,3.507.069,7.065.445,8.815-3.611Z" transform="translate(-92.62 -11.016)"/><path class="g" d="M120.036,249.5l-7.041,7c-4.858-4.939-9.868-9.719-14.485-14.852-2.54-2.824-5.21-4.1-8.994-3.731a82.553,82.553,0,0,1-9.37.052c-3.705-.058-7.562-.637-9.611,3.692l-7.191-7.357c1.893-1.766,3.858-3.707,5.959-5.488a3.863,3.863,0,0,1,2.325-.641q12.67-.067,25.34,0a3.891,3.891,0,0,1,2.506.793C106.33,235.729,113.107,242.56,120.036,249.5Z" transform="translate(-38.927 -11.017)"/><path class="g" d="M570.482,249.374l-7.076,7.188c-5.551-5.667-11.04-11.381-16.69-16.928a6.467,6.467,0,0,0-3.914-1.583c-4.043-.2-8.1-.065-12.156-.071-3.672-.006-7.616-.818-9.579,3.839l-7.155-7.652c1.8-1.648,3.786-3.569,5.9-5.331a3.9,3.9,0,0,1,2.324-.657q12.664-.067,25.328.007a3.906,3.906,0,0,1,2.509.8C556.842,235.726,563.633,242.541,570.482,249.374Z" transform="translate(-191.944 -11.017)"/><path class="g" d="M295.3,241.3l-6.663-6.869c1.922-1.829,3.875-3.8,5.969-5.607a3.82,3.82,0,0,1,2.321-.635c8.434-.045,16.87-.059,25.3.011a4.207,4.207,0,0,1,2.694.961c6.73,6.626,13.376,13.338,20.039,20.033a1.455,1.455,0,0,1,.2.445l-7.007,6.8c-3.468-3.559-7.015-7.245-10.614-10.877-2.49-2.511-4.66-5.893-7.694-7.155s-6.96-.376-10.5-.424c-1.012-.014-2.024,0-3.036,0-2.024,0-4.173-.422-6.037.126C298.488,238.63,296.995,240.162,295.3,241.3Z" transform="translate(-115.439 -11.019)"/><path class="g" d="M795.8,249.473l-7.235,7.013c-.9-1.016-1.886-2.241-2.987-3.352-4.514-4.557-9.016-9.129-13.643-13.569a5.7,5.7,0,0,0-3.45-1.531c-5.816-.148-11.64-.1-17.459,0a4.132,4.132,0,0,0-2.4,1.033,20.88,20.88,0,0,0-2.3,2.76l-7.263-7.6c1.854-1.7,3.842-3.617,5.961-5.384a3.869,3.869,0,0,1,2.311-.66q12.656-.068,25.313.005a3.911,3.911,0,0,1,2.512.77C782.078,235.738,788.914,242.6,795.8,249.473Z" transform="translate(-268.409 -11.016)"/><path class="g" d="M22.97,244.965l7.164,7.239c-1.936,1.86-3.818,3.775-5.835,5.537a3.747,3.747,0,0,1-2.286.718q-12.791.071-25.584,0a3.554,3.554,0,0,1-2.29-.669c-6.913-6.805-13.755-13.682-20.542-20.468l7.112-7.12c2.848,2.978,5.839,6.134,8.865,9.257,1.938,2,4.087,3.818,5.854,5.955a8.647,8.647,0,0,0,8.114,3.41,76.173,76.173,0,0,1,10.632-.028C17.7,248.967,20.96,248.805,22.97,244.965Z" transform="translate(-8.448 -11.715)"/><path class="g" d="M648.967,237.081l7.178-7.06c4.208,4.318,8.713,8.4,12.56,13.04,3.728,4.492,7.974,6.544,13.77,5.683a34.94,34.94,0,0,1,6.577-.034c3.68.159,7.363.448,9.444-3.661l6.832,7.472c-1.633,1.563-3.7,3.62-5.874,5.55a3.214,3.214,0,0,1-1.922.333c-8.443.022-16.886.038-25.329-.014a3.921,3.921,0,0,1-2.517-.749C662.756,250.858,655.906,243.994,648.967,237.081Z" transform="translate(-237.81 -11.654)"/><path class="g" d="M198.524,237.241l7.209-6.976c2.047,2.129,4.217,4.432,6.438,6.684,3.38,3.425,6.726,6.89,10.244,10.168a6.226,6.226,0,0,0,3.7,1.586c5.137.177,10.286-.025,15.425.121,2.2.062,3.942-.4,5.3-2.177a10,10,0,0,1,1.385-1.275l7,7.1c-1.85,1.71-3.767,3.591-5.817,5.312a3.868,3.868,0,0,1-2.316.667q-13.04.066-26.081,0a2.8,2.8,0,0,1-1.792-.668C212.3,250.974,205.441,244.123,198.524,237.241Z" transform="translate(-84.836 -11.737)"/><path class="g" d="M424.759,236.829l6.118-6.858c1.234,1.39,2.265,2.662,3.412,3.82,4.735,4.78,9.472,9.558,14.3,14.241a4.194,4.194,0,0,0,2.71.923q8.807-.034,17.612-.327a3.97,3.97,0,0,0,2.375-1.1,19.988,19.988,0,0,0,2.159-2.986l7.433,7.581c-1.99,1.9-3.968,3.823-5.994,5.693a2.12,2.12,0,0,1-1.333.554c-3.688-.086-7.375-.349-11.061-.345a118.247,118.247,0,0,0-11.827.434c-3.78.384-6.444-.9-8.977-3.7-5.143-5.677-10.622-11.049-15.95-16.559A12.114,12.114,0,0,1,424.759,236.829Z" transform="translate(-161.667 -11.637)"/><path class="g" d="M610.3,195.705l12.72,13-7,6.79-5.545-6.719-21.478,21.736-6.567-6.983Z" transform="translate(-215.212 0)"/><path class="g" d="M413.646,252.389l6.637,6.988L392.3,287.215l-12.814-12.821,6.778-6.91,6.024,6.581Z" transform="translate(-146.291 -19.25)"/><path class="g" d="M138.191,230.664l-6-6.344,27.909-27.7L172.558,209.2l-6.569,6.529c-1.485-1.56-3.193-3.186-4.691-4.987-1.094-1.314-1.694-1.308-2.941-.047C151.723,217.4,144.963,223.985,138.191,230.664Z" transform="translate(-62.309 -0.311)"/><path class="g" d="M154.039,274.212l6.97-6.859,5.86,7.106,21.467-21.866,6.294,6.945-27.754,27.639Z" transform="translate(-69.728 -19.32)"/><path class="g" d="M638.7,252.608l6.794,6.959-27.887,27.808L604.517,274.22l6.938-6.765,5.708,7.04Z" transform="translate(-222.715 -19.325)"/><path class="g" d="M385.19,208.711l-21.568,21.836-6.311-6.846,27.872-27.824L397.84,208.86l-6.957,6.377Z" transform="translate(-138.761 -0.058)"/><path class="g" d="M-51.267,286.976c0-3.931-.044-7.882.043-11.832a3.231,3.231,0,0,1,.93-1.948c6.664-6.823,13.371-13.605,20.016-20.346l6.5,6.787Z" transform="translate(0 -19.407)"/><path class="g" d="M807.639,224l27.628-27.664c0,4.133.019,8.31-.029,12.488a2.145,2.145,0,0,1-.639,1.3c-6.8,6.9-13.616,13.784-20.482,20.72Z" transform="translate(-291.697 -0.214)"/><path class="g" d="M379.437,237l6.357-6.482,19.581,19.928-6.522,6.365Z" transform="translate(-146.276 -11.824)"/><path class="g" d="M630.73,250.764l-6.3,6.22-19.666-20.149,6.263-6.145Z" transform="translate(-222.799 -11.881)"/><path class="g" d="M180.128,251.057l-6.007,6.109-19.332-19.487,6.376-6.176Z" transform="translate(-69.983 -12.157)"/><path class="g" d="M-45.121,260.865c-1.646-1.687-3.473-3.439-5.139-5.333a4.144,4.144,0,0,1-.959-2.437c-.1-3.874-.044-7.752-.044-11.174l12.528,12.619Z" transform="translate(0 -15.695)"/><path class="g" d="M836.87,230.368c1.665,1.776,3.528,3.7,5.3,5.7a2.986,2.986,0,0,1,.664,1.8c.058,4.016.03,8.032.03,11.795l-12.9-12.88Z" transform="translate(-299.279 -11.772)"/><path class="g" d="M-38.3,209.517l-6.971,6.019c-1.566-1.6-3.562-3.608-5.517-5.658a1.8,1.8,0,0,1-.442-1.125c-.031-4.108-.019-8.217-.019-12.249Z" transform="translate(-0.009 -0.272)"/><path class="g" d="M836.48,275.62c.182.125.316.229.46.315,7.705,4.623,5.875,12.056,5.791,18.793L829.9,282.015Z" transform="translate(-299.258 -27.14)"/></g></g><g transform="translate(623 -179.5)"><g class="f" transform="translate(23.279 -16.205)"><path class="g" d="M633.7,231.281l-7.07-7.192c5.246-5.152,10.6-10.4,15.94-15.662,3.065-3.023,6.046-6.134,9.178-9.084a4.569,4.569,0,0,1,2.842-1.171q44.948-.078,89.9,0a3.62,3.62,0,0,1,2.308.663c3.658,3.472,7.217,7.051,10.818,10.607l-7.377,6.974c-2.1-2.2-4.384-4.744-6.857-7.1a4.9,4.9,0,0,0-3.051-1.277q-40.768-.119-81.538-.026a5.14,5.14,0,0,0-3.241,1.4C648.216,216.643,640.983,223.965,633.7,231.281Z" transform="translate(-230.224 -0.826)"/><path class="g" d="M306.924,209.445l-6.965,7.158c-2.364-2.44-4.627-4.946-7.1-7.228a5.337,5.337,0,0,0-3.287-1.335q-40.643-.124-81.285-.029a5.185,5.185,0,0,0-3.28,1.35c-5.92,5.774-11.709,11.682-17.575,17.512-1.438,1.429-3.009,2.724-4.587,4.141l-6.915-6.945c8.452-8.3,16.961-16.676,25.533-24.994a3.82,3.82,0,0,1,2.441-.905q29-.059,58-.008c10.465,0,20.93-.06,31.394.07a6.466,6.466,0,0,1,3.906,1.634C300.557,202.931,303.7,206.231,306.924,209.445Z" transform="translate(-77.164 -0.829)"/><path class="g" d="M401.746,223.921c8.24-8.2,16.661-16.6,25.146-24.941a3.816,3.816,0,0,1,2.461-.886c27.772-.019,55.549.3,83.313-.165,6.563-.11,11.024,1.815,14.9,6.62A49.822,49.822,0,0,0,532.6,209.3l-7.584,7.021c-1.961-2.086-4.091-4.574-6.478-6.783a6.027,6.027,0,0,0-3.691-1.558c-26.841-.1-53.682-.075-80.523-.145a5.627,5.627,0,0,0-4.409,1.86c-7.086,7.178-14.261,14.27-21.454,21.439Z" transform="translate(-153.852 -0.754)"/><path class="g" d="M81.513,209.619l-6.762,6.541c-1.779-1.83-3.747-3.637-5.444-5.67a6.042,6.042,0,0,0-5.1-2.554q-40.155.11-80.311-.019a5.624,5.624,0,0,0-4.432,1.813c-7.109,7.213-14.318,14.328-21.5,21.489l-6.757-7.262c4.491-4.429,9.354-9.208,14.2-14.007,3.479-3.448,6.876-6.982,10.435-10.344a5.272,5.272,0,0,1,3.247-1.417q39.141-.106,78.282-.039c3.772,0,7.545-.031,11.316.029a3.73,3.73,0,0,1,2.308.6c2.99,2.791,5.878,5.693,8.764,8.594A24.3,24.3,0,0,1,81.513,209.619Z" transform="translate(-0.842 -0.827)"/><path class="g" d="M-26.667,274.7l7.352-7.029c2.115,2.223,4.274,4.707,6.682,6.916a6.07,6.07,0,0,0,3.7,1.576c26.775.091,53.55.054,80.325.112a5.641,5.641,0,0,0,4.435-1.826c6.388-6.512,12.872-12.93,19.293-19.409a20.869,20.869,0,0,0,1.769-2.322l7.305,7.329c-5.328,5.276-10.84,10.727-16.344,16.185-2.819,2.8-5.567,5.665-8.475,8.364a4.957,4.957,0,0,1-3.036,1.3q-44.852.1-89.7.009a4.293,4.293,0,0,1-2.716-.872C-19.655,281.691-23.1,278.212-26.667,274.7Z" transform="translate(-8.358 -19.363)"/><path class="g" d="M547.677,252.857l7.167,7.04c-2.918,2.85-5.824,5.646-8.685,8.489-5.33,5.3-10.58,10.676-16,15.882a6.265,6.265,0,0,1-3.884,1.657c-12.663.123-25.328.075-37.992.072-16.534,0-33.068-.073-49.6.046a7.552,7.552,0,0,1-6.154-2.592c-2.8-3.011-5.866-5.779-8.913-8.74l7.589-6.955c2.012,2.131,4.213,4.683,6.671,6.956a6.083,6.083,0,0,0,3.7,1.508c8.355.13,16.713.066,25.07.065,18.383,0,36.767-.026,55.15.037a5.58,5.58,0,0,0,4.418-1.828C533.3,267.255,540.466,260.108,547.677,252.857Z" transform="translate(-161.28 -19.409)"/><path class="g" d="M649.359,274.837l6.891-7.157c2.4,2.484,4.668,4.991,7.134,7.279a5.319,5.319,0,0,0,3.267,1.377q40.538.111,81.077-.013a5.889,5.889,0,0,0,3.682-1.611c7.317-7.126,14.518-14.371,21.683-21.51l7.036,6.909c-4.74,4.686-9.538,9.415-14.321,14.161-3.537,3.509-7,7.091-10.619,10.519a4.9,4.9,0,0,1-3.046,1.276q-44.85.092-89.7,0a4.23,4.23,0,0,1-2.7-.908C656.2,281.783,652.79,278.275,649.359,274.837Z" transform="translate(-237.944 -19.527)"/><path class="g" d="M322.456,252.983l7.167,6.916c-5.069,5.04-10.087,10.022-15.1,15.013-3.288,3.276-6.513,6.62-9.886,9.805a4.908,4.908,0,0,1-3.046,1.27q-44.815.092-89.631.01a4,4,0,0,1-2.538-.676c-3.659-3.46-7.2-7.046-10.77-10.585l7.22-7.155c2.093,2.245,4.318,4.518,6.4,6.913a5.006,5.006,0,0,0,4.149,1.864c26.922-.05,53.845-.018,80.766-.1a5.479,5.479,0,0,0,3.467-1.463C308,267.579,315.224,260.251,322.456,252.983Z" transform="translate(-84.881 -19.452)"/><path class="g" d="M2.7,241.326l-6.546-6.935c1.794-1.765,3.754-3.813,5.868-5.688a3.863,3.863,0,0,1,2.358-.541c8.352-.037,16.7-.077,25.055.041a5.257,5.257,0,0,1,3.235,1.445c5.683,5.531,11.205,11.23,16.919,16.729a6.571,6.571,0,0,0,3.923,1.6c3.956.209,7.929.028,11.895.086,3.8.055,7.708.563,9.9-3.838l7.021,7.517c-1.848,1.722-3.88,3.707-6.035,5.551a3.532,3.532,0,0,1-2.126.479c-8.438.029-16.878.067-25.315-.052a5.239,5.239,0,0,1-3.229-1.436c-5.685-5.529-11.213-11.219-16.92-16.726a6.052,6.052,0,0,0-3.695-1.51c-5.058-.166-10.128.059-15.186-.114-2.451-.083-4.443.341-5.922,2.407A6.32,6.32,0,0,1,2.7,241.326Z" transform="translate(-16.11 -11.01)"/><path class="g" d="M533.3,251.641c-1.817,1.72-3.6,3.517-5.514,5.156a4.1,4.1,0,0,1-2.427.942c-8.6.067-17.21.089-25.814-.023a4.909,4.909,0,0,1-2.983-1.429c-5.671-5.535-11.205-11.212-16.909-16.713a6.1,6.1,0,0,0-3.688-1.527c-4.465-.183-8.948.061-13.412-.116-3.445-.137-6.618-.011-8.6,4.153-2.176-2.285-4.129-4.112-5.756-6.194a3.046,3.046,0,0,1,.32-2.808A25.674,25.674,0,0,1,452.638,229a4.261,4.261,0,0,1,2.509-.809c8.438-.059,16.878-.093,25.314.028a5.283,5.283,0,0,1,3.223,1.506c5.737,5.595,11.326,11.34,17.082,16.915A5.728,5.728,0,0,0,504.253,248c3.959.166,7.929.075,11.9.052,3.814-.022,7.984.973,10.028-3.949Z" transform="translate(-169.55 -11.013)"/><path class="g" d="M751.024,244.621l7.023,7.115c-1.88,1.739-3.841,3.69-5.969,5.436a4.388,4.388,0,0,1-2.586.585c-8.442.033-16.886.059-25.327-.065a4.923,4.923,0,0,1-2.961-1.473c-5.613-5.491-11.083-11.127-16.74-16.571a6.543,6.543,0,0,0-3.913-1.59c-4.042-.205-8.1-.036-12.155-.087-3.71-.048-7.575-.648-9.626,3.707l-7.068-7.318c1.81-1.73,3.7-3.661,5.74-5.409a4.177,4.177,0,0,1,2.521-.766c8.359-.055,16.72-.086,25.078.029a5.267,5.267,0,0,1,3.266,1.4c5.751,5.589,11.348,11.337,17.108,16.917a5.7,5.7,0,0,0,3.484,1.452c5.059.161,10.128-.03,15.187.122,2.373.071,4.29-.412,5.732-2.382A7.7,7.7,0,0,1,751.024,244.621Z" transform="translate(-245.531 -11.013)"/><path class="g" d="M307.329,251.934c-1.656,1.556-3.627,3.5-5.72,5.3a3.487,3.487,0,0,1-2.114.518c-8.526.034-17.053.069-25.578-.04a4.893,4.893,0,0,1-3-1.389c-5.493-5.368-10.945-10.782-16.281-16.306a6.325,6.325,0,0,0-5.072-2.152c-4.637.1-9.292.265-13.912-.03-3.351-.214-5.576,1.238-7.45,3.754l-6.756-6.991c1.9-1.92,3.9-4.042,6.041-6.016a3.507,3.507,0,0,1,2.144-.412c8.358-.028,16.716-.065,25.072.037a4.871,4.871,0,0,1,3.032,1.29q8.441,8.208,16.674,16.626A5.948,5.948,0,0,0,279.3,248.1c4.048-.136,8.1-.1,12.155-.022,3.507.069,7.065.445,8.815-3.611Z" transform="translate(-92.62 -11.016)"/><path class="g" d="M120.036,249.5l-7.041,7c-4.858-4.939-9.868-9.719-14.485-14.852-2.54-2.824-5.21-4.1-8.994-3.731a82.553,82.553,0,0,1-9.37.052c-3.705-.058-7.562-.637-9.611,3.692l-7.191-7.357c1.893-1.766,3.858-3.707,5.959-5.488a3.863,3.863,0,0,1,2.325-.641q12.67-.067,25.34,0a3.891,3.891,0,0,1,2.506.793C106.33,235.729,113.107,242.56,120.036,249.5Z" transform="translate(-38.927 -11.017)"/><path class="g" d="M570.482,249.374l-7.076,7.188c-5.551-5.667-11.04-11.381-16.69-16.928a6.467,6.467,0,0,0-3.914-1.583c-4.043-.2-8.1-.065-12.156-.071-3.672-.006-7.616-.818-9.579,3.839l-7.155-7.652c1.8-1.648,3.786-3.569,5.9-5.331a3.9,3.9,0,0,1,2.324-.657q12.664-.067,25.328.007a3.906,3.906,0,0,1,2.509.8C556.842,235.726,563.633,242.541,570.482,249.374Z" transform="translate(-191.944 -11.017)"/><path class="g" d="M295.3,241.3l-6.663-6.869c1.922-1.829,3.875-3.8,5.969-5.607a3.82,3.82,0,0,1,2.321-.635c8.434-.045,16.87-.059,25.3.011a4.207,4.207,0,0,1,2.694.961c6.73,6.626,13.376,13.338,20.039,20.033a1.455,1.455,0,0,1,.2.445l-7.007,6.8c-3.468-3.559-7.015-7.245-10.614-10.877-2.49-2.511-4.66-5.893-7.694-7.155s-6.96-.376-10.5-.424c-1.012-.014-2.024,0-3.036,0-2.024,0-4.173-.422-6.037.126C298.488,238.63,296.995,240.162,295.3,241.3Z" transform="translate(-115.439 -11.019)"/><path class="g" d="M795.8,249.473l-7.235,7.013c-.9-1.016-1.886-2.241-2.987-3.352-4.514-4.557-9.016-9.129-13.643-13.569a5.7,5.7,0,0,0-3.45-1.531c-5.816-.148-11.64-.1-17.459,0a4.132,4.132,0,0,0-2.4,1.033,20.88,20.88,0,0,0-2.3,2.76l-7.263-7.6c1.854-1.7,3.842-3.617,5.961-5.384a3.869,3.869,0,0,1,2.311-.66q12.656-.068,25.313.005a3.911,3.911,0,0,1,2.512.77C782.078,235.738,788.914,242.6,795.8,249.473Z" transform="translate(-268.409 -11.016)"/><path class="g" d="M22.97,244.965l7.164,7.239c-1.936,1.86-3.818,3.775-5.835,5.537a3.747,3.747,0,0,1-2.286.718q-12.791.071-25.584,0a3.554,3.554,0,0,1-2.29-.669c-6.913-6.805-13.755-13.682-20.542-20.468l7.112-7.12c2.848,2.978,5.839,6.134,8.865,9.257,1.938,2,4.087,3.818,5.854,5.955a8.647,8.647,0,0,0,8.114,3.41,76.173,76.173,0,0,1,10.632-.028C17.7,248.967,20.96,248.805,22.97,244.965Z" transform="translate(-8.448 -11.715)"/><path class="g" d="M648.967,237.081l7.178-7.06c4.208,4.318,8.713,8.4,12.56,13.04,3.728,4.492,7.974,6.544,13.77,5.683a34.94,34.94,0,0,1,6.577-.034c3.68.159,7.363.448,9.444-3.661l6.832,7.472c-1.633,1.563-3.7,3.62-5.874,5.55a3.214,3.214,0,0,1-1.922.333c-8.443.022-16.886.038-25.329-.014a3.921,3.921,0,0,1-2.517-.749C662.756,250.858,655.906,243.994,648.967,237.081Z" transform="translate(-237.81 -11.654)"/><path class="g" d="M198.524,237.241l7.209-6.976c2.047,2.129,4.217,4.432,6.438,6.684,3.38,3.425,6.726,6.89,10.244,10.168a6.226,6.226,0,0,0,3.7,1.586c5.137.177,10.286-.025,15.425.121,2.2.062,3.942-.4,5.3-2.177a10,10,0,0,1,1.385-1.275l7,7.1c-1.85,1.71-3.767,3.591-5.817,5.312a3.868,3.868,0,0,1-2.316.667q-13.04.066-26.081,0a2.8,2.8,0,0,1-1.792-.668C212.3,250.974,205.441,244.123,198.524,237.241Z" transform="translate(-84.836 -11.737)"/><path class="g" d="M424.759,236.829l6.118-6.858c1.234,1.39,2.265,2.662,3.412,3.82,4.735,4.78,9.472,9.558,14.3,14.241a4.194,4.194,0,0,0,2.71.923q8.807-.034,17.612-.327a3.97,3.97,0,0,0,2.375-1.1,19.988,19.988,0,0,0,2.159-2.986l7.433,7.581c-1.99,1.9-3.968,3.823-5.994,5.693a2.12,2.12,0,0,1-1.333.554c-3.688-.086-7.375-.349-11.061-.345a118.247,118.247,0,0,0-11.827.434c-3.78.384-6.444-.9-8.977-3.7-5.143-5.677-10.622-11.049-15.95-16.559A12.114,12.114,0,0,1,424.759,236.829Z" transform="translate(-161.667 -11.637)"/><path class="g" d="M610.3,195.705l12.72,13-7,6.79-5.545-6.719-21.478,21.736-6.567-6.983Z" transform="translate(-215.212 0)"/><path class="g" d="M413.646,252.389l6.637,6.988L392.3,287.215l-12.814-12.821,6.778-6.91,6.024,6.581Z" transform="translate(-146.291 -19.25)"/><path class="g" d="M138.191,230.664l-6-6.344,27.909-27.7L172.558,209.2l-6.569,6.529c-1.485-1.56-3.193-3.186-4.691-4.987-1.094-1.314-1.694-1.308-2.941-.047C151.723,217.4,144.963,223.985,138.191,230.664Z" transform="translate(-62.309 -0.311)"/><path class="g" d="M154.039,274.212l6.97-6.859,5.86,7.106,21.467-21.866,6.294,6.945-27.754,27.639Z" transform="translate(-69.728 -19.32)"/><path class="g" d="M638.7,252.608l6.794,6.959-27.887,27.808L604.517,274.22l6.938-6.765,5.708,7.04Z" transform="translate(-222.715 -19.325)"/><path class="g" d="M385.19,208.711l-21.568,21.836-6.311-6.846,27.872-27.824L397.84,208.86l-6.957,6.377Z" transform="translate(-138.761 -0.058)"/><path class="g" d="M-51.267,286.976c0-3.931-.044-7.882.043-11.832a3.231,3.231,0,0,1,.93-1.948c6.664-6.823,13.371-13.605,20.016-20.346l6.5,6.787Z" transform="translate(0 -19.407)"/><path class="g" d="M807.639,224l27.628-27.664c0,4.133.019,8.31-.029,12.488a2.145,2.145,0,0,1-.639,1.3c-6.8,6.9-13.616,13.784-20.482,20.72Z" transform="translate(-291.697 -0.214)"/><path class="g" d="M379.437,237l6.357-6.482,19.581,19.928-6.522,6.365Z" transform="translate(-146.276 -11.824)"/><path class="g" d="M630.73,250.764l-6.3,6.22-19.666-20.149,6.263-6.145Z" transform="translate(-222.799 -11.881)"/><path class="g" d="M180.128,251.057l-6.007,6.109-19.332-19.487,6.376-6.176Z" transform="translate(-69.983 -12.157)"/><path class="g" d="M-45.121,260.865c-1.646-1.687-3.473-3.439-5.139-5.333a4.144,4.144,0,0,1-.959-2.437c-.1-3.874-.044-7.752-.044-11.174l12.528,12.619Z" transform="translate(0 -15.695)"/><path class="g" d="M836.87,230.368c1.665,1.776,3.528,3.7,5.3,5.7a2.986,2.986,0,0,1,.664,1.8c.058,4.016.03,8.032.03,11.795l-12.9-12.88Z" transform="translate(-299.279 -11.772)"/><path class="g" d="M-38.3,209.517l-6.971,6.019c-1.566-1.6-3.562-3.608-5.517-5.658a1.8,1.8,0,0,1-.442-1.125c-.031-4.108-.019-8.217-.019-12.249Z" transform="translate(-0.009 -0.272)"/><path class="g" d="M836.48,275.62c.182.125.316.229.46.315,7.705,4.623,5.875,12.056,5.791,18.793L829.9,282.015Z" transform="translate(-299.258 -27.14)"/></g></g><g transform="translate(1218 -179.5)"><g class="f" transform="translate(23.279 -16.205)"><path class="g" d="M633.7,231.281l-7.07-7.192c5.246-5.152,10.6-10.4,15.94-15.662,3.065-3.023,6.046-6.134,9.178-9.084a4.569,4.569,0,0,1,2.842-1.171q44.948-.078,89.9,0a3.62,3.62,0,0,1,2.308.663c3.658,3.472,7.217,7.051,10.818,10.607l-7.377,6.974c-2.1-2.2-4.384-4.744-6.857-7.1a4.9,4.9,0,0,0-3.051-1.277q-40.768-.119-81.538-.026a5.14,5.14,0,0,0-3.241,1.4C648.216,216.643,640.983,223.965,633.7,231.281Z" transform="translate(-230.224 -0.826)"/><path class="g" d="M306.924,209.445l-6.965,7.158c-2.364-2.44-4.627-4.946-7.1-7.228a5.337,5.337,0,0,0-3.287-1.335q-40.643-.124-81.285-.029a5.185,5.185,0,0,0-3.28,1.35c-5.92,5.774-11.709,11.682-17.575,17.512-1.438,1.429-3.009,2.724-4.587,4.141l-6.915-6.945c8.452-8.3,16.961-16.676,25.533-24.994a3.82,3.82,0,0,1,2.441-.905q29-.059,58-.008c10.465,0,20.93-.06,31.394.07a6.466,6.466,0,0,1,3.906,1.634C300.557,202.931,303.7,206.231,306.924,209.445Z" transform="translate(-77.164 -0.829)"/><path class="g" d="M401.746,223.921c8.24-8.2,16.661-16.6,25.146-24.941a3.816,3.816,0,0,1,2.461-.886c27.772-.019,55.549.3,83.313-.165,6.563-.11,11.024,1.815,14.9,6.62A49.822,49.822,0,0,0,532.6,209.3l-7.584,7.021c-1.961-2.086-4.091-4.574-6.478-6.783a6.027,6.027,0,0,0-3.691-1.558c-26.841-.1-53.682-.075-80.523-.145a5.627,5.627,0,0,0-4.409,1.86c-7.086,7.178-14.261,14.27-21.454,21.439Z" transform="translate(-153.852 -0.754)"/><path class="g" d="M81.513,209.619l-6.762,6.541c-1.779-1.83-3.747-3.637-5.444-5.67a6.042,6.042,0,0,0-5.1-2.554q-40.155.11-80.311-.019a5.624,5.624,0,0,0-4.432,1.813c-7.109,7.213-14.318,14.328-21.5,21.489l-6.757-7.262c4.491-4.429,9.354-9.208,14.2-14.007,3.479-3.448,6.876-6.982,10.435-10.344a5.272,5.272,0,0,1,3.247-1.417q39.141-.106,78.282-.039c3.772,0,7.545-.031,11.316.029a3.73,3.73,0,0,1,2.308.6c2.99,2.791,5.878,5.693,8.764,8.594A24.3,24.3,0,0,1,81.513,209.619Z" transform="translate(-0.842 -0.827)"/><path class="g" d="M-26.667,274.7l7.352-7.029c2.115,2.223,4.274,4.707,6.682,6.916a6.07,6.07,0,0,0,3.7,1.576c26.775.091,53.55.054,80.325.112a5.641,5.641,0,0,0,4.435-1.826c6.388-6.512,12.872-12.93,19.293-19.409a20.869,20.869,0,0,0,1.769-2.322l7.305,7.329c-5.328,5.276-10.84,10.727-16.344,16.185-2.819,2.8-5.567,5.665-8.475,8.364a4.957,4.957,0,0,1-3.036,1.3q-44.852.1-89.7.009a4.293,4.293,0,0,1-2.716-.872C-19.655,281.691-23.1,278.212-26.667,274.7Z" transform="translate(-8.358 -19.363)"/><path class="g" d="M547.677,252.857l7.167,7.04c-2.918,2.85-5.824,5.646-8.685,8.489-5.33,5.3-10.58,10.676-16,15.882a6.265,6.265,0,0,1-3.884,1.657c-12.663.123-25.328.075-37.992.072-16.534,0-33.068-.073-49.6.046a7.552,7.552,0,0,1-6.154-2.592c-2.8-3.011-5.866-5.779-8.913-8.74l7.589-6.955c2.012,2.131,4.213,4.683,6.671,6.956a6.083,6.083,0,0,0,3.7,1.508c8.355.13,16.713.066,25.07.065,18.383,0,36.767-.026,55.15.037a5.58,5.58,0,0,0,4.418-1.828C533.3,267.255,540.466,260.108,547.677,252.857Z" transform="translate(-161.28 -19.409)"/><path class="g" d="M649.359,274.837l6.891-7.157c2.4,2.484,4.668,4.991,7.134,7.279a5.319,5.319,0,0,0,3.267,1.377q40.538.111,81.077-.013a5.889,5.889,0,0,0,3.682-1.611c7.317-7.126,14.518-14.371,21.683-21.51l7.036,6.909c-4.74,4.686-9.538,9.415-14.321,14.161-3.537,3.509-7,7.091-10.619,10.519a4.9,4.9,0,0,1-3.046,1.276q-44.85.092-89.7,0a4.23,4.23,0,0,1-2.7-.908C656.2,281.783,652.79,278.275,649.359,274.837Z" transform="translate(-237.944 -19.527)"/><path class="g" d="M322.456,252.983l7.167,6.916c-5.069,5.04-10.087,10.022-15.1,15.013-3.288,3.276-6.513,6.62-9.886,9.805a4.908,4.908,0,0,1-3.046,1.27q-44.815.092-89.631.01a4,4,0,0,1-2.538-.676c-3.659-3.46-7.2-7.046-10.77-10.585l7.22-7.155c2.093,2.245,4.318,4.518,6.4,6.913a5.006,5.006,0,0,0,4.149,1.864c26.922-.05,53.845-.018,80.766-.1a5.479,5.479,0,0,0,3.467-1.463C308,267.579,315.224,260.251,322.456,252.983Z" transform="translate(-84.881 -19.452)"/><path class="g" d="M2.7,241.326l-6.546-6.935c1.794-1.765,3.754-3.813,5.868-5.688a3.863,3.863,0,0,1,2.358-.541c8.352-.037,16.7-.077,25.055.041a5.257,5.257,0,0,1,3.235,1.445c5.683,5.531,11.205,11.23,16.919,16.729a6.571,6.571,0,0,0,3.923,1.6c3.956.209,7.929.028,11.895.086,3.8.055,7.708.563,9.9-3.838l7.021,7.517c-1.848,1.722-3.88,3.707-6.035,5.551a3.532,3.532,0,0,1-2.126.479c-8.438.029-16.878.067-25.315-.052a5.239,5.239,0,0,1-3.229-1.436c-5.685-5.529-11.213-11.219-16.92-16.726a6.052,6.052,0,0,0-3.695-1.51c-5.058-.166-10.128.059-15.186-.114-2.451-.083-4.443.341-5.922,2.407A6.32,6.32,0,0,1,2.7,241.326Z" transform="translate(-16.11 -11.01)"/><path class="g" d="M533.3,251.641c-1.817,1.72-3.6,3.517-5.514,5.156a4.1,4.1,0,0,1-2.427.942c-8.6.067-17.21.089-25.814-.023a4.909,4.909,0,0,1-2.983-1.429c-5.671-5.535-11.205-11.212-16.909-16.713a6.1,6.1,0,0,0-3.688-1.527c-4.465-.183-8.948.061-13.412-.116-3.445-.137-6.618-.011-8.6,4.153-2.176-2.285-4.129-4.112-5.756-6.194a3.046,3.046,0,0,1,.32-2.808A25.674,25.674,0,0,1,452.638,229a4.261,4.261,0,0,1,2.509-.809c8.438-.059,16.878-.093,25.314.028a5.283,5.283,0,0,1,3.223,1.506c5.737,5.595,11.326,11.34,17.082,16.915A5.728,5.728,0,0,0,504.253,248c3.959.166,7.929.075,11.9.052,3.814-.022,7.984.973,10.028-3.949Z" transform="translate(-169.55 -11.013)"/><path class="g" d="M751.024,244.621l7.023,7.115c-1.88,1.739-3.841,3.69-5.969,5.436a4.388,4.388,0,0,1-2.586.585c-8.442.033-16.886.059-25.327-.065a4.923,4.923,0,0,1-2.961-1.473c-5.613-5.491-11.083-11.127-16.74-16.571a6.543,6.543,0,0,0-3.913-1.59c-4.042-.205-8.1-.036-12.155-.087-3.71-.048-7.575-.648-9.626,3.707l-7.068-7.318c1.81-1.73,3.7-3.661,5.74-5.409a4.177,4.177,0,0,1,2.521-.766c8.359-.055,16.72-.086,25.078.029a5.267,5.267,0,0,1,3.266,1.4c5.751,5.589,11.348,11.337,17.108,16.917a5.7,5.7,0,0,0,3.484,1.452c5.059.161,10.128-.03,15.187.122,2.373.071,4.29-.412,5.732-2.382A7.7,7.7,0,0,1,751.024,244.621Z" transform="translate(-245.531 -11.013)"/><path class="g" d="M307.329,251.934c-1.656,1.556-3.627,3.5-5.72,5.3a3.487,3.487,0,0,1-2.114.518c-8.526.034-17.053.069-25.578-.04a4.893,4.893,0,0,1-3-1.389c-5.493-5.368-10.945-10.782-16.281-16.306a6.325,6.325,0,0,0-5.072-2.152c-4.637.1-9.292.265-13.912-.03-3.351-.214-5.576,1.238-7.45,3.754l-6.756-6.991c1.9-1.92,3.9-4.042,6.041-6.016a3.507,3.507,0,0,1,2.144-.412c8.358-.028,16.716-.065,25.072.037a4.871,4.871,0,0,1,3.032,1.29q8.441,8.208,16.674,16.626A5.948,5.948,0,0,0,279.3,248.1c4.048-.136,8.1-.1,12.155-.022,3.507.069,7.065.445,8.815-3.611Z" transform="translate(-92.62 -11.016)"/><path class="g" d="M120.036,249.5l-7.041,7c-4.858-4.939-9.868-9.719-14.485-14.852-2.54-2.824-5.21-4.1-8.994-3.731a82.553,82.553,0,0,1-9.37.052c-3.705-.058-7.562-.637-9.611,3.692l-7.191-7.357c1.893-1.766,3.858-3.707,5.959-5.488a3.863,3.863,0,0,1,2.325-.641q12.67-.067,25.34,0a3.891,3.891,0,0,1,2.506.793C106.33,235.729,113.107,242.56,120.036,249.5Z" transform="translate(-38.927 -11.017)"/><path class="g" d="M570.482,249.374l-7.076,7.188c-5.551-5.667-11.04-11.381-16.69-16.928a6.467,6.467,0,0,0-3.914-1.583c-4.043-.2-8.1-.065-12.156-.071-3.672-.006-7.616-.818-9.579,3.839l-7.155-7.652c1.8-1.648,3.786-3.569,5.9-5.331a3.9,3.9,0,0,1,2.324-.657q12.664-.067,25.328.007a3.906,3.906,0,0,1,2.509.8C556.842,235.726,563.633,242.541,570.482,249.374Z" transform="translate(-191.944 -11.017)"/><path class="g" d="M295.3,241.3l-6.663-6.869c1.922-1.829,3.875-3.8,5.969-5.607a3.82,3.82,0,0,1,2.321-.635c8.434-.045,16.87-.059,25.3.011a4.207,4.207,0,0,1,2.694.961c6.73,6.626,13.376,13.338,20.039,20.033a1.455,1.455,0,0,1,.2.445l-7.007,6.8c-3.468-3.559-7.015-7.245-10.614-10.877-2.49-2.511-4.66-5.893-7.694-7.155s-6.96-.376-10.5-.424c-1.012-.014-2.024,0-3.036,0-2.024,0-4.173-.422-6.037.126C298.488,238.63,296.995,240.162,295.3,241.3Z" transform="translate(-115.439 -11.019)"/><path class="g" d="M795.8,249.473l-7.235,7.013c-.9-1.016-1.886-2.241-2.987-3.352-4.514-4.557-9.016-9.129-13.643-13.569a5.7,5.7,0,0,0-3.45-1.531c-5.816-.148-11.64-.1-17.459,0a4.132,4.132,0,0,0-2.4,1.033,20.88,20.88,0,0,0-2.3,2.76l-7.263-7.6c1.854-1.7,3.842-3.617,5.961-5.384a3.869,3.869,0,0,1,2.311-.66q12.656-.068,25.313.005a3.911,3.911,0,0,1,2.512.77C782.078,235.738,788.914,242.6,795.8,249.473Z" transform="translate(-268.409 -11.016)"/><path class="g" d="M22.97,244.965l7.164,7.239c-1.936,1.86-3.818,3.775-5.835,5.537a3.747,3.747,0,0,1-2.286.718q-12.791.071-25.584,0a3.554,3.554,0,0,1-2.29-.669c-6.913-6.805-13.755-13.682-20.542-20.468l7.112-7.12c2.848,2.978,5.839,6.134,8.865,9.257,1.938,2,4.087,3.818,5.854,5.955a8.647,8.647,0,0,0,8.114,3.41,76.173,76.173,0,0,1,10.632-.028C17.7,248.967,20.96,248.805,22.97,244.965Z" transform="translate(-8.448 -11.715)"/><path class="g" d="M648.967,237.081l7.178-7.06c4.208,4.318,8.713,8.4,12.56,13.04,3.728,4.492,7.974,6.544,13.77,5.683a34.94,34.94,0,0,1,6.577-.034c3.68.159,7.363.448,9.444-3.661l6.832,7.472c-1.633,1.563-3.7,3.62-5.874,5.55a3.214,3.214,0,0,1-1.922.333c-8.443.022-16.886.038-25.329-.014a3.921,3.921,0,0,1-2.517-.749C662.756,250.858,655.906,243.994,648.967,237.081Z" transform="translate(-237.81 -11.654)"/><path class="g" d="M198.524,237.241l7.209-6.976c2.047,2.129,4.217,4.432,6.438,6.684,3.38,3.425,6.726,6.89,10.244,10.168a6.226,6.226,0,0,0,3.7,1.586c5.137.177,10.286-.025,15.425.121,2.2.062,3.942-.4,5.3-2.177a10,10,0,0,1,1.385-1.275l7,7.1c-1.85,1.71-3.767,3.591-5.817,5.312a3.868,3.868,0,0,1-2.316.667q-13.04.066-26.081,0a2.8,2.8,0,0,1-1.792-.668C212.3,250.974,205.441,244.123,198.524,237.241Z" transform="translate(-84.836 -11.737)"/><path class="g" d="M424.759,236.829l6.118-6.858c1.234,1.39,2.265,2.662,3.412,3.82,4.735,4.78,9.472,9.558,14.3,14.241a4.194,4.194,0,0,0,2.71.923q8.807-.034,17.612-.327a3.97,3.97,0,0,0,2.375-1.1,19.988,19.988,0,0,0,2.159-2.986l7.433,7.581c-1.99,1.9-3.968,3.823-5.994,5.693a2.12,2.12,0,0,1-1.333.554c-3.688-.086-7.375-.349-11.061-.345a118.247,118.247,0,0,0-11.827.434c-3.78.384-6.444-.9-8.977-3.7-5.143-5.677-10.622-11.049-15.95-16.559A12.114,12.114,0,0,1,424.759,236.829Z" transform="translate(-161.667 -11.637)"/><path class="g" d="M610.3,195.705l12.72,13-7,6.79-5.545-6.719-21.478,21.736-6.567-6.983Z" transform="translate(-215.212 0)"/><path class="g" d="M413.646,252.389l6.637,6.988L392.3,287.215l-12.814-12.821,6.778-6.91,6.024,6.581Z" transform="translate(-146.291 -19.25)"/><path class="g" d="M138.191,230.664l-6-6.344,27.909-27.7L172.558,209.2l-6.569,6.529c-1.485-1.56-3.193-3.186-4.691-4.987-1.094-1.314-1.694-1.308-2.941-.047C151.723,217.4,144.963,223.985,138.191,230.664Z" transform="translate(-62.309 -0.311)"/><path class="g" d="M154.039,274.212l6.97-6.859,5.86,7.106,21.467-21.866,6.294,6.945-27.754,27.639Z" transform="translate(-69.728 -19.32)"/><path class="g" d="M638.7,252.608l6.794,6.959-27.887,27.808L604.517,274.22l6.938-6.765,5.708,7.04Z" transform="translate(-222.715 -19.325)"/><path class="g" d="M385.19,208.711l-21.568,21.836-6.311-6.846,27.872-27.824L397.84,208.86l-6.957,6.377Z" transform="translate(-138.761 -0.058)"/><path class="g" d="M-51.267,286.976c0-3.931-.044-7.882.043-11.832a3.231,3.231,0,0,1,.93-1.948c6.664-6.823,13.371-13.605,20.016-20.346l6.5,6.787Z" transform="translate(0 -19.407)"/><path class="g" d="M807.639,224l27.628-27.664c0,4.133.019,8.31-.029,12.488a2.145,2.145,0,0,1-.639,1.3c-6.8,6.9-13.616,13.784-20.482,20.72Z" transform="translate(-291.697 -0.214)"/><path class="g" d="M379.437,237l6.357-6.482,19.581,19.928-6.522,6.365Z" transform="translate(-146.276 -11.824)"/><path class="g" d="M630.73,250.764l-6.3,6.22-19.666-20.149,6.263-6.145Z" transform="translate(-222.799 -11.881)"/><path class="g" d="M180.128,251.057l-6.007,6.109-19.332-19.487,6.376-6.176Z" transform="translate(-69.983 -12.157)"/><path class="g" d="M-45.121,260.865c-1.646-1.687-3.473-3.439-5.139-5.333a4.144,4.144,0,0,1-.959-2.437c-.1-3.874-.044-7.752-.044-11.174l12.528,12.619Z" transform="translate(0 -15.695)"/><path class="g" d="M836.87,230.368c1.665,1.776,3.528,3.7,5.3,5.7a2.986,2.986,0,0,1,.664,1.8c.058,4.016.03,8.032.03,11.795l-12.9-12.88Z" transform="translate(-299.279 -11.772)"/><path class="g" d="M-38.3,209.517l-6.971,6.019c-1.566-1.6-3.562-3.608-5.517-5.658a1.8,1.8,0,0,1-.442-1.125c-.031-4.108-.019-8.217-.019-12.249Z" transform="translate(-0.009 -0.272)"/><path class="g" d="M836.48,275.62c.182.125.316.229.46.315,7.705,4.623,5.875,12.056,5.791,18.793L829.9,282.015Z" transform="translate(-299.258 -27.14)"/></g></g></g></g></g></svg>