<svg xmlns="http://www.w3.org/2000/svg" width="11.187" height="13.768" viewBox="0 0 11.187 13.768"><defs><style>.a{fill:#fff;}</style></defs><g transform="translate(0 0)"><path class="a" d="M502.111,321.721h-2.366v-.43A1.292,1.292,0,0,0,498.454,320h-1.721a1.292,1.292,0,0,0-1.291,1.291v.43h-2.366A1.077,1.077,0,0,0,492,322.8V324.3a.43.43,0,0,0,.43.43h.235l.372,7.806a1.289,1.289,0,0,0,1.289,1.229h6.534a1.289,1.289,0,0,0,1.289-1.229l.372-7.806h.235a.43.43,0,0,0,.43-.43V322.8a1.077,1.077,0,0,0-1.076-1.076Zm-5.809-.43a.431.431,0,0,1,.43-.43h1.721a.431.431,0,0,1,.43.43v.43H496.3Zm-3.442,1.506a.215.215,0,0,1,.215-.215h9.036a.215.215,0,0,1,.215.215v1.076h-9.466Zm8.43,9.7a.43.43,0,0,1-.43.41h-6.534a.43.43,0,0,1-.43-.41l-.37-7.765h8.133Zm0,0" transform="translate(-492 -320)"/><path class="a" d="M636.509,483.642a.509.509,0,0,0,.509-.509V476.51a.509.509,0,0,0-1.019,0v6.623a.509.509,0,0,0,.51.509Zm0,0" transform="translate(-630.916 -471.911)"/><path class="a" d="M696.509,483.642a.509.509,0,0,0,.51-.509V476.51a.509.509,0,1,0-1.019,0v6.623a.509.509,0,0,0,.509.509Zm0,0" transform="translate(-688.798 -471.911)"/><path class="a" d="M576.509,483.642a.509.509,0,0,0,.509-.509V476.51a.509.509,0,1,0-1.019,0v6.623a.509.509,0,0,0,.509.509Zm0,0" transform="translate(-573.034 -471.911)"/></g></svg>