<svg xmlns="http://www.w3.org/2000/svg" width="24.955" height="20.281" viewBox="0 0 24.955 20.281"><defs><style>.a{fill:#8e2520;}</style></defs><g transform="translate(0 0)"><path class="a" d="M528.724,818.9a9.616,9.616,0,0,1-2.934.8,5.062,5.062,0,0,0,2.253-2.828,10.187,10.187,0,0,1-3.259,1.24,5.12,5.12,0,0,0-8.855,3.509,5.442,5.442,0,0,0,.128,1.165,14.547,14.547,0,0,1-10.541-5.339,5.084,5.084,0,0,0,1.58,6.806,4.716,4.716,0,0,1-2.328-.635v.076a5.125,5.125,0,0,0,4.113,5.021,5.676,5.676,0,0,1-1.354.182,6.636,6.636,0,0,1-.96-.091,5.122,5.122,0,0,0,4.78,3.553,10.213,10.213,0,0,1-6.352,2.193,8.186,8.186,0,0,1-1.225-.074,14.567,14.567,0,0,0,22.421-12.265c0-.212,0-.438-.008-.651A10.778,10.778,0,0,0,528.724,818.9Z" transform="translate(-503.769 -816.492)"/></g></svg>