<svg xmlns="http://www.w3.org/2000/svg" width="12" height="20" viewBox="0 0 12 20">
  <g id="Group_17618" data-name="Group 17618" transform="translate(-630 -43)">
    <g id="Group_18069" data-name="Group 18069" transform="translate(311.831 23.75)">
      <g id="Rectangle_913" data-name="Rectangle 913" transform="translate(318.169 19.25)" fill="#8d8d8d" stroke="#8d8d8d" stroke-width="1">
        <rect width="4" height="4" rx="1" stroke="none"/>
        <rect x="0.5" y="0.5" width="3" height="3" rx="0.5" fill="none"/>
      </g>
      <g id="Rectangle_916" data-name="Rectangle 916" transform="translate(318.169 27.25)" fill="#8d8d8d" stroke="#8d8d8d" stroke-width="1">
        <rect width="4" height="4" rx="1" stroke="none"/>
        <rect x="0.5" y="0.5" width="3" height="3" rx="0.5" fill="none"/>
      </g>
      <g id="Rectangle_918" data-name="Rectangle 918" transform="translate(318.169 35.25)" fill="#8d8d8d" stroke="#8d8d8d" stroke-width="1">
        <rect width="4" height="4" rx="1" stroke="none"/>
        <rect x="0.5" y="0.5" width="3" height="3" rx="0.5" fill="none"/>
      </g>
      <g id="Rectangle_914" data-name="Rectangle 914" transform="translate(326.169 19.25)" fill="#8d8d8d" stroke="#8d8d8d" stroke-width="1">
        <rect width="4" height="4" rx="1" stroke="none"/>
        <rect x="0.5" y="0.5" width="3" height="3" rx="0.5" fill="none"/>
      </g>
      <g id="Rectangle_915" data-name="Rectangle 915" transform="translate(326.169 27.25)" fill="#8d8d8d" stroke="#8d8d8d" stroke-width="1">
        <rect width="4" height="4" rx="1" stroke="none"/>
        <rect x="0.5" y="0.5" width="3" height="3" rx="0.5" fill="none"/>
      </g>
      <g id="Rectangle_917" data-name="Rectangle 917" transform="translate(326.169 35.25)" fill="#8d8d8d" stroke="#8d8d8d" stroke-width="1">
        <rect width="4" height="4" rx="1" stroke="none"/>
        <rect x="0.5" y="0.5" width="3" height="3" rx="0.5" fill="none"/>
      </g>
    </g>
  </g>
</svg>
