<svg xmlns="http://www.w3.org/2000/svg" width="8.17" height="9.527" viewBox="0 0 8.17 9.527"><defs><style>.a{fill:#8e2520;}</style></defs><path class="a" d="M37.805,71.926a.705.705,0,0,0-.1-.9l-1.881-1.888a1.363,1.363,0,0,0-.341-.249l-.2-.092h6.694a.706.706,0,0,0,.719-.573.682.682,0,0,0-.682-.791H35.29l.147-.068a1.363,1.363,0,0,0,.385-.273L37.707,65.2a.706.706,0,0,0,.1-.9.682.682,0,0,0-1.022-.089l-3.408,3.408a.682.682,0,0,0,0,.964h0l3.408,3.408a.682.682,0,0,0,1.022-.068Z" transform="translate(-64.023 42.702) rotate(-90)"/></svg>