<svg xmlns="http://www.w3.org/2000/svg" width="18.542" height="18.578" viewBox="0 0 18.542 18.578"><defs><style>.a{fill:#fff;}</style></defs><path class="a" d="M234.559,108.909v2.8a1.865,1.865,0,0,1-1.857,1.872c-.059,0-.118,0-.175-.007a18.446,18.446,0,0,1-8.045-2.862,18.174,18.174,0,0,1-5.594-5.594,18.461,18.461,0,0,1-2.862-8.083,1.865,1.865,0,0,1,1.69-2.025c.055,0,.11-.007.166-.007h2.8a1.865,1.865,0,0,1,1.865,1.6,11.944,11.944,0,0,0,.652,2.62,1.865,1.865,0,0,1-.419,1.967l-1.184,1.184a14.914,14.914,0,0,0,5.593,5.593l1.184-1.184a1.863,1.863,0,0,1,1.967-.419,11.987,11.987,0,0,0,2.619.652A1.865,1.865,0,0,1,234.559,108.909Z" transform="translate(-216.018 -95)"/></svg>