<svg xmlns="http://www.w3.org/2000/svg" width="19.731" height="14.093" viewBox="0 0 19.731 14.093"><defs><style>.a{fill:#cb9118;}</style></defs><path class="a" d="M19.3,73.5a.767.767,0,0,0-.275-.055.655.655,0,0,0-.5.209l-4.437,4.426V76.261a3.177,3.177,0,0,0-3.171-3.171H3.171a3.055,3.055,0,0,0-2.241.93A3.055,3.055,0,0,0,0,76.261v7.751a3.054,3.054,0,0,0,.93,2.241,3.055,3.055,0,0,0,2.241.93h7.751a3.177,3.177,0,0,0,3.171-3.171V82.185l4.437,4.437a.655.655,0,0,0,.5.209.768.768,0,0,0,.275-.055.658.658,0,0,0,.429-.65V74.147A.658.658,0,0,0,19.3,73.5Z" transform="translate(0 -73.09)"/></svg>