<svg xmlns="http://www.w3.org/2000/svg" width="12.166" height="11.937" viewBox="0 0 12.166 11.937"><defs><style>.a{fill:#fff;stroke:#fff;}</style></defs><g transform="translate(0.5 0.554)"><g transform="translate(0 0)"><path class="a" d="M6.2,5.442,11.038.727a.418.418,0,0,0,0-.6.444.444,0,0,0-.617,0L5.583,4.841.744.125a.444.444,0,0,0-.617,0,.418.418,0,0,0,0,.6L4.966,5.442.128,10.158a.418.418,0,0,0,0,.6.444.444,0,0,0,.617,0L5.583,6.044l4.838,4.716a.444.444,0,0,0,.617,0,.418.418,0,0,0,0-.6Z" transform="translate(0 -0.001)"/></g></g></svg>