<svg xmlns="http://www.w3.org/2000/svg" xmlns:xlink="http://www.w3.org/1999/xlink" width="34.875" height="31.5" viewBox="0 0 34.875 31.5">
  <defs>
    <filter id="Path_12597" x="0" y="0" width="34.875" height="31.5" filterUnits="userSpaceOnUse">
      <feOffset dy="3" input="SourceAlpha"/>
      <feGaussianBlur stdDeviation="3" result="blur"/>
      <feFlood flood-opacity="0.161"/>
      <feComposite operator="in" in2="blur"/>
      <feComposite in="SourceGraphic"/>
    </filter>
    <filter id="Path_12598" x="5.906" y="4.788" width="23.063" height="23.044" filterUnits="userSpaceOnUse">
      <feOffset dy="3" input="SourceAlpha"/>
      <feGaussianBlur stdDeviation="3" result="blur-2"/>
      <feFlood flood-opacity="0.161"/>
      <feComposite operator="in" in2="blur-2"/>
      <feComposite in="SourceGraphic"/>
    </filter>
  </defs>
  <g id="Group_18623" data-name="Group 18623" transform="translate(-12.48 -60.584)">
    <g transform="matrix(1, 0, 0, 1, 12.48, 60.58)" filter="url(#Path_12597)">
      <path id="Path_12597-2" data-name="Path 12597" d="M36.338,68.932H34.577L33.6,67.464a2.02,2.02,0,0,0-1.669-.88H27.9a2.02,2.02,0,0,0-1.669.88l-.972,1.467H23.5A2.012,2.012,0,0,0,21.48,70.95v7.117A2.012,2.012,0,0,0,23.5,80.084h12.84a2.012,2.012,0,0,0,2.018-2.018V70.95A2.012,2.012,0,0,0,36.338,68.932Zm-6.42,9.5A4.54,4.54,0,1,1,34.467,73.9,4.548,4.548,0,0,1,29.918,78.434Zm6.163-6.658h-.807a.6.6,0,0,1,0-1.192h.734a.6.6,0,0,1,.624.569A.581.581,0,0,1,36.081,71.775Z" transform="translate(-12.48 -60.58)" fill="#fff"/>
    </g>
    <g transform="matrix(1, 0, 0, 1, 12.48, 60.58)" filter="url(#Path_12598)">
      <path id="Path_12598-2" data-name="Path 12598" d="M188.875,200.216a2.522,2.522,0,1,0,2.531,2.513A2.536,2.536,0,0,0,188.875,200.216Z" transform="translate(-171.44 -189.43)" fill="#fff"/>
    </g>
  </g>
</svg>
