<svg xmlns="http://www.w3.org/2000/svg" width="47.131" height="62.825" viewBox="0 0 47.131 62.825"><g transform="translate(0)"><path d="M106.529,45.9l-1.4-.493c0-.059,0-.118,0-.177a4.884,4.884,0,0,0-1.162-3.271,34.96,34.96,0,0,0,1.775-14.538l-.612-10.851a17.653,17.653,0,0,0-35.242.041l-.887,14.775a18.345,18.345,0,0,0,2.342,10.2,5.079,5.079,0,0,0-1.5,3.64c0,.064,0,.129,0,.193L68.5,45.9a6.822,6.822,0,0,0-4.551,6.433v9.528a.946.946,0,0,0,.892.958.92.92,0,0,0,.949-.92V52.338a4.981,4.981,0,0,1,3.323-4.7l.939-.331a11.3,11.3,0,0,0,1.175,3.231.921.921,0,0,0,1.364.294.938.938,0,0,0,.24-1.2,9.187,9.187,0,0,1-1.14-4.4,3.2,3.2,0,0,1,.687-2.024A18.926,18.926,0,0,0,74.011,45.2a18.348,18.348,0,0,0,13.642,5.822A12.7,12.7,0,0,0,100.217,38.3V32.4a42.053,42.053,0,0,0-3.773-16.738A23.268,23.268,0,0,0,92.5,9.493c-1.639-1.731-3.322-2.608-5-2.608s-3.363.877-5,2.608a23.266,23.266,0,0,0-3.948,6.164A42.051,42.051,0,0,0,74.77,32.4v5.9a12.65,12.65,0,0,0,2.208,7.155,17.07,17.07,0,0,1-1.627-1.517A16.521,16.521,0,0,1,70.844,31.5l.887-14.775a15.812,15.812,0,0,1,31.568-.044l.613,10.859c.637,9.346-1.685,16.821-6.716,21.616-4.5,4.294-11.007,6.271-18.383,5.611a3.426,3.426,0,0,1-1.535-.525,14.538,14.538,0,0,1-2.195-1.706.945.945,0,0,0-1.3-.016.92.92,0,0,0,.008,1.325A19.913,19.913,0,0,0,87.493,58.89a20.473,20.473,0,0,0,12.381-3.918,12.792,12.792,0,0,0,5.063-7.677l.979.345a4.981,4.981,0,0,1,3.323,4.7v9.528a.946.946,0,0,0,.892.958.92.92,0,0,0,.949-.92V52.337A6.822,6.822,0,0,0,106.529,45.9ZM87.493,8.726c1.74,0,3.591,1.565,5.264,4.061H82.23C83.9,10.291,85.754,8.726,87.493,8.726Zm-6.374,5.9H93.867a39.941,39.941,0,0,1,4.449,15.849,11.818,11.818,0,0,1-11.354,6.887,11.483,11.483,0,0,1-6.244-2.211A12.3,12.3,0,0,1,76.7,30.094,39.953,39.953,0,0,1,81.119,14.628ZM76.632,38.976a13.357,13.357,0,0,0,10.861,5.16,14.625,14.625,0,0,0,5.247-.953.92.92,0,1,0-.658-1.719,12.793,12.793,0,0,1-4.589.831c-5.9,0-10.716-3.865-10.879-8.666a14.005,14.005,0,0,0,3.019,3.01A13.317,13.317,0,0,0,86.876,39.2q.332.016.662.016a13.7,13.7,0,0,0,10.815-5.285,8.211,8.211,0,0,1-3.027,5.631.92.92,0,0,0,1.192,1.4A11.307,11.307,0,0,0,98.353,39a10.882,10.882,0,0,1-21.721-.02ZM87.493,57.05a20.931,20.931,0,0,1-3.984-.379,23.468,23.468,0,0,0,14.956-6.182,21.8,21.8,0,0,0,4.632-6.45,3.36,3.36,0,0,1,.2,1.2C103.294,51.749,96.206,57.05,87.493,57.05Z" transform="translate(-63.95)" fill="#cb9118"/></g></svg>