<svg xmlns="http://www.w3.org/2000/svg" width="11.016" height="9.225" viewBox="0 0 11.016 9.225"><defs><style>.a{fill:#39b91a;}</style></defs><path class="a" d="M6.244,10.656A.951.951,0,0,0,6.11,9.438L3.574,6.893a1.838,1.838,0,0,0-.46-.335l-.276-.124h5.4a.951.951,0,0,0,.97-.772.919.919,0,0,0-.919-1.066H2.852l.2-.092a1.838,1.838,0,0,0,.519-.368L6.11,1.594A.951.951,0,0,0,6.244.376.919.919,0,0,0,4.865.257l-4.6,4.6a.919.919,0,0,0,0,1.3h0l4.6,4.6a.919.919,0,0,0,1.379-.092Z" transform="translate(11.016) rotate(90)"/></svg>