<svg xmlns="http://www.w3.org/2000/svg" width="49.037" height="59.679" viewBox="0 0 49.037 59.679"><g transform="translate(0)"><path d="M100.255,43.039,92.8,40.846l-2.653-3.538a2.239,2.239,0,0,0-1.671-.895h-.039V33.809A13.723,13.723,0,0,0,94.2,24.455h.547a3.486,3.486,0,0,0,3.5-3.033A3.373,3.373,0,0,0,96.3,18.01v-5.29h0a.92.92,0,0,0-.027-.223L93.882,2.931A3.864,3.864,0,0,0,90.128,0H71.135a3.864,3.864,0,0,0-3.754,2.931L64.99,12.5a.921.921,0,0,0-.027.223h0v5.331a3.356,3.356,0,0,0,1.412,6.4h.687a13.719,13.719,0,0,0,5.768,9.355v2.6H72.79a2.239,2.239,0,0,0-1.671.895l-2.653,3.538-7.457,2.193a6.858,6.858,0,0,0-4.9,6.543v9.177a.92.92,0,1,0,1.84,0V49.582A5.007,5.007,0,0,1,61.528,44.8l7.49-2.2a13.719,13.719,0,0,0,3.628,2.629,18.5,18.5,0,0,0,7.986,1.84A16.274,16.274,0,0,0,92.245,42.6l7.49,2.2a5.008,5.008,0,0,1,3.575,4.777v9.177a.92.92,0,1,0,1.84,0V49.582A6.858,6.858,0,0,0,100.255,43.039ZM67.584,9.706H86.531a.92.92,0,0,0,0-1.84H68.044l1.122-4.489A2.027,2.027,0,0,1,71.135,1.84H90.128A2.027,2.027,0,0,1,92.1,3.378l1.122,4.489H90.464a.92.92,0,0,0,0,1.84h3.215L94.2,11.8H67.061Zm26.877,3.933V17.7H93.414a1.048,1.048,0,0,1-1.047-1.047V13.639h2.093Zm-27.658,0H68.9v3.013A1.048,1.048,0,0,1,67.849,17.7H66.8Zm1.967,8.913a.92.92,0,1,0-1.84,0v.063h-.555a1.539,1.539,0,0,1-1.53-1.7,1.632,1.632,0,0,1,1.67-1.376h1.335a2.89,2.89,0,0,0,2.886-2.886V13.639H90.528v3.013a2.89,2.89,0,0,0,2.886,2.886h1.475a1.539,1.539,0,0,1,1.53,1.7,1.632,1.632,0,0,1-1.67,1.376h-.415v-.054a.92.92,0,0,0-.92-.92h0a.92.92,0,0,0-.92.919,11.862,11.862,0,0,1-23.725-.009Zm1.609,18.81,2.212-2.949a.4.4,0,0,1,.3-.161.343.343,0,0,1,.275.107,9.279,9.279,0,0,0,4.556,2.465.067.067,0,0,1,.023.054v4.109A13.543,13.543,0,0,1,70.378,41.362Zm11.3-.485V45.2a17.422,17.422,0,0,1-2.093,0V40.877a1.881,1.881,0,0,0-1.427-1.841,7.773,7.773,0,0,1-3.489-1.774V34.887a13.683,13.683,0,0,0,11.926,0v2.375a7.774,7.774,0,0,1-3.489,1.774A1.881,1.881,0,0,0,81.678,40.877Zm1.84,4.109V40.877a.067.067,0,0,1,.023-.054A9.277,9.277,0,0,0,88.1,38.358a.338.338,0,0,1,.253-.108h.022a.4.4,0,0,1,.3.161l2.212,2.949A13.541,13.541,0,0,1,83.518,44.987Z" transform="translate(-56.113)" fill="#8e2520"/></g></svg>