<svg xmlns="http://www.w3.org/2000/svg" width="30.664" height="34.13" viewBox="0 0 30.664 34.13">
  <g id="Group_17387" data-name="Group 17387" transform="translate(-26)">
    <path id="Path_12209" data-name="Path 12209" d="M166.667,366a.667.667,0,1,0,.667.667A.667.667,0,0,0,166.667,366Z" transform="translate(-130.668 -341.602)" fill="#fff"/>
    <path id="Path_12210" data-name="Path 12210" d="M166.667,406a.667.667,0,1,0,.667.667A.667.667,0,0,0,166.667,406Z" transform="translate(-130.668 -378.936)" fill="#fff"/>
    <path id="Path_12211" data-name="Path 12211" d="M30.666,34.13h20a2,2,0,0,0,2-2V31.064h2a2,2,0,0,0,2-2v-24a2,2,0,0,0-2-2h-2V2a2,2,0,0,0-2-2h-20a2,2,0,0,0-2,2V5.066H28a2,2,0,1,0,0,4h.667v2.666H28a2,2,0,1,0,0,4h.667V18.4H28a2,2,0,1,0,0,4h.667v2.666H28a2,2,0,0,0,0,4h.667V32.13A2,2,0,0,0,30.666,34.13Zm22-16.4H55.33v5.333H52.664ZM55.33,16.4H52.664V11.066H55.33ZM54.664,29.73h-2V24.4H55.33v4.666A.667.667,0,0,1,54.664,29.73Zm0-25.331a.667.667,0,0,1,.667.667V9.732H52.664V4.4ZM28,7.733A.667.667,0,0,1,28,6.4h.667V7.733ZM28,14.4a.667.667,0,0,1,0-1.333h.667V14.4Zm0,6.666a.667.667,0,0,1,0-1.333h.667v1.333Zm4-1.333a.667.667,0,0,0-.667.667.667.667,0,0,1-.667.667H30V15.732h.667a2,2,0,0,0,2-2,.667.667,0,1,0-1.333,0,.667.667,0,0,1-.667.667H30V9.066h.667a2,2,0,0,0,2-2,.667.667,0,1,0-1.333,0,.667.667,0,0,1-.667.667H30V2a.667.667,0,0,1,.667-.667h20A.667.667,0,0,1,51.331,2V32.13a.667.667,0,0,1-.667.667h-20A.667.667,0,0,1,30,32.13V29.064h.667a2,2,0,0,0,2-2,.667.667,0,1,0-1.333,0,.667.667,0,0,1-.667.667H30V22.4h.667a2,2,0,0,0,2-2A.667.667,0,0,0,32,19.731Zm-4,8A.667.667,0,0,1,28,26.4h.667v1.333Z" fill="#fff"/>
    <path id="Path_12212" data-name="Path 12212" d="M214.666,366h-8a.667.667,0,1,0,0,1.333h8a.667.667,0,1,0,0-1.333Z" transform="translate(-168.001 -341.602)" fill="#fff"/>
    <path id="Path_12213" data-name="Path 12213" d="M214.666,406h-8a.667.667,0,1,0,0,1.333h8a.667.667,0,1,0,0-1.333Z" transform="translate(-168.001 -378.936)" fill="#fff"/>
    <path id="Path_12214" data-name="Path 12214" d="M153.333,120.665A7.333,7.333,0,1,0,146,113.333,7.326,7.326,0,0,0,153.333,120.665Zm-3.316-2.334a3.333,3.333,0,0,1,6.633,0,6,6,0,0,1-6.633,0ZM151.333,112a2,2,0,1,1,2,2A2,2,0,0,1,151.333,112Zm2-4.666a6.006,6.006,0,0,1,6,6,5.942,5.942,0,0,1-1.528,4,4.687,4.687,0,0,0-2.309-2.8,3.333,3.333,0,1,0-4.325,0,4.687,4.687,0,0,0-2.309,2.8,5.943,5.943,0,0,1-1.528-4A6.006,6.006,0,0,1,153.333,107.333Z" transform="translate(-112.001 -98.934)" fill="#fff"/>
  </g>
</svg>
