<svg xmlns="http://www.w3.org/2000/svg" width="32.831" height="32.316" viewBox="0 0 32.831 32.316"><defs><style>.a{fill:#fff;}</style></defs><path class="a" d="M32.712,29.521l-1.907-5.549A13.882,13.882,0,0,0,18.571,4.013,13.867,13.867,0,0,0,4.48,17.7,10.1,10.1,0,0,0,1.413,30.113L.1,33.936a1.806,1.806,0,0,0,1.7,2.392,1.818,1.818,0,0,0,.591-.1l3.822-1.313a10.148,10.148,0,0,0,4.32.975h.016a10.09,10.09,0,0,0,8.159-4.149,13.911,13.911,0,0,0,5.73-1.4l5.549,1.907a2.161,2.161,0,0,0,.7.118,2.146,2.146,0,0,0,2.021-2.842ZM10.55,33.936h-.013a8.173,8.173,0,0,1-3.8-.942.978.978,0,0,0-.774-.06L2.048,34.28l1.347-3.919a.977.977,0,0,0-.06-.774A8.148,8.148,0,0,1,4.662,20.14a13.92,13.92,0,0,0,11.6,11.451A8.127,8.127,0,0,1,10.55,33.936Zm20.269-3.584a.177.177,0,0,1-.2.045l-5.941-2.041a.977.977,0,0,0-.774.06,11.936,11.936,0,0,1-5.543,1.376h-.018A11.961,11.961,0,0,1,6.434,18.072,11.914,11.914,0,0,1,18.54,5.967,11.917,11.917,0,0,1,28.883,23.441a.977.977,0,0,0-.06.774l2.041,5.941A.177.177,0,0,1,30.819,30.352Z" transform="translate(0 -4.011)"/><path class="a" d="M192.712,139.512H181.07a.977.977,0,1,0,0,1.954h11.642a.977.977,0,0,0,0-1.954Z" transform="translate(-168.545 -130.823)"/><path class="a" d="M192.712,202.183H181.07a.977.977,0,1,0,0,1.954h11.642a.977.977,0,0,0,0-1.954Z" transform="translate(-168.545 -189.476)"/><path class="a" d="M188.231,264.852H181.07a.977.977,0,1,0,0,1.954h7.161a.977.977,0,1,0,0-1.954Z" transform="translate(-168.545 -248.126)"/></svg>