<svg xmlns="http://www.w3.org/2000/svg" width="32.4" height="32.4" viewBox="0 0 32.4 32.4">
  <g id="Group_18907" data-name="Group 18907" transform="translate(47 -105.5)">
    <path id="Path_13100" data-name="Path 13100" d="M-37.891,355.474a5.009,5.009,0,0,0,1.94-3.958,5.022,5.022,0,0,0-5.016-5.016,5.022,5.022,0,0,0-5.016,5.016,5.009,5.009,0,0,0,1.94,3.958A6.026,6.026,0,0,0-47,360.667V362.7a.949.949,0,0,0,.949.949h10.167a.949.949,0,0,0,.949-.949v-2.033a6.026,6.026,0,0,0-2.957-5.193Zm-6.194-3.958a3.121,3.121,0,0,1,3.118-3.118,3.121,3.121,0,0,1,3.118,3.118,3.121,3.121,0,0,1-3.118,3.118,3.121,3.121,0,0,1-3.118-3.118Zm7.252,10.235H-45.1v-1.084a4.132,4.132,0,0,1,4.134-4.134,4.132,4.132,0,0,1,4.134,4.134v1.084Zm0,0" transform="translate(0 -225.749)" fill="#fff"/>
    <path id="Path_13101" data-name="Path 13101" d="M162,105.5H149.8a4,4,0,0,0-4,4v18.3a.95.95,0,0,0,1.519.759l3.814-2.86H162a4,4,0,0,0,4-4V109.5a4,4,0,0,0-4-4Zm2.1,16.2a2.1,2.1,0,0,1-2.1,2.1H150.817a.95.95,0,0,0-.57.19L147.7,125.9V109.5a2.1,2.1,0,0,1,2.1-2.1H162a2.1,2.1,0,0,1,2.1,2.1Zm0,0" transform="translate(-180.6)" fill="#fff"/>
    <path id="Path_13102" data-name="Path 13102" d="M221.183,185.832H211.015a.949.949,0,1,0,0,1.9h10.167a.949.949,0,0,0,0-1.9Zm0,0" transform="translate(-240.798 -75.248)" fill="#fff"/>
    <path id="Path_13103" data-name="Path 13103" d="M221.183,250.1H211.015a.949.949,0,1,0,0,1.9h10.167a.949.949,0,1,0,0-1.9Zm0,0" transform="translate(-240.798 -135.451)" fill="#fff"/>
    <path id="Path_13104" data-name="Path 13104" d="M216.1,314.367h-5.084a.949.949,0,1,0,0,1.9H216.1a.949.949,0,0,0,0-1.9Zm0,0" transform="translate(-240.798 -195.649)" fill="#fff"/>
  </g>
</svg>
