<svg xmlns="http://www.w3.org/2000/svg" width="65.752" height="65.625" viewBox="0 0 65.752 65.625"><defs><style>.a,.b,.c{fill:none;}.a{stroke:#8e2520;}.a,.b{stroke-width:2px;}.b{stroke:#cb9118;}.d,.e{stroke:none;}.e{fill:#cb9118;}</style></defs><g transform="translate(1 -5.513)"><path class="a" d="M12.974,0h7.874A2.357,2.357,0,0,1,23.21,2.362V18.9h8.632a1.965,1.965,0,0,1,1.388,3.356L18.259,37.236a1.907,1.907,0,0,1-2.687,0L.581,22.255A1.965,1.965,0,0,1,1.969,18.9h8.642V2.362A2.357,2.357,0,0,1,12.974,0Z" transform="translate(48.775 44.481) rotate(180)"/><path class="b" d="M63.752,19.97V33.916A2.981,2.981,0,0,1,60.764,36.9H2.988A2.981,2.981,0,0,1,0,33.916V19.97a2.981,2.981,0,0,1,2.988-2.988H21.255l6.1,6.1a6.38,6.38,0,0,0,9.04,0l6.1-6.1H60.764A2.981,2.981,0,0,1,63.752,19.97Z" transform="translate(0 33.233)"/><g class="c" transform="translate(29.123 40.249)"><path class="d" d="M21.77,23.911a2.49,2.49,0,1,0-2.49,2.49A2.5,2.5,0,0,0,21.77,23.911Zm7.969,0a2.49,2.49,0,1,0-2.49,2.49A2.5,2.5,0,0,0,29.739,23.911Z"/><path class="e" d="M 19.27938842773438 22.4205436706543 C 18.45762825012207 22.4205436706543 17.78907775878906 23.0890941619873 17.78907775878906 23.91085433959961 C 17.78907775878906 24.73261451721191 18.45762825012207 25.40116500854492 19.27938842773438 25.40116500854492 C 20.10113716125488 25.40116500854492 20.76968765258789 24.73261451721191 20.76968765258789 23.91085433959961 C 20.76968765258789 23.0890941619873 20.10113716125488 22.4205436706543 19.27938842773438 22.4205436706543 M 27.24836730957031 22.4205436706543 C 26.42660713195801 22.4205436706543 25.75805854797363 23.0890941619873 25.75805854797363 23.91085433959961 C 25.75805854797363 24.73261451721191 26.42660713195801 25.40116500854492 27.24836730957031 25.40116500854492 C 28.07012748718262 25.40116500854492 28.73867797851563 24.73261451721191 28.73867797851563 23.91085433959961 C 28.73867797851563 23.0890941619873 28.07012748718262 22.4205436706543 27.24836730957031 22.4205436706543 M 19.27938842773438 21.4205436706543 C 20.64905738830566 21.4205436706543 21.76968765258789 22.54118347167969 21.76968765258789 23.91085433959961 C 21.76968765258789 25.28052520751953 20.64905738830566 26.40116500854492 19.27938842773438 26.40116500854492 C 17.90971755981445 26.40116500854492 16.78907775878906 25.28052520751953 16.78907775878906 23.91085433959961 C 16.78907775878906 22.54118347167969 17.90971755981445 21.4205436706543 19.27938842773438 21.4205436706543 Z M 27.24836730957031 21.4205436706543 C 28.61803817749023 21.4205436706543 29.73867797851563 22.54118347167969 29.73867797851563 23.91085433959961 C 29.73867797851563 25.28052520751953 28.61803817749023 26.40116500854492 27.24836730957031 26.40116500854492 C 25.87869834899902 26.40116500854492 24.75805854797363 25.28052520751953 24.75805854797363 23.91085433959961 C 24.75805854797363 22.54118347167969 25.87869834899902 21.4205436706543 27.24836730957031 21.4205436706543 Z"/></g></g></svg>