<svg xmlns="http://www.w3.org/2000/svg" width="39.612" height="39.612" viewBox="0 0 39.612 39.612"><defs><style>.a{fill:#8e2520;}.b{fill:#cb9118;}</style></defs><path class="a" d="M313.522,0V18.981h-1.651V0h-1.651V18.981h-1.65V0H306.92V19.806h0a.824.824,0,0,0,.042.261l2.113,6.341H298.667v1.651h12.379a1.969,1.969,0,0,0,1.869-1.347l2.214-6.645a.824.824,0,0,0,.042-.26h0V0Zm-.32,20.631-.825,2.476h-2.661l-.825-2.476Zm-2.026,5.732a.33.33,0,0,1-.433-.174l-.477-1.432h1.561l-.477,1.432A.33.33,0,0,1,311.175,26.364Z" transform="translate(-275.56)"/><rect class="a" width="1.651" height="1.651" transform="translate(23.107 23.107)"/><rect class="b" width="3.301" height="1.651" transform="translate(26.408 23.107)"/><rect class="a" width="1.651" height="1.651" transform="translate(23.107 19.806)"/><rect class="a" width="1.651" height="1.651" transform="translate(26.408 19.806)"/><rect class="b" width="4.952" height="1.651" transform="translate(23.107 16.505)"/><path class="a" d="M37.962,50.176H23.932q-.181-.007-.362,0a4.767,4.767,0,0,0-3.765,2.083,4.77,4.77,0,0,0-4.126-2.083H1.65V22.942H15.68q.125,0,.251,0a3.178,3.178,0,0,1,3.048,3.023c0,.092,0,.185,0,.278V48.525h1.651V26.243c0-.017,0-.034,0-.051a3.179,3.179,0,0,1,3.3-3.25h6.6V21.291h-6.6q-.181-.007-.362,0a4.767,4.767,0,0,0-3.765,2.083,4.77,4.77,0,0,0-4.126-2.083H.825A.825.825,0,0,0,0,22.117V51a.825.825,0,0,0,.825.825H15.68q.126,0,.253,0a3.177,3.177,0,0,1,3.047,3.022c0,.093,0,.186,0,.279h1.651c0-.017,0-.034,0-.051a3.179,3.179,0,0,1,3.3-3.25H38.787A.825.825,0,0,0,39.612,51V47.7h-1.65Z" transform="translate(0 -19.641)"/><path class="a" d="M22.282,438.158v.825a2.476,2.476,0,0,1-4.952,0v-.825a.825.825,0,0,0-.825-.825H0v1.651H15.68a4.126,4.126,0,0,0,8.253,0h15.68v-1.651H23.107A.825.825,0,0,0,22.282,438.158Z" transform="translate(0 -403.497)"/><path class="b" d="M55.871,78.793v-3.3a.825.825,0,0,0-.825-.825H43.492a.825.825,0,0,0-.825.825v3.3a.825.825,0,0,0,.825.825H55.046A.825.825,0,0,0,55.871,78.793Zm-1.65-.825h-9.9v-1.65h9.9Z" transform="translate(-39.366 -68.89)"/><rect class="a" width="8.253" height="1.651" transform="translate(3.301 12.379)"/><rect class="b" width="1.651" height="1.651" transform="translate(13.204 12.379)"/><rect class="a" width="1.651" height="1.651" transform="translate(3.301 15.68)"/><rect class="b" width="8.253" height="1.651" transform="translate(6.602 15.68)"/><rect class="b" width="4.952" height="1.651" transform="translate(3.301 18.981)"/><rect class="a" width="1.651" height="1.651" transform="translate(9.903 18.981)"/><rect class="a" width="1.651" height="1.651" transform="translate(13.204 18.981)"/><rect class="a" width="4.952" height="1.651" transform="translate(9.903 22.282)"/><rect class="a" width="1.651" height="1.651" transform="translate(6.602 22.282)"/><rect class="a" width="1.651" height="1.651" transform="translate(3.301 22.282)"/><rect class="b" width="6.602" height="1.651" transform="translate(3.301 25.583)"/></svg>