<svg xmlns="http://www.w3.org/2000/svg" width="45" height="53.078" viewBox="0 0 45 53.078"><defs><style>.a{fill:#cb9118;}.b{fill:#8e2520;}.c{fill:#fff;}</style></defs><g transform="translate(-433.766 -55.392)"><path class="a" d="M478.332,92.068l-1.446-5.4,1.793-1.793.086-.022-4.157-15.513-2.208.591-.592-2.207-2.207.591-.591-2.206L464.6,67.294l-.591-2.207-6.622,1.774-.59-2.207-4.414,1.183-2.365-8.829-2.207.592-.592-2.207-4.478,1.2-1.616,2.8.006.019-3.264,3.24L442,78.08l-4.974,1.333-3.258,3.259.608,2.27,1.183,4.414,2.207-.591.591,2.207,2.208-.591,1.183,4.414,2.208-.591,1.183,4.413,2.207-.591,1.182,4.414,2.208-.592,1.182,4.415.592,2.206,19.864-5.322,2.269-.608,3.26-3.259-1.446-5.4,1.794-1.794Z" transform="translate(0 0)"/><path class="a" d="M452.2,100.848l-2.206.591-1.184-4.414-2.206.591L445.417,93.2l-2.208.591-1.183-4.414-2.208.592-.591-2.207-2.208.592-1.258-4.7,2.479-2.48,5.9-1.58L439.86,63.636l3.268-3.243,3.707-2.81.591,2.207,2.208-.592L452,68.028l4.415-1.183.59,2.207,6.622-1.774.591,2.207,4.415-1.183.591,2.208,2.208-.592.592,2.207,2.208-.591,3.612,13.477-1.867,1.866,1.432,5.347-1.865,1.866,1.446,5.4-2.48,2.479-20.536,5.5Z" transform="translate(-0.542 -0.595)"/><path class="b" d="M473.608,69.989l-.592-2.207-2.207.592-.592-2.207L465.8,67.349l-.592-2.207-6.623,1.775L458,64.708l-4.415,1.182-2.365-8.828-2.207.591-.592-2.207-4.415,1.182.593,2.207-2.208.592,5.323,19.864-2.208.592-.59-2.207-6.623,1.775.591,2.207.3,1.1.887,3.312,2.207-.592.592,2.207,2.207-.592,1.184,4.414,2.206-.591,1.184,4.413,2.206-.591,1.183,4.414,2.207-.591,1.183,4.414.591,2.207,19.865-5.323,2.207-.592-1.773-6.621,2.207-.592-1.775-6.621,2.207-.592L475.815,69.4Z" transform="translate(-1.229 -0.015)"/><g transform="translate(437.064 55.432)"><rect class="c" width="2.285" height="27.42" transform="translate(4.098 3.981) rotate(-14.998)"/><rect class="c" width="4.57" height="2.285" transform="translate(5.714 1.183) rotate(-15.001)"/><rect class="c" width="2.285" height="20.565" transform="translate(10.719 2.207) rotate(-15.002)"/><rect class="c" width="4.57" height="2.285" transform="translate(15.292 10.445) rotate(-15.008)"/><rect class="c" width="2.286" height="6.855" transform="translate(20.89 13.675) rotate(-14.978)"/><rect class="c" width="6.856" height="2.285" transform="matrix(0.966, -0.259, 0.259, 0.966, 20.297, 11.469)"/><rect class="c" width="2.285" height="6.85" transform="translate(28.102 14.109) rotate(-15.001)"/><rect class="c" width="4.57" height="2.285" transform="translate(27.51 11.901) rotate(-14.997)"/><rect class="c" width="2.284" height="2.285" transform="matrix(0.966, -0.259, 0.259, 0.966, 32.516, 12.926)"/><rect class="c" width="2.285" height="15.995" transform="translate(35.314 14.542) rotate(-15.001)"/><rect class="c" width="2.284" height="6.855" transform="translate(37.248 30.584) rotate(-15.01)"/><rect class="c" width="2.285" height="6.855" transform="translate(36.814 37.796) rotate(-15.005)"/><rect class="c" width="20.565" height="2.285" transform="translate(18.133 47.533) rotate(-15)"/><rect class="c" width="2.285" height="2.285" transform="matrix(0.966, -0.259, 0.259, 0.966, 7.213, 24.437)"/><rect class="c" width="6.856" height="2.285" transform="translate(0 24.004) rotate(-14.994)"/><rect class="c" width="2.285" height="4.571" transform="translate(0.591 26.211) rotate(-15.005)"/><rect class="c" width="2.285" height="2.285" transform="translate(3.982 30.035) rotate(-15.01)"/><rect class="c" width="2.285" height="4.57" transform="translate(6.78 31.65) rotate(-15.003)"/><rect class="c" width="2.285" height="4.57" transform="translate(10.17 35.473) rotate(-15.001)"/><rect class="c" width="2.285" height="4.57" transform="translate(13.56 39.295) rotate(-14.992)"/><rect class="c" width="2.285" height="4.57" transform="translate(16.951 43.118) rotate(-14.983)"/></g></g></svg>