<svg id="Group_16989" data-name="Group 16989" xmlns="http://www.w3.org/2000/svg" width="24.832" height="21.923" viewBox="0 0 24.832 21.923">
  <path id="Path_11725" data-name="Path 11725" d="M1210.669,303.081a.485.485,0,1,0,.485.485.485.485,0,0,0-.485-.485Zm0,0" transform="translate(-1190.493 -293.525)" fill="#fff"/>
  <path id="Path_11726" data-name="Path 11726" d="M805.295,117.663l7.485,2.807c.2,1.627.932,7.459.937,7.492a.485.485,0,0,0,.821.259l0,0,4.425-4.505,6.689,2.676a.485.485,0,0,0,.657-.363l3.492-19.013a.485.485,0,0,0-.668-.533l-23.863,10.283a.485.485,0,0,0,.022.9Zm10.475,4.077a.5.5,0,0,0-.1.17l-1.263,3.787-.672-5.373L825.128,111Zm-.451,4.3,1.114-3.343,1.557.623Zm10.147-.775-8.515-3.406,11.582-13.292Zm.909-16.542-13.241,10.84-6.371-2.389Zm0,0" transform="translate(-804.981 -106.441)" fill="#fff"/>
  <path id="Path_11727" data-name="Path 11727" d="M1193.966,342.678a.485.485,0,0,0-.541.421l-.592,4.734a.485.485,0,0,0,.962.121l.592-4.734a.485.485,0,0,0-.421-.542Zm0,0" transform="translate(-1173.981 -331.194)" fill="#fff"/>
</svg>
