<svg xmlns="http://www.w3.org/2000/svg" xmlns:xlink="http://www.w3.org/1999/xlink" width="810" height="130" viewBox="0 0 810 130"><defs><style>.a{fill:none;}.b{opacity:0.5;}.c{clip-path:url(#a);}.d{opacity:0.4;}.e{fill:#8e2520;}</style><clipPath id="a"><rect class="a" width="810" height="130"/></clipPath></defs><g class="b" transform="translate(736.94 187.446) rotate(180)"><g class="c" transform="translate(736.94 187.446) rotate(180)"><g class="d" transform="translate(-149.721 -190.484)"><path class="e" d="M638.634,254.418c-4.127-4.2-7.807-7.941-12.006-12.212,8.908-8.748,18.006-17.653,27.068-26.6,5.2-5.134,10.266-10.416,15.585-15.426a7.759,7.759,0,0,1,4.827-1.989q76.326-.133,152.653.005a6.147,6.147,0,0,1,3.92,1.126c6.212,5.9,12.255,11.973,18.37,18.012l-12.526,11.842c-3.56-3.73-7.445-8.055-11.645-12.05a8.318,8.318,0,0,0-5.181-2.168q-69.229-.2-138.46-.045a8.728,8.728,0,0,0-5.5,2.377C663.287,229.561,651,241.994,638.634,254.418Z" transform="translate(82.307 0.295)"/><path class="e" d="M398.37,217.333l-11.828,12.155c-4.015-4.144-7.856-8.4-12.049-12.274a9.062,9.062,0,0,0-5.581-2.268q-69.016-.21-138.031-.049a8.805,8.805,0,0,0-5.57,2.292c-10.052,9.8-19.883,19.837-29.844,29.736-2.442,2.427-5.11,4.626-7.789,7.031l-11.742-11.794c14.353-14.086,28.8-28.318,43.357-42.442a6.487,6.487,0,0,1,4.145-1.537q49.242-.1,98.484-.013c17.771.007,35.542-.1,53.31.119a10.981,10.981,0,0,1,6.633,2.774C387.558,206.271,392.89,211.874,398.37,217.333Z" transform="translate(27.587 0.296)"/><path class="e" d="M401.746,242.069c13.993-13.918,28.292-28.19,42.7-42.352a6.48,6.48,0,0,1,4.178-1.5c47.16-.031,94.329.507,141.475-.28,11.145-.187,18.72,3.082,25.3,11.241,2.391,2.965,5.567,5.3,8.555,8.075-4.407,4.079-8.254,7.64-12.878,11.922-3.33-3.543-6.947-7.767-11-11.519a10.234,10.234,0,0,0-6.268-2.646c-45.579-.17-91.158-.127-136.736-.247a9.555,9.555,0,0,0-7.488,3.158c-12.033,12.19-24.217,24.232-36.432,36.406Z" transform="translate(55.003 0.269)"/><path class="e" d="M172.486,217.634,161,228.74c-3.021-3.108-6.363-6.176-9.245-9.629-2.353-2.818-4.722-4.349-8.663-4.338q-68.188.187-136.377-.033A9.551,9.551,0,0,0-.808,217.82c-12.072,12.248-24.313,24.33-36.518,36.491L-48.8,241.978c7.627-7.521,15.885-15.636,24.108-23.785,5.908-5.855,11.676-11.855,17.721-17.566a8.953,8.953,0,0,1,5.514-2.405q66.466-.18,132.931-.066c6.405,0,12.812-.053,19.217.049,1.332.021,3.045.2,3.919,1.018,5.078,4.74,9.982,9.668,14.882,14.594A41.268,41.268,0,0,1,172.486,217.634Z" transform="translate(0.301 0.296)"/><path class="e" d="M-26.667,290.046l12.485-11.936c3.592,3.776,7.258,7.992,11.348,11.743a10.308,10.308,0,0,0,6.277,2.677c45.467.154,90.934.091,136.4.191a9.579,9.579,0,0,0,7.531-3.1c10.847-11.058,21.857-21.956,32.762-32.958a35.438,35.438,0,0,0,3-3.943l12.405,12.445c-9.048,8.959-18.407,18.215-27.754,27.483-4.786,4.747-9.453,9.62-14.391,14.2a8.418,8.418,0,0,1-5.155,2.209q-76.163.165-152.327.015a7.29,7.29,0,0,1-4.611-1.481C-14.76,301.917-20.609,296.009-26.667,290.046Z" transform="translate(2.988 6.922)"/><path class="e" d="M634.282,252.857l12.171,11.954c-4.955,4.839-9.89,9.588-14.748,14.416-9.051,9-17.966,18.13-27.165,26.97a10.639,10.639,0,0,1-6.6,2.813c-21.5.209-43.009.127-64.515.122-28.076-.007-56.152-.123-84.226.077a12.824,12.824,0,0,1-10.45-4.4C434,299.7,428.793,295,423.619,289.967l12.887-11.81c3.416,3.619,7.154,7.952,11.328,11.812a10.329,10.329,0,0,0,6.288,2.56c14.187.221,28.381.112,42.572.111,31.217,0,62.435-.045,93.651.063a9.475,9.475,0,0,0,7.5-3.1C609.862,277.306,622.039,265.17,634.282,252.857Z" transform="translate(57.659 6.939)"/><path class="e" d="M649.359,289.941l11.7-12.154c4.081,4.218,7.926,8.475,12.115,12.361a9.032,9.032,0,0,0,5.548,2.338q68.839.188,137.677-.021a10,10,0,0,0,6.252-2.736c12.425-12.1,24.653-24.4,36.82-36.525,3.885,3.813,7.709,7.57,11.949,11.732-8.05,7.957-16.2,15.988-24.318,24.047-6.006,5.959-11.895,12.041-18.032,17.862a8.325,8.325,0,0,1-5.173,2.166q-76.16.156-152.318,0A7.182,7.182,0,0,1,667,307.467C660.984,301.736,655.186,295.777,649.359,289.941Z" transform="translate(85.066 6.981)"/><path class="e" d="M408.882,252.983c4.285,4.134,8.062,7.779,12.171,11.745-8.608,8.559-17.129,17.019-25.634,25.493-5.583,5.563-11.06,11.241-16.788,16.651a8.335,8.335,0,0,1-5.172,2.157q-76.1.156-152.2.017c-1.46,0-3.352-.242-4.31-1.147-6.214-5.875-12.223-11.964-18.289-17.974,4.061-4.024,7.8-7.731,12.26-12.15,3.554,3.813,7.332,7.672,10.87,11.739a8.5,8.5,0,0,0,7.046,3.165c45.717-.084,91.434-.03,137.15-.172a9.3,9.3,0,0,0,5.887-2.485C384.328,277.768,396.6,265.325,408.882,252.983Z" transform="translate(30.345 6.954)"/><path class="e" d="M7.274,250.542-3.843,238.765c3.046-3,6.375-6.475,9.965-9.659.9-.8,2.645-.912,4-.918,14.183-.063,28.366-.131,42.546.069a8.927,8.927,0,0,1,5.493,2.454c9.651,9.393,19.028,19.07,28.731,28.408a11.157,11.157,0,0,0,6.661,2.715c6.717.354,13.465.048,20.2.146,6.445.093,13.089.957,16.808-6.518l11.923,12.764c-3.139,2.923-6.589,6.3-10.247,9.425-.834.714-2.387.81-3.611.813-14.329.049-28.661.114-42.988-.089a8.9,8.9,0,0,1-5.483-2.438c-9.654-9.39-19.042-19.052-28.732-28.4a10.277,10.277,0,0,0-6.274-2.565c-8.589-.283-17.2.1-25.787-.193-4.162-.141-7.545.579-10.056,4.088A10.735,10.735,0,0,1,7.274,250.542Z" transform="translate(5.759 3.936)"/><path class="e" d="M592.861,268.052c-3.085,2.92-6.11,5.971-9.364,8.755a6.964,6.964,0,0,1-4.121,1.6c-14.611.113-29.225.151-43.835-.039a8.336,8.336,0,0,1-5.065-2.427c-9.63-9.4-19.028-19.039-28.713-28.381a10.356,10.356,0,0,0-6.262-2.594c-7.582-.311-15.194.1-22.776-.2-5.85-.233-11.239-.018-14.6,7.052-3.7-3.88-7.011-6.983-9.774-10.518-.731-.935-.328-3.637.543-4.768a43.6,43.6,0,0,1,7-6.936,7.236,7.236,0,0,1,4.26-1.374c14.328-.1,28.66-.158,42.986.048a8.971,8.971,0,0,1,5.474,2.558c9.742,9.5,19.233,19.257,29.007,28.724a9.727,9.727,0,0,0,5.921,2.318c6.723.281,13.465.128,20.2.089,6.476-.038,13.558,1.652,17.029-6.706C585.022,259.755,588.642,263.588,592.861,268.052Z" transform="translate(60.615 3.937)"/><path class="e" d="M806.4,256.13l11.925,12.082c-3.193,2.953-6.522,6.265-10.136,9.23-1.044.857-2.9.987-4.392.994-14.336.056-28.675.1-43.007-.111a8.36,8.36,0,0,1-5.029-2.5c-9.531-9.325-18.821-18.895-28.427-28.14a11.11,11.11,0,0,0-6.644-2.7c-6.864-.349-13.76-.061-20.641-.148-6.3-.081-12.864-1.1-16.346,6.294l-12-12.427c3.074-2.937,6.278-6.217,9.747-9.184a7.094,7.094,0,0,1,4.28-1.3c14.195-.093,28.392-.146,42.585.049a8.943,8.943,0,0,1,5.546,2.384c9.766,9.49,19.27,19.251,29.052,28.726a9.685,9.685,0,0,0,5.916,2.465c8.59.274,17.2-.052,25.788.206,4.029.121,7.286-.7,9.734-4.045A13.072,13.072,0,0,1,806.4,256.13Z" transform="translate(87.779 3.937)"/><path class="e" d="M367.285,268.542c-2.812,2.642-6.159,5.945-9.714,9.007a5.922,5.922,0,0,1-3.59.88c-14.479.058-28.958.118-43.433-.067A8.308,8.308,0,0,1,305.454,276c-9.328-9.116-18.585-18.309-27.646-27.69a10.74,10.74,0,0,0-8.614-3.655c-7.875.17-15.779.45-23.624-.052-5.691-.363-9.468,2.1-12.652,6.374l-11.472-11.871c3.229-3.26,6.626-6.864,10.259-10.215.777-.717,2.4-.7,3.641-.7,14.193-.047,28.385-.11,42.574.063a8.272,8.272,0,0,1,5.148,2.19q14.333,13.938,28.314,28.233a10.1,10.1,0,0,0,8.3,3.346c6.873-.231,13.761-.174,20.64-.038,5.956.118,12,.756,14.969-6.132Z" transform="translate(33.112 3.938)"/><path class="e" d="M159.613,264.41c-4.028,4.006-7.749,7.707-11.956,11.894-8.249-8.387-16.756-16.5-24.6-25.22-4.313-4.8-8.848-6.968-15.273-6.336-5.256.518-10.605.173-15.911.089-6.292-.1-12.841-1.081-16.321,6.27L63.344,238.613c3.214-3,6.551-6.3,10.12-9.319a6.559,6.559,0,0,1,3.947-1.088q21.514-.114,43.031.007a6.607,6.607,0,0,1,4.256,1.346C136.339,241.023,147.847,252.623,159.613,264.41Z" transform="translate(13.917 3.939)"/><path class="e" d="M609.975,264.2,597.959,276.4c-9.427-9.623-18.747-19.325-28.342-28.745a10.982,10.982,0,0,0-6.647-2.688c-6.865-.344-13.76-.11-20.642-.121-6.236-.01-12.933-1.389-16.267,6.519-4.189-4.479-7.793-8.332-12.151-12.994,3.058-2.8,6.429-6.06,10.022-9.053a6.613,6.613,0,0,1,3.946-1.116q21.5-.114,43.01.012a6.633,6.633,0,0,1,4.26,1.365C586.812,241.019,598.344,252.592,609.975,264.2Z" transform="translate(68.622 3.939)"/><path class="e" d="M299.951,250.479c-3.487-3.6-7.16-7.381-11.314-11.665,3.263-3.106,6.58-6.452,10.135-9.521a6.487,6.487,0,0,1,3.941-1.079c14.323-.076,28.646-.1,42.968.019a7.144,7.144,0,0,1,4.574,1.633c11.428,11.252,22.714,22.649,34.028,34.018a2.469,2.469,0,0,1,.339.756c-3.779,3.667-7.559,7.333-11.9,11.543-5.89-6.043-11.912-12.3-18.024-18.47-4.228-4.265-7.914-10.006-13.066-12.15s-11.819-.639-17.823-.72c-1.718-.024-3.437,0-5.156,0-3.437,0-7.086-.716-10.251.213C305.365,245.945,302.83,248.546,299.951,250.479Z" transform="translate(41.27 3.939)"/><path class="e" d="M835.4,264.364l-12.286,11.909c-1.528-1.725-3.2-3.8-5.072-5.692-7.666-7.738-15.31-15.5-23.167-23.042a9.682,9.682,0,0,0-5.859-2.6c-9.877-.251-19.765-.164-29.647,0a7.016,7.016,0,0,0-4.067,1.754,35.453,35.453,0,0,0-3.9,4.686l-12.334-12.911c3.147-2.879,6.525-6.142,10.123-9.142a6.57,6.57,0,0,1,3.924-1.12q21.491-.116,42.984.009a6.64,6.64,0,0,1,4.265,1.308C812.1,241.04,823.715,252.7,835.4,264.364Z" transform="translate(95.958 3.938)"/><path class="e" d="M57.437,255.273,69.6,267.566c-3.287,3.158-6.483,6.41-9.908,9.4a6.363,6.363,0,0,1-3.881,1.22q-21.721.121-43.445-.006a6.036,6.036,0,0,1-3.888-1.136C-3.258,265.49-14.877,253.813-26.4,242.289l12.077-12.09c4.837,5.056,9.916,10.417,15.054,15.72,3.29,3.4,6.94,6.483,9.941,10.112,3.688,4.459,7.907,6.325,13.778,5.79a129.345,129.345,0,0,1,18.055-.047C48.484,262.07,54.024,261.795,57.437,255.273Z" transform="translate(3.02 4.188)"/><path class="e" d="M648.967,242.01l12.19-11.989c7.146,7.332,14.8,14.272,21.328,22.143,6.331,7.628,13.54,11.113,23.382,9.65,3.646-.542,7.448-.219,11.169-.058,6.249.27,12.5.76,16.038-6.216l11.6,12.689c-2.773,2.654-6.279,6.147-9.974,9.424-.707.627-2.156.563-3.265.565-14.337.037-28.674.064-43.012-.024-1.449-.009-3.326-.343-4.275-1.272C672.382,265.4,660.751,253.748,648.967,242.01Z" transform="translate(85.019 4.166)"/><path class="e" d="M198.524,242.11l12.242-11.845c3.476,3.615,7.16,7.527,10.933,11.351,5.739,5.816,11.422,11.7,17.4,17.266a10.573,10.573,0,0,0,6.278,2.693c8.723.3,17.467-.043,26.194.205,3.73.105,6.694-.68,9-3.7a16.982,16.982,0,0,1,2.352-2.165l11.886,12.06c-3.141,2.9-6.4,6.1-9.879,9.02a6.568,6.568,0,0,1-3.933,1.133q-22.143.113-44.289-.007a4.753,4.753,0,0,1-3.044-1.135C221.926,265.431,210.27,253.8,198.524,242.11Z" transform="translate(30.329 4.196)"/><path class="e" d="M424.759,241.617l10.389-11.646c2.1,2.36,3.846,4.521,5.793,6.486,8.04,8.117,16.085,16.23,24.286,24.183a7.122,7.122,0,0,0,4.6,1.568q14.956-.057,29.907-.555a6.741,6.741,0,0,0,4.033-1.865,33.944,33.944,0,0,0,3.666-5.071c4.728,4.822,8.406,8.574,12.622,12.873-3.38,3.228-6.739,6.492-10.179,9.667a3.6,3.6,0,0,1-2.264.941c-6.263-.146-12.523-.592-18.783-.585a200.787,200.787,0,0,0-20.083.737c-6.419.653-10.943-1.536-15.245-6.283-8.734-9.64-18.038-18.762-27.086-28.118A20.574,20.574,0,0,1,424.759,241.617Z" transform="translate(57.797 4.16)"/><path class="e" d="M629.757,195.705l21.6,22.076-11.895,11.53L630.047,217.9l-36.472,36.91-11.151-11.858Z" transform="translate(76.94 0)"/><path class="e" d="M437.5,252.389l11.27,11.866c-15.747,15.664-31.726,31.558-47.523,47.273l-21.76-21.772,11.51-11.733L401.223,289.2C413.518,276.721,425.433,264.629,437.5,252.389Z" transform="translate(52.3 6.882)"/><path class="e" d="M142.379,254.43l-10.187-10.772,47.392-47.035,21.153,21.358-11.155,11.086c-2.522-2.65-5.422-5.411-7.967-8.468-1.857-2.231-2.876-2.222-4.994-.08C165.358,231.909,153.878,243.087,142.379,254.43Z" transform="translate(22.276 0.111)"/><path class="e" d="M154.039,289.3l11.837-11.648,9.95,12.067,36.453-37.13,10.688,11.793-47.128,46.933C169.142,304.558,161.731,297.073,154.039,289.3Z" transform="translate(24.928 6.907)"/><path class="e" d="M662.56,252.608,674.1,264.425l-47.355,47.221-22.225-22.338L616.3,277.82l9.693,11.954Z" transform="translate(79.622 6.909)"/><path class="e" d="M404.652,217.671l-36.625,37.081-10.716-11.626,47.33-47.249c6.964,7.145,14.246,14.613,21.493,22.047l-11.813,10.828Z" transform="translate(49.608 0.021)"/><path class="e" d="M-51.259,310.8c0-6.675-.074-13.385.073-20.091a5.486,5.486,0,0,1,1.58-3.307c11.316-11.586,22.705-23.1,33.989-34.549l11.035,11.526Z" transform="translate(0 6.938)"/><path class="e" d="M807.639,243.312l46.915-46.977c0,7.018.032,14.112-.049,21.206a3.643,3.643,0,0,1-1.084,2.214c-11.542,11.722-23.121,23.406-34.781,35.184Z" transform="translate(104.284 0.076)"/><path class="e" d="M379.437,241.529l10.8-11.008q16.784,17.083,33.25,33.84L412.408,275.17C401.753,264.3,390.667,252.986,379.437,241.529Z" transform="translate(52.294 4.227)"/><path class="e" d="M648.857,264.778,638.162,275.34l-33.4-34.215L615.4,230.69Z" transform="translate(79.653 4.248)"/><path class="e" d="M197.818,264.708l-10.2,10.373-32.828-33.092L165.616,231.5Z" transform="translate(25.019 4.346)"/><path class="e" d="M-40.823,274.09c-2.795-2.864-5.9-5.84-8.727-9.057a7.037,7.037,0,0,1-1.628-4.138c-.168-6.579-.075-13.164-.075-18.974l21.274,21.429Z" transform="translate(0 5.611)"/><path class="e" d="M841.692,230.368c2.827,3.016,5.991,6.28,8.995,9.685a5.07,5.07,0,0,1,1.127,3.052c.1,6.819.051,13.64.051,20.028l-21.9-21.871C833.215,238.244,837.054,234.677,841.692,230.368Z" transform="translate(106.995 4.209)"/><path class="e" d="M-29.258,218.6-41.1,228.823c-2.66-2.713-6.049-6.126-9.368-9.607a3.054,3.054,0,0,1-.751-1.911c-.053-6.976-.033-13.954-.033-20.8Z" transform="translate(0.003 0.097)"/><path class="e" d="M841.071,275.62c.308.212.537.388.782.535,13.085,7.851,9.977,20.472,9.834,31.912L829.9,286.479Z" transform="translate(106.987 9.703)"/></g></g></g></svg>