<svg xmlns="http://www.w3.org/2000/svg" width="45.6" height="38.761" viewBox="0 0 45.6 38.761">
  <g id="user-group" transform="translate(0 0)">
    <g id="Path_12573" data-name="Path 12573" transform="translate(-112.679 -29.114)" fill="none">
      <path d="M135.479,48.071c4.31,0,7.8-4.244,7.8-9.478s-1.147-9.479-7.8-9.479-7.8,4.244-7.8,9.479S131.169,48.071,135.479,48.071Z" stroke="none"/>
      <path d="M 135.4787902832031 47.07093811035156 C 139.2304077148438 47.07093811035156 142.2825622558594 43.26753997802734 142.2825622558594 38.592529296875 C 142.2825622558594 35.65326690673828 141.8991241455078 33.75469970703125 141.0392913818359 32.43655014038086 C 140.5549774169922 31.6940975189209 139.9169464111328 31.14815902709961 139.0887298583984 30.76750755310059 C 138.1452178955078 30.33387756347656 136.9306640625 30.1140079498291 135.4788208007812 30.1140079498291 C 134.0269165039062 30.1140079498291 132.8123168945312 30.33387756347656 131.8687744140625 30.76750755310059 C 131.0405578613281 31.14815902709961 130.4025268554688 31.6940975189209 129.9182281494141 32.43655014038086 C 129.0584411621094 33.7546501159668 128.6750183105469 35.65321731567383 128.6750183105469 38.59250640869141 C 128.6751251220703 43.26752853393555 131.7272796630859 47.07093811035156 135.4787902832031 47.07093811035156 M 135.4787902832031 48.07093811035156 C 131.1690979003906 48.07093811035156 127.6751327514648 43.82722854614258 127.6750183105469 38.592529296875 C 127.6750183105469 33.35769653320312 128.8221435546875 29.1140079498291 135.4788208007812 29.1140079498291 C 142.1352386474609 29.1140079498291 143.2825622558594 33.35769653320312 143.2825622558594 38.592529296875 C 143.2825622558594 43.82722854614258 139.7885131835938 48.07093811035156 135.4787902832031 48.07093811035156 Z" stroke="none" fill="#fff"/>
    </g>
    <g id="Path_12574" data-name="Path 12574" transform="translate(-60.57 -177.012)" fill="none">
      <path d="M98.092,210.059c-.144-9.119-1.335-11.718-10.449-13.363a6.4,6.4,0,0,1-8.546,0c-9.014,1.627-10.278,4.187-10.444,13.066-.014.725,0-.654,0-.738,0,.158-.021,1.867-.021,2.375,0,0,2.17,4.374,14.738,4.374S98.109,211.4,98.109,211.4l-.016-1.506.017.8A5.709,5.709,0,0,1,98.092,210.059Z" stroke="none"/>
      <path d="M 83.37007904052734 214.7733306884766 C 89.45513916015625 214.7733306884766 92.91434478759766 213.7125091552734 94.7447509765625 212.8226013183594 C 96.19319915771484 212.1183776855469 96.85989379882812 211.4141387939453 97.10529327392578 211.1014404296875 L 97.09732818603516 210.3609466552734 C 97.09585571289062 210.2816162109375 97.09424591064453 210.1868286132812 97.09249114990234 210.0743865966797 C 97.02462005615234 205.7873687744141 96.729736328125 202.9549865722656 95.42334747314453 201.1636657714844 C 94.24944305419922 199.5540161132812 92.07367706298828 198.5590972900391 87.97132110595703 197.7740783691406 C 87.2801513671875 198.3704376220703 85.79119873046875 199.3307037353516 83.36996459960938 199.3307037353516 C 80.94867706298828 199.3307037353516 79.45987701416016 198.3704376220703 78.76878356933594 197.7740631103516 C 74.70412445068359 198.5515747070312 72.53970336914062 199.5305786132812 71.35708618164062 201.1090240478516 C 70.03421783447266 202.8746643066406 69.73040771484375 205.6257171630859 69.65268707275391 209.7808227539062 C 69.65161895751953 209.838134765625 69.64867401123047 209.8927001953125 69.64399719238281 209.9447326660156 C 69.63988494873047 210.3354187011719 69.63531494140625 210.7833099365234 69.63313293457031 211.1035308837891 C 69.85442352294922 211.3857269287109 70.45716094970703 212.0305938720703 71.74733734130859 212.6981353759766 C 73.57706451416016 213.6448364257812 77.07878875732422 214.7733306884766 83.37007904052734 214.7733306884766 M 83.37007904052734 215.7733306884766 C 70.80166625976562 215.7733306884766 68.6318359375 211.3992462158203 68.6318359375 211.3992462158203 C 68.6318359375 210.8905181884766 68.65333557128906 209.1815948486328 68.65285491943359 209.0238494873047 C 68.65532684326172 209.1080474853516 68.63933563232422 210.4888763427734 68.65285491943359 209.7622222900391 C 68.81894683837891 200.8828582763672 70.08258056640625 198.3228302001953 79.09690093994141 196.6960296630859 C 79.09690093994141 196.6960296630859 80.37979125976562 198.3307037353516 83.36996459960938 198.3307037353516 C 86.36013031005859 198.3307037353516 87.64326477050781 196.6960296630859 87.64326477050781 196.6960296630859 C 96.75695037841797 198.3409271240234 97.94799041748047 200.9393463134766 98.09235382080078 210.0585479736328 C 98.09412384033203 210.1714324951172 98.09574127197266 210.2662353515625 98.09721374511719 210.3453674316406 L 98.10855102539062 211.3992462158203 C 98.10855102539062 211.3992462158203 95.93849945068359 215.7733306884766 83.37007904052734 215.7733306884766 Z M 98.10777282714844 210.7026062011719 C 98.10561370849609 210.7026062011719 98.10224151611328 210.6150665283203 98.09721374511719 210.3453674316406 L 98.09235382080078 209.8934173583984 L 98.10903930664062 210.6906280517578 C 98.10867309570312 210.6982574462891 98.10825347900391 210.7026062011719 98.10777282714844 210.7026062011719 Z" stroke="none" fill="#fff"/>
    </g>
    <path id="Path_12575" data-name="Path 12575" d="M264.586,60.414c3.5,0,6.338-3.447,6.338-7.7s-.932-7.7-6.338-7.7a9.037,9.037,0,0,0-2.365.28,15.537,15.537,0,0,1,1.42,7.33,13,13,0,0,1-1.947,6.937A5.429,5.429,0,0,0,264.586,60.414Z" transform="translate(-230.956 -43.15)" fill="#fff"/>
    <path id="Path_12576" data-name="Path 12576" d="M296.063,191.978c-.117-7.406-1.085-9.517-8.487-10.853a4.437,4.437,0,0,1-3.471,1.328c-.1,0-.2,0-.294-.007a9.738,9.738,0,0,1,3.981,3.082c1.787,2.451,2.2,5.742,2.283,10.579,4.98-.984,6-3.039,6-3.039,0-.268-.014-1.7-.013-1.83C296.061,191.281,296.07,192.455,296.063,191.978Z" transform="translate(-250.476 -163.27)" fill="#fff"/>
    <g id="Path_12577" data-name="Path 12577" transform="translate(-42.323 -43.151)" fill="#fff">
      <path d="M 54.29277420043945 59.91537094116211 C 51.07381439208984 59.91537094116211 48.45500564575195 56.68633270263672 48.45500564575195 52.71730041503906 C 48.45500564575195 50.26579284667969 48.78201293945312 48.67119216918945 49.51531219482422 47.54692077636719 C 50.40535354614258 46.18234252929688 51.96808242797852 45.51900100708008 54.29277420043945 45.51900100708008 C 54.88264465332031 45.51900100708008 55.42928314208984 45.56272888183594 55.92533493041992 45.6493034362793 C 54.88068008422852 47.93843841552734 54.73820495605469 50.55624389648438 54.73820495605469 52.62932205200195 C 54.73820495605469 55.06140899658203 55.34275054931641 57.38507080078125 56.49123764038086 59.38427352905273 C 55.79351043701172 59.73696136474609 55.05601119995117 59.91537094116211 54.29277420043945 59.91537094116211 Z" stroke="none"/>
      <path d="M 54.29277420043945 59.41537094116211 C 54.80614471435547 59.41537094116211 55.30730819702148 59.32488250732422 55.79099273681641 59.14545440673828 C 54.77226638793945 57.18460845947266 54.23820495605469 54.95394897460938 54.23820495605469 52.62932205200195 C 54.23820495605469 50.68634033203125 54.36184310913086 48.27402114868164 55.21161651611328 46.05924987792969 C 54.92045974731445 46.032470703125 54.61373138427734 46.01900100708008 54.29277420043945 46.01900100708008 C 53.14086532592773 46.01900100708008 52.18082427978516 46.19180297851562 51.43931198120117 46.5325927734375 C 50.79983520507812 46.82650375366211 50.30747222900391 47.24764251708984 49.93410491943359 47.82008361816406 C 49.25697326660156 48.85824203491211 48.95500564575195 50.36859130859375 48.95500564575195 52.71730041503906 C 48.95500564575195 56.4106330871582 51.34951400756836 59.41537094116211 54.29277420043945 59.41537094116211 M 54.29277420043945 60.41537094116211 C 50.79259490966797 60.41537094116211 47.95500564575195 56.96875381469727 47.95500564575195 52.71730041503906 C 47.95500564575195 48.46561050415039 48.8864631652832 45.01900100708008 54.29277420043945 45.01900100708008 C 55.20238494873047 45.01900100708008 55.98478317260742 45.11684036254883 56.6578254699707 45.29949188232422 C 55.40934371948242 47.60135269165039 55.23820495605469 50.3973503112793 55.23820495605469 52.62932205200195 C 55.23820495605469 55.15635299682617 55.92322540283203 57.56897354125977 57.18474197387695 59.56660079956055 C 56.31730270385742 60.10797119140625 55.33499526977539 60.41537094116211 54.29277420043945 60.41537094116211 Z" stroke="none" fill="#fff"/>
    </g>
    <g id="Path_12578" data-name="Path 12578" transform="translate(0 -163.269)" fill="#fff">
      <path d="M 5.513339519500732 195.4896850585938 C 1.931649088859558 194.6674499511719 0.7518855333328247 193.2794952392578 0.5003552436828613 192.9225616455078 L 0.5003740787506104 192.6814575195312 C 0.5003927946090698 192.5198822021484 0.5004135370254517 192.3295288085938 0.5004279613494873 192.1412048339844 C 0.5079262256622314 192.0940399169922 0.5124068260192871 192.0420837402344 0.5133240818977356 191.9848175048828 C 0.569424033164978 188.440185546875 0.8190240263938904 186.0903778076172 1.928864002227783 184.5685729980469 C 2.96161150932312 183.1524658203125 4.765685558319092 182.3298797607422 8.325207710266113 181.6644592285156 C 8.657435417175293 181.9781494140625 9.374772071838379 182.5268402099609 10.53864192962646 182.7951049804688 C 9.45209789276123 183.4735412597656 8.574704170227051 184.2787933349609 7.879844188690186 185.2315521240234 C 6.082577705383301 187.6957702636719 5.624743938446045 190.8843994140625 5.513339519500732 195.4896850585938 Z" stroke="none"/>
      <path d="M 8.182340621948242 182.20068359375 C 4.958148002624512 182.8253631591797 3.247474670410156 183.6090545654297 2.332843780517578 184.8631896972656 C 1.301163673400879 186.2778167724609 1.067764282226562 188.5485229492188 1.013254165649414 191.9928588867188 C 1.012483596801758 192.0408782958984 1.011713981628418 192.0748901367188 1.011013984680176 192.0968933105469 C 1.009638786315918 192.1403198242188 1.006054878234863 192.182373046875 1.000421524047852 192.2230834960938 C 1.000407218933105 192.3840942382812 1.00039005279541 192.5433349609375 1.000373840332031 192.6815032958984 L 1.000368118286133 192.7532196044922 C 1.322762489318848 193.138671875 2.377956390380859 194.1454010009766 5.03103494644165 194.8549957275391 C 5.172749042510986 190.4823913574219 5.68652868270874 187.3902893066406 7.475873947143555 184.9369354248047 C 8.018855094909668 184.1924133300781 8.665790557861328 183.5343170166016 9.428017616271973 182.9537963867188 C 8.876884460449219 182.7161254882812 8.464570045471191 182.4334869384766 8.182340621948242 182.20068359375 M 8.499834060668945 181.1240234375 C 8.499834060668945 181.1240234375 9.541824340820312 182.4517822265625 11.97041416168213 182.4517822265625 C 12.07107448577881 182.4517822265625 12.16845417022705 182.44873046875 12.26406383514404 182.4443969726562 C 10.7209939956665 183.1400756835938 9.317474365234375 184.10888671875 8.28382396697998 185.5261840820312 C 6.496444225311279 187.9768371582031 6.085803985595703 191.268798828125 6.000654220581055 196.1047973632812 C 1.021063804626465 195.1207275390625 0.0003442764282226562 193.0657958984375 0.0003442764282226562 193.0657958984375 C 0.0003442764282226562 192.7979736328125 0.0005741119384765625 191.3841247558594 0.0003442764282226562 191.258544921875 C 0.002343177795410156 191.3028411865234 0.005747795104980469 192.4540557861328 0.01338386535644531 191.976806640625 C 0.1306037902832031 184.5702819824219 1.098004341125488 182.4599914550781 8.499834060668945 181.1240234375 Z" stroke="none" fill="#fff"/>
    </g>
  </g>
</svg>
