<svg xmlns="http://www.w3.org/2000/svg" width="56.99" height="56.99" viewBox="0 0 56.99 56.99"><defs><style>.a{fill:#8e2520;}.b{fill:#cb9118;}</style></defs><path class="a" d="M404.463,271.476a10.475,10.475,0,0,0,10.463-10.463v-19.2a10.463,10.463,0,1,0-20.926,0v19.2a10.475,10.475,0,0,0,10.463,10.463Zm0-37.9a8.246,8.246,0,0,1,8.237,8.237v9.2H396.226v-9.2a8.246,8.246,0,0,1,8.237-8.237Zm-8.237,19.662H412.7v7.779a8.237,8.237,0,1,1-16.473,0Zm0,0" transform="translate(-375.968 -231.346)"/><path class="a" d="M442.847,322.623h5.417a1.113,1.113,0,1,0,0-2.226h-5.417a1.113,1.113,0,0,0,0,2.226Zm0,0" transform="translate(-417.06 -308.007)"/><path class="a" d="M442.847,292.807h5.417a1.113,1.113,0,1,0,0-2.226h-5.417a1.113,1.113,0,0,0,0,2.226Zm0,0" transform="translate(-417.06 -282.339)"/><path class="a" d="M388.388,436.573a1.113,1.113,0,0,0-1.113,1.113,13.138,13.138,0,0,1-26.276,0,1.113,1.113,0,1,0-2.226,0,15.39,15.39,0,0,0,12.082,15.01v5.627h-.087A5.579,5.579,0,0,0,365.2,463.9a1.113,1.113,0,0,0,1.113,1.113h15.657a1.113,1.113,0,0,0,1.113-1.113,5.579,5.579,0,0,0-5.572-5.573h-.087V452.7a15.39,15.39,0,0,0,12.082-15.01,1.113,1.113,0,0,0-1.113-1.113Zm-7.726,26.21H367.612a3.352,3.352,0,0,1,3.156-2.233h6.739a3.351,3.351,0,0,1,3.155,2.233Zm-5.47-4.459h-2.112v-5.31c.349.024.7.037,1.056.037s.707-.013,1.056-.037Zm0,0" transform="translate(-345.642 -408.019)"/><path class="b" d="M297.511,306.073a1.113,1.113,0,0,0-1.113,1.113v10.865a1.113,1.113,0,0,0,2.226,0V307.186a1.113,1.113,0,0,0-1.113-1.113Zm0,0" transform="translate(-291.946 -295.676)"/><path class="b" d="M361.511,333.589a1.113,1.113,0,0,0,1.113-1.113v-5.3a1.113,1.113,0,1,0-2.226,0v5.3a1.113,1.113,0,0,0,1.113,1.113Zm0,0" transform="translate(-347.041 -312.883)"/><path class="b" d="M265.511,274.545a1.113,1.113,0,0,0-1.113,1.113v18.514a1.113,1.113,0,1,0,2.226,0V275.658a1.113,1.113,0,0,0-1.113-1.113Zm0,0" transform="translate(-264.398 -268.535)"/><path class="b" d="M329.511,298a1.113,1.113,0,0,0-1.113,1.113v15.045a1.113,1.113,0,1,0,2.226,0V299.112A1.113,1.113,0,0,0,329.511,298Zm0,0" transform="translate(-319.493 -288.725)"/><path class="b" d="M627.113,306.073A1.112,1.112,0,0,0,626,307.186v10.865a1.113,1.113,0,1,0,2.226,0V307.186a1.113,1.113,0,0,0-1.113-1.113Zm0,0" transform="translate(-575.689 -295.676)"/><path class="b" d="M563.113,333.589a1.113,1.113,0,0,0,1.113-1.113v-5.3a1.113,1.113,0,1,0-2.226,0v5.3a1.113,1.113,0,0,0,1.113,1.113Zm0,0" transform="translate(-520.593 -312.883)"/><path class="b" d="M659.113,274.545A1.113,1.113,0,0,0,658,275.658v18.514a1.113,1.113,0,1,0,2.226,0V275.658a1.113,1.113,0,0,0-1.113-1.113Zm0,0" transform="translate(-603.236 -268.535)"/><path class="b" d="M595.113,406.135a1.113,1.113,0,1,0,.787.326,1.119,1.119,0,0,0-.787-.326Zm0,0" transform="translate(-548.141 -381.816)"/><path class="b" d="M595.113,298A1.113,1.113,0,0,0,594,299.112v10.319a1.113,1.113,0,1,0,2.226,0V299.112A1.113,1.113,0,0,0,595.113,298Zm0,0" transform="translate(-548.141 -288.725)"/><path class="b" d="M462.312,443.47a5.791,5.791,0,0,0,5.785-5.784,1.113,1.113,0,1,0-2.226,0,3.563,3.563,0,0,1-3.559,3.558,1.113,1.113,0,0,0,0,2.226Zm0,0" transform="translate(-433.817 -408.019)"/><path class="b" d="M495.886,411.174a1.114,1.114,0,1,0-.786-.326,1.124,1.124,0,0,0,.786.326Zm0,0" transform="translate(-462.72 -384.237)"/></svg>