<svg xmlns="http://www.w3.org/2000/svg" width="23.524" height="25.547" viewBox="0 0 23.524 25.547"><defs><style>.a,.b,.c{fill:none;}.a{stroke:#8e2520;}.a,.b{stroke-width:2px;}.b{stroke:#cb9118;}.d,.e{stroke:none;}.e{fill:#cb9118;}</style></defs><g transform="translate(1 0.409)"><path class="a" d="M8.442,0H11.1a.8.8,0,0,1,.8.8V6.381h2.914a.663.663,0,0,1,.469,1.133l-5.055,5.058a.644.644,0,0,1-.907,0L4.258,7.514a.663.663,0,0,1,.469-1.133H7.645V.8A.8.8,0,0,1,8.442,0Z" transform="translate(20.529 13.45) rotate(180)"/><path class="b" d="M21.524,17.991V22.7a1.007,1.007,0,0,1-1.009,1.009H1.009A1.007,1.007,0,0,1,0,22.7V17.991a1.007,1.007,0,0,1,1.009-1.009H7.176l2.06,2.06a2.154,2.154,0,0,0,3.052,0l2.06-2.06h6.167A1.007,1.007,0,0,1,21.524,17.991Z" transform="translate(0 0.43)"/><g class="c" transform="translate(-1.288 -0.142)"><path class="d" d="M18.471,22.261a.841.841,0,1,0-.841.841A.843.843,0,0,0,18.471,22.261Zm2.69,0a.841.841,0,1,0-.841.841A.843.843,0,0,0,21.161,22.261Z"/><path class="e" d="M 17.62985229492188 21.42054557800293 C 18.09228134155273 21.42054557800293 18.47063064575195 21.79889678955078 18.47063064575195 22.26132583618164 C 18.47063064575195 22.7237548828125 18.09228134155273 23.10210609436035 17.62985229492188 23.10210609436035 C 17.16743087768555 23.10210609436035 16.78908157348633 22.7237548828125 16.78908157348633 22.26132583618164 C 16.78908157348633 21.79889678955078 17.16743087768555 21.42054557800293 17.62985229492188 21.42054557800293 Z M 20.32035064697266 21.42054557800293 C 20.78277206420898 21.42054557800293 21.1611213684082 21.79889678955078 21.1611213684082 22.26132583618164 C 21.1611213684082 22.7237548828125 20.78277206420898 23.10210609436035 20.32035064697266 23.10210609436035 C 19.8579216003418 23.10210609436035 19.47957229614258 22.7237548828125 19.47957229614258 22.26132583618164 C 19.47957229614258 21.79889678955078 19.8579216003418 21.42054557800293 20.32035064697266 21.42054557800293 Z"/></g></g></svg>