<svg xmlns="http://www.w3.org/2000/svg" width="57.241" height="57.241" viewBox="0 0 57.241 57.241"><defs><style>.a{fill:#cb9118;}.b{fill:#8e2520;}</style></defs><path class="a" d="M675.206,407.772a.958.958,0,0,0,.852.521.945.945,0,0,0,.432-.1,81.958,81.958,0,0,1,8.441-3.756.954.954,0,0,0-.576-1.82,81.9,81.9,0,0,0-8.731,3.876.955.955,0,0,0-.418,1.283Zm0,0" transform="translate(-642.667 -380.626)"/><path class="a" d="M676.058,326.373a.952.952,0,0,0,.432-.1,81.838,81.838,0,0,1,8.441-3.756.955.955,0,0,0-.576-1.82,81.828,81.828,0,0,0-8.731,3.876.954.954,0,0,0,.434,1.8Zm0,0" transform="translate(-642.667 -310.154)"/><path class="b" d="M499.287,259.865a.954.954,0,0,0-.954.954v37.206a2.865,2.865,0,0,1-2.862,2.862h-22.9v-2.2a28.117,28.117,0,0,1,8.586-1.621,49.2,49.2,0,0,1,14.01,1.859.954.954,0,0,0,1.254-.906V256.05a.953.953,0,0,0-.747-.931s-.748-.167-2.026-.4a.954.954,0,0,0-.346,1.877c.487.09.9.169,1.211.231v39.934a53.854,53.854,0,0,0-13.357-1.595,29.965,29.965,0,0,0-9.5,1.828,22.342,22.342,0,0,0-8.623-1.828,64.289,64.289,0,0,0-14.31,1.635v-40.01a62.794,62.794,0,0,1,14.31-1.692,20.691,20.691,0,0,1,7.632,1.572V294.21a.954.954,0,0,0,1.445.817c.095-.056,9.547-5.7,17.936-8.5a.954.954,0,0,0,.652-.906V246.509a.955.955,0,0,0-1.29-.894,101.5,101.5,0,0,0-15.434,7.717.954.954,0,0,0,1.012,1.618,101.851,101.851,0,0,1,13.8-7.046v37.037a106.889,106.889,0,0,0-16.218,7.612v-36.5a.955.955,0,0,0-.527-.854,22.089,22.089,0,0,0-9.013-2.008,61.95,61.95,0,0,0-15.527,1.945.954.954,0,0,0-.692.917v41.976a.954.954,0,0,0,.954.954.947.947,0,0,0,.261-.037,61.282,61.282,0,0,1,15-1.871,20.639,20.639,0,0,1,7.632,1.573v2.243h-22.9a2.865,2.865,0,0,1-2.862-2.862V260.82a.954.954,0,1,0-1.908,0v37.206a4.775,4.775,0,0,0,4.77,4.77h47.7a4.776,4.776,0,0,0,4.77-4.77V260.82a.954.954,0,0,0-.954-.954Zm0,0" transform="translate(-443 -245.555)"/><path class="a" d="M675.206,366.812a.955.955,0,0,0,1.284.417,81.807,81.807,0,0,1,8.441-3.756.954.954,0,0,0-.576-1.82,81.883,81.883,0,0,0-8.731,3.876.955.955,0,0,0-.418,1.283Zm0,0" transform="translate(-642.667 -345.391)"/><path class="a" d="M675.206,448.73a.954.954,0,0,0,1.284.417,81.858,81.858,0,0,1,8.441-3.756.955.955,0,0,0-.576-1.82,81.825,81.825,0,0,0-8.731,3.876.954.954,0,0,0-.418,1.283Zm0,0" transform="translate(-642.667 -415.861)"/><path class="a" d="M524.839,369c-5.891-1.382-12.585.379-12.867.454a.954.954,0,0,0,.246,1.876.967.967,0,0,0,.248-.032c.064-.018,6.509-1.714,11.938-.44a.954.954,0,1,0,.435-1.858Zm0,0" transform="translate(-501.725 -351.293)"/><path class="a" d="M524.839,409.961c-5.891-1.381-12.585.379-12.867.454a.954.954,0,1,0,.494,1.843c.064-.018,6.509-1.713,11.938-.44a.954.954,0,1,0,.435-1.858Zm0,0" transform="translate(-501.725 -386.532)"/><path class="a" d="M675.206,489.691a.956.956,0,0,0,1.284.417,81.95,81.95,0,0,1,8.441-3.756.954.954,0,0,0-.576-1.82,81.828,81.828,0,0,0-8.731,3.876.954.954,0,0,0-.418,1.283Zm0,0" transform="translate(-642.667 -451.098)"/><path class="a" d="M524.839,450.919c-5.891-1.382-12.585.378-12.867.454a.955.955,0,0,0,.246,1.876.976.976,0,0,0,.248-.033c.064-.018,6.509-1.714,11.938-.44a.954.954,0,1,0,.435-1.857Zm0,0" transform="translate(-501.725 -421.766)"/><path class="a" d="M524.839,532.838c-5.891-1.382-12.585.379-12.867.454a.955.955,0,0,0,.246,1.877.972.972,0,0,0,.248-.033c.064-.019,6.509-1.714,11.938-.44a.954.954,0,1,0,.435-1.858Zm0,0" transform="translate(-501.725 -492.237)"/><path class="a" d="M524.839,491.878c-5.891-1.383-12.585.378-12.867.454a.955.955,0,0,0,.246,1.876.974.974,0,0,0,.248-.033c.064-.018,6.509-1.714,11.938-.44a.954.954,0,1,0,.435-1.857Zm0,0" transform="translate(-501.725 -457)"/></svg>