<svg xmlns="http://www.w3.org/2000/svg" width="17.496" height="17.497" viewBox="0 0 17.496 17.497"><defs><style>.a{fill:#8e2520;}</style></defs><g transform="translate(0)"><path class="a" d="M17.337,16.545,12.819,12.1a7.145,7.145,0,0,0,1.91-4.855A7.3,7.3,0,0,0,7.367,0,7.3,7.3,0,0,0,.006,7.244a7.3,7.3,0,0,0,7.361,7.244A7.4,7.4,0,0,0,12,12.871l4.535,4.463a.572.572,0,0,0,.8,0A.552.552,0,0,0,17.337,16.545ZM7.367,13.374a6.18,6.18,0,0,1-6.229-6.13,6.18,6.18,0,0,1,6.229-6.13A6.18,6.18,0,0,1,13.6,7.244,6.18,6.18,0,0,1,7.367,13.374Z" transform="translate(-0.006)"/></g></svg>