<svg xmlns="http://www.w3.org/2000/svg" width="47.79" height="47.79" viewBox="0 0 47.79 47.79"><defs><style>.a{fill:#cb9118;}.b{fill:#8e2520;}</style></defs><g transform="translate(-719 17)"><path class="a" d="M827.734,174.867a1.867,1.867,0,1,1-3.734,0h0a1.867,1.867,0,1,1,3.734,0Z" transform="translate(-95.199 -172.265)"/><path class="b" d="M1001.734,174.867h0a1.867,1.867,0,0,0-3.734,0h0a1.867,1.867,0,0,0,3.734,0Z" transform="translate(-252.958 -172.265)"/><path class="b" d="M1088.734,174.867h0a1.867,1.867,0,0,0-3.734,0h0a1.867,1.867,0,1,0,3.734,0Z" transform="translate(-331.838 -172.265)"/><path class="b" d="M827.734,261.867a1.867,1.867,0,1,0-3.734,0h0a1.867,1.867,0,1,0,3.734,0Z" transform="translate(-95.199 -251.145)"/><path class="a" d="M825.867,347A1.867,1.867,0,0,0,824,348.867h0a1.867,1.867,0,1,0,3.734,0h0A1.867,1.867,0,0,0,825.867,347Z" transform="translate(-95.199 -330.024)"/><path class="b" d="M914.734,174.867a1.867,1.867,0,1,0-3.733,0h0a1.867,1.867,0,1,0,3.733,0Z" transform="translate(-174.079 -172.265)"/><path class="b" d="M914.734,261.867a1.867,1.867,0,1,0-3.733,0h0a1.867,1.867,0,1,0,3.733,0Z" transform="translate(-174.079 -251.145)"/><path class="b" d="M912.867,347A1.867,1.867,0,0,0,911,348.867h0a1.867,1.867,0,1,0,3.733,0h0A1.867,1.867,0,0,0,912.867,347Z" transform="translate(-174.079 -330.024)"/><path class="a" d="M1000.294,253a11.294,11.294,0,1,0,11.294,11.294A11.307,11.307,0,0,0,1000.294,253Zm0,18.855a7.561,7.561,0,1,1,7.561-7.561A7.569,7.569,0,0,1,1000.294,271.855Z" transform="translate(-244.798 -244.798)"/><path class="a" d="M1094.574,316.827h-.84v-1.96a1.867,1.867,0,1,0-3.733,0v3.827a1.867,1.867,0,0,0,1.867,1.867h2.707a1.867,1.867,0,0,0,0-3.734Z" transform="translate(-336.371 -299.198)"/><path class="b" d="M759.323-13.266H756.9v-1.867A1.867,1.867,0,0,0,755.029-17a1.867,1.867,0,0,0-1.867,1.867v1.867h-8.494v-1.867A1.867,1.867,0,0,0,742.8-17a1.867,1.867,0,0,0-1.867,1.867v1.867h-8.4v-1.867A1.867,1.867,0,0,0,730.667-17a1.867,1.867,0,0,0-1.867,1.867v1.867h-2.334A7.476,7.476,0,0,0,719-5.8V23.323a7.476,7.476,0,0,0,7.467,7.467h14.281a1.867,1.867,0,0,0,0-3.734H726.467a3.738,3.738,0,0,1-3.734-3.734V-5.8a3.738,3.738,0,0,1,3.734-3.734H728.8v1.867A1.867,1.867,0,0,0,730.667-5.8a1.867,1.867,0,0,0,1.867-1.867V-9.533h8.4v1.867A1.867,1.867,0,0,0,742.8-5.8a1.867,1.867,0,0,0,1.867-1.867V-9.533h8.494v1.867A1.867,1.867,0,0,0,755.029-5.8,1.867,1.867,0,0,0,756.9-7.666V-9.533h2.427A3.738,3.738,0,0,1,763.056-5.8V4.841a1.867,1.867,0,1,0,3.734,0V-5.8A7.476,7.476,0,0,0,759.323-13.266Z"/></g></svg>