<?xml version="1.0" encoding="utf-8"?>
<!-- Generator: Adobe Illustrator 21.0.2, SVG Export Plug-In . SVG Version: 6.00 Build 0)  -->
<svg version="1.1" id="Layer_1" xmlns="http://www.w3.org/2000/svg" xmlns:xlink="http://www.w3.org/1999/xlink" x="0px" y="0px"
	 viewBox="0 0 11.2 17.5" style="enable-background:new 0 0 11.2 17.5;" xml:space="preserve">
<style type="text/css">
	.st0{fill:#C44B4B;}
</style>
<g id="Group_19038" transform="translate(-16.805 -12.854)">
	<path id="Path_11861" class="st0" d="M28,21.9c0-0.3-0.3-0.6-0.6-0.6c-0.3,0-0.6,0.3-0.6,0.6c0,2.4-2,4.3-4.4,4.3
		c-2.4,0-4.3-1.9-4.3-4.3c0-0.3-0.3-0.6-0.6-0.6c-0.3,0-0.6,0.3-0.6,0.6c0,2.9,2.1,5.3,5,5.6v1.6h-2.2c-0.3,0-0.6,0.3-0.6,0.6
		c0,0.3,0.3,0.6,0.6,0.6h5.7c0.3,0,0.6-0.3,0.6-0.6c0-0.3-0.3-0.6-0.6-0.6H23v-1.6C25.9,27.1,28,24.7,28,21.9z"/>
	<path id="Path_11862" class="st0" d="M22.4,25.3c1.9,0,3.4-1.5,3.4-3.4v-5.6c0-1.9-1.5-3.5-3.4-3.5c-1.9,0-3.5,1.5-3.5,3.4
		c0,0,0,0.1,0,0.1v5.6C19,23.8,20.5,25.3,22.4,25.3z"/>
</g>
</svg>
