<svg xmlns="http://www.w3.org/2000/svg" width="11.195" height="17.492" viewBox="0 0 11.195 17.492">
  <g id="Group_19038" data-name="Group 19038" transform="translate(-16.805 -12.854)">
    <path id="Path_11861" data-name="Path 11861" d="M128.931,247.425a.617.617,0,0,0-1.235,0,4.363,4.363,0,0,1-8.725,0,.617.617,0,0,0-1.235,0,5.6,5.6,0,0,0,4.98,5.577v1.646h-2.243a.617.617,0,0,0,0,1.235h5.721a.617.617,0,1,0,0-1.235h-2.243V253A5.6,5.6,0,0,0,128.931,247.425Z" transform="translate(-100.931 -225.537)" fill="#3a3a3a"/>
    <path id="Path_11862" data-name="Path 11862" d="M174.933,49.87a3.443,3.443,0,0,0,3.437-3.437v-5.6a3.437,3.437,0,1,0-6.873,0v5.577A3.46,3.46,0,0,0,174.933,49.87Z" transform="translate(-152.53 -24.546)" fill="#3a3a3a"/>
  </g>
</svg>
