<svg xmlns="http://www.w3.org/2000/svg" width="27.438" height="27.438" viewBox="0 0 27.438 27.438"><defs><style>.a{fill:#cb9118;}.b{fill:#8e2520;}</style></defs><path class="a" d="M675.152,405.062a.459.459,0,0,0,.408.25.453.453,0,0,0,.207-.05,39.294,39.294,0,0,1,4.046-1.8.458.458,0,0,0-.276-.872,39.251,39.251,0,0,0-4.185,1.858.458.458,0,0,0-.2.615Zm0,0" transform="translate(-659.554 -392.05)"/><path class="a" d="M675.56,323.392a.456.456,0,0,0,.207-.05,39.236,39.236,0,0,1,4.046-1.8.458.458,0,0,0-.276-.873,39.225,39.225,0,0,0-4.185,1.858.457.457,0,0,0,.208.865Zm0,0" transform="translate(-659.554 -315.618)"/><path class="b" d="M469.981,252.415a.457.457,0,0,0-.457.457v17.835a1.373,1.373,0,0,1-1.372,1.372H457.176v-1.052a13.477,13.477,0,0,1,4.115-.777,23.584,23.584,0,0,1,6.716.891.457.457,0,0,0,.6-.434V250.586a.457.457,0,0,0-.358-.446s-.358-.08-.971-.193a.457.457,0,0,0-.166.9c.234.043.429.081.58.111V270.1a25.815,25.815,0,0,0-6.4-.764,14.364,14.364,0,0,0-4.555.876,10.71,10.71,0,0,0-4.134-.876,30.816,30.816,0,0,0-6.859.784V250.939a30.1,30.1,0,0,1,6.859-.811,9.918,9.918,0,0,1,3.658.754v18a.457.457,0,0,0,.693.392,52.346,52.346,0,0,1,8.6-4.073.457.457,0,0,0,.313-.434V246.012a.458.458,0,0,0-.618-.428,48.657,48.657,0,0,0-7.4,3.7.457.457,0,0,0,.485.776,48.819,48.819,0,0,1,6.617-3.378v17.753a51.236,51.236,0,0,0-7.774,3.649v-17.5a.458.458,0,0,0-.253-.409,10.589,10.589,0,0,0-4.32-.963,29.694,29.694,0,0,0-7.443.932.457.457,0,0,0-.332.44v20.121a.457.457,0,0,0,.457.457.455.455,0,0,0,.125-.018,29.376,29.376,0,0,1,7.191-.9,9.893,9.893,0,0,1,3.658.754v1.075H445.286a1.373,1.373,0,0,1-1.372-1.372V252.872a.457.457,0,1,0-.915,0v17.835a2.289,2.289,0,0,0,2.286,2.287h22.865a2.289,2.289,0,0,0,2.286-2.287V252.872a.457.457,0,0,0-.457-.457Zm0,0" transform="translate(-443 -245.555)"/><path class="a" d="M675.152,364.1a.458.458,0,0,0,.615.2,39.219,39.219,0,0,1,4.046-1.8.458.458,0,0,0-.276-.872,39.257,39.257,0,0,0-4.185,1.858.458.458,0,0,0-.2.615Zm0,0" transform="translate(-659.554 -353.835)"/><path class="a" d="M675.152,446.021a.457.457,0,0,0,.615.2,39.256,39.256,0,0,1,4.046-1.8.458.458,0,0,0-.276-.873,39.225,39.225,0,0,0-4.185,1.858.457.457,0,0,0-.2.615Zm0,0" transform="translate(-659.554 -430.265)"/><path class="a" d="M517.772,368.723a14.517,14.517,0,0,0-6.168.218.457.457,0,0,0,.118.9.464.464,0,0,0,.119-.015,13.778,13.778,0,0,1,5.722-.211.457.457,0,1,0,.209-.891Zm0,0" transform="translate(-506.693 -360.236)"/><path class="a" d="M517.772,409.687a14.526,14.526,0,0,0-6.168.218.457.457,0,1,0,.237.883,13.784,13.784,0,0,1,5.722-.211.457.457,0,1,0,.209-.891Zm0,0" transform="translate(-506.693 -398.456)"/><path class="a" d="M675.152,486.982a.458.458,0,0,0,.615.2,39.306,39.306,0,0,1,4.046-1.8.458.458,0,0,0-.276-.872,39.217,39.217,0,0,0-4.185,1.858.457.457,0,0,0-.2.615Zm0,0" transform="translate(-659.554 -468.482)"/><path class="a" d="M517.772,450.645a14.512,14.512,0,0,0-6.168.218.458.458,0,0,0,.118.9.467.467,0,0,0,.119-.016,13.782,13.782,0,0,1,5.722-.211.457.457,0,1,0,.209-.89Zm0,0" transform="translate(-506.693 -436.67)"/><path class="a" d="M517.772,532.563a14.517,14.517,0,0,0-6.168.218.458.458,0,0,0,.118.9.468.468,0,0,0,.119-.016,13.777,13.777,0,0,1,5.722-.211.457.457,0,1,0,.209-.89Zm0,0" transform="translate(-506.693 -513.101)"/><path class="a" d="M517.772,491.6a14.5,14.5,0,0,0-6.168.218.458.458,0,0,0,.118.9.467.467,0,0,0,.119-.016,13.782,13.782,0,0,1,5.722-.211.457.457,0,1,0,.209-.89Zm0,0" transform="translate(-506.693 -474.885)"/></svg>