<?xml version="1.0" encoding="utf-8"?>
<!-- Generator: Adobe Illustrator 21.0.2, SVG Export Plug-In . SVG Version: 6.00 Build 0)  -->
<svg version="1.1" id="Layer_1" xmlns="http://www.w3.org/2000/svg" xmlns:xlink="http://www.w3.org/1999/xlink" x="0px" y="0px"
	 viewBox="0 0 595 72.3" style="enable-background:new 0 0 595 72.3;" xml:space="preserve">
<style type="text/css">
	.st0{opacity:0.5;}
	.st1{fill:#CB9118;}
</style>
<g id="Group_18161" transform="translate(51.279 -195.705)" class="st0">
	<path id="Path_38" class="st1" d="M403.5,230.5l-7.1-7.2c5.2-5.2,10.6-10.4,15.9-15.7c3.1-3,6-6.1,9.2-9.1c0.8-0.7,1.8-1.1,2.8-1.2
		c30-0.1,59.9-0.1,89.9,0c0.8,0,1.6,0.2,2.3,0.7c3.7,3.5,7.2,7.1,10.8,10.6l-7.4,7c-2.1-2.2-4.4-4.7-6.9-7.1
		c-0.8-0.8-1.9-1.2-3.1-1.3c-27.2-0.1-54.4-0.1-81.5,0c-1.2,0.1-2.4,0.6-3.2,1.4C418,215.8,410.8,223.1,403.5,230.5z"/>
	<path id="Path_39" class="st1" d="M229.8,208.6l-7,7.2c-2.4-2.4-4.6-4.9-7.1-7.2c-0.9-0.8-2.1-1.3-3.3-1.3
		c-27.1-0.1-54.2-0.1-81.3,0c-1.2,0.1-2.4,0.5-3.3,1.4c-5.9,5.8-11.7,11.7-17.6,17.5c-1.4,1.4-3,2.7-4.6,4.1l-6.9-6.9
		c8.5-8.3,17-16.7,25.5-25c0.7-0.6,1.5-0.9,2.4-0.9c19.3,0,38.7,0,58,0c10.5,0,20.9-0.1,31.4,0.1c1.4,0.1,2.8,0.7,3.9,1.6
		C223.4,202.1,226.5,205.4,229.8,208.6z"/>
	<path id="Path_40" class="st1" d="M247.9,223.2c8.2-8.2,16.7-16.6,25.1-24.9c0.7-0.6,1.6-0.9,2.5-0.9c27.8,0,55.5,0.3,83.3-0.2
		c6.6-0.1,11,1.8,14.9,6.6c1.6,1.7,3.2,3.3,5,4.8l-7.6,7c-2-2.1-4.1-4.6-6.5-6.8c-1-0.9-2.3-1.5-3.7-1.6
		c-26.8-0.1-53.7-0.1-80.5-0.1c-1.7-0.1-3.3,0.6-4.4,1.9c-7.1,7.2-14.3,14.3-21.5,21.4L247.9,223.2z"/>
	<path id="Path_41" class="st1" d="M80.7,208.8l-6.8,6.5c-1.8-1.8-3.7-3.6-5.4-5.7c-1.2-1.7-3.1-2.6-5.1-2.6
		c-26.8,0.1-53.5,0.1-80.3,0c-1.7-0.1-3.3,0.6-4.4,1.8c-7.1,7.2-14.3,14.3-21.5,21.5l-6.8-7.3c4.5-4.4,9.4-9.2,14.2-14
		c3.5-3.4,6.9-7,10.4-10.3c0.9-0.8,2-1.3,3.2-1.4c26.1-0.1,52.2-0.1,78.3,0c3.8,0,7.5,0,11.3,0c0.8-0.1,1.6,0.2,2.3,0.6
		c3,2.8,5.9,5.7,8.8,8.6C79.5,207.3,80.1,208,80.7,208.8z"/>
	<path id="Path_42" class="st1" d="M-35,255.3l7.4-7c2.1,2.2,4.3,4.7,6.7,6.9c1,0.9,2.3,1.5,3.7,1.6c26.8,0.1,53.5,0.1,80.3,0.1
		c1.7,0.1,3.3-0.6,4.4-1.8c6.4-6.5,12.9-12.9,19.3-19.4c0.6-0.7,1.2-1.5,1.8-2.3l7.3,7.3c-5.3,5.3-10.8,10.7-16.3,16.2
		c-2.8,2.8-5.6,5.7-8.5,8.4c-0.8,0.8-1.9,1.2-3,1.3c-29.9,0.1-59.8,0.1-89.7,0c-1,0-1.9-0.3-2.7-0.9C-28,262.3-31.5,258.8-35,255.3z
		"/>
	<path id="Path_43" class="st1" d="M386.4,233.4l7.2,7c-2.9,2.9-5.8,5.6-8.7,8.5c-5.3,5.3-10.6,10.7-16,15.9c-1.1,1-2.4,1.6-3.9,1.7
		c-12.7,0.1-25.3,0.1-38,0.1c-16.5,0-33.1-0.1-49.6,0c-2.3,0.1-4.6-0.8-6.2-2.6c-2.8-3-5.9-5.8-8.9-8.7l7.6-7c2,2.1,4.2,4.7,6.7,7
		c1,0.9,2.3,1.4,3.7,1.5c8.4,0.1,16.7,0.1,25.1,0.1c18.4,0,36.8,0,55.1,0c1.7,0.1,3.3-0.6,4.4-1.8
		C372,247.8,379.2,240.7,386.4,233.4z"/>
	<path id="Path_44" class="st1" d="M411.4,255.3l6.9-7.2c2.4,2.5,4.7,5,7.1,7.3c0.9,0.8,2.1,1.3,3.3,1.4c27,0.1,54.1,0.1,81.1,0
		c1.4-0.1,2.7-0.7,3.7-1.6c7.3-7.1,14.5-14.4,21.7-21.5l7,6.9c-4.7,4.7-9.5,9.4-14.3,14.2c-3.5,3.5-7,7.1-10.6,10.5
		c-0.8,0.8-1.9,1.2-3,1.3c-29.9,0.1-59.8,0.1-89.7,0c-1,0-1.9-0.3-2.7-0.9C418.3,262.3,414.8,258.7,411.4,255.3z"/>
	<path id="Path_45" class="st1" d="M237.6,233.5l7.2,6.9c-5.1,5-10.1,10-15.1,15c-3.3,3.3-6.5,6.6-9.9,9.8c-0.8,0.8-1.9,1.2-3,1.3
		c-29.9,0.1-59.8,0.1-89.6,0c-0.9,0.1-1.8-0.2-2.5-0.7c-3.7-3.5-7.2-7-10.8-10.6l7.2-7.2c2.1,2.2,4.3,4.5,6.4,6.9
		c1,1.3,2.5,1.9,4.1,1.9c26.9,0,53.8,0,80.8-0.1c1.3-0.1,2.5-0.6,3.5-1.5C223.1,248.1,230.3,240.8,237.6,233.5z"/>
	<path id="Path_46" class="st1" d="M-13.4,230.3l-6.5-6.9c1.8-1.8,3.8-3.8,5.9-5.7c0.7-0.4,1.5-0.6,2.4-0.5c8.4,0,16.7-0.1,25.1,0
		c1.2,0.1,2.4,0.6,3.2,1.4c5.7,5.5,11.2,11.2,16.9,16.7c1.1,1,2.5,1.5,3.9,1.6c4,0.2,7.9,0,11.9,0.1c3.8,0.1,7.7,0.6,9.9-3.8l7,7.5
		c-1.8,1.7-3.9,3.7-6,5.6c-0.6,0.4-1.4,0.5-2.1,0.5c-8.4,0-16.9,0.1-25.3-0.1c-1.2-0.1-2.4-0.6-3.2-1.4
		c-5.7-5.5-11.2-11.2-16.9-16.7c-1-0.9-2.3-1.4-3.7-1.5c-5.1-0.2-10.1,0.1-15.2-0.1c-2.5-0.1-4.4,0.3-5.9,2.4
		C-12.6,229.7-13,230-13.4,230.3z"/>
	<path id="Path_47" class="st1" d="M363.7,240.6c-1.8,1.7-3.6,3.5-5.5,5.2c-0.7,0.6-1.5,0.9-2.4,0.9c-8.6,0.1-17.2,0.1-25.8,0
		c-1.1-0.1-2.2-0.6-3-1.4c-5.7-5.5-11.2-11.2-16.9-16.7c-1-0.9-2.3-1.4-3.7-1.5c-4.5-0.2-8.9,0.1-13.4-0.1c-3.4-0.1-6.6,0-8.6,4.2
		c-2.2-2.3-4.1-4.1-5.8-6.2c-0.4-0.9-0.2-2,0.3-2.8c1.2-1.5,2.6-2.9,4.1-4.1c0.7-0.5,1.6-0.8,2.5-0.8c8.4-0.1,16.9-0.1,25.3,0
		c1.2,0.1,2.4,0.6,3.2,1.5c5.7,5.6,11.3,11.3,17.1,16.9c1,0.8,2.2,1.3,3.5,1.4c4,0.2,7.9,0.1,11.9,0.1c3.8,0,8,1,10-3.9L363.7,240.6
		z"/>
	<path id="Path_48" class="st1" d="M505.5,233.6l7,7.1c-1.9,1.7-3.8,3.7-6,5.4c-0.8,0.5-1.7,0.7-2.6,0.6c-8.4,0-16.9,0.1-25.3-0.1
		c-1.1-0.1-2.2-0.7-3-1.5c-5.6-5.5-11.1-11.1-16.7-16.6c-1.1-0.9-2.5-1.5-3.9-1.6c-4-0.2-8.1,0-12.2-0.1c-3.7,0-7.6-0.6-9.6,3.7
		l-7.1-7.3c1.8-1.7,3.7-3.7,5.7-5.4c0.7-0.5,1.6-0.8,2.5-0.8c8.4-0.1,16.7-0.1,25.1,0c1.2,0.1,2.4,0.6,3.3,1.4
		c5.8,5.6,11.3,11.3,17.1,16.9c1,0.9,2.2,1.4,3.5,1.5c5.1,0.2,10.1,0,15.2,0.1c2.4,0.1,4.3-0.4,5.7-2.4
		C504.6,234.3,505.1,233.9,505.5,233.6z"/>
	<path id="Path_49" class="st1" d="M214.7,240.9c-1.7,1.6-3.6,3.5-5.7,5.3c-0.6,0.4-1.4,0.6-2.1,0.5c-8.5,0-17.1,0.1-25.6,0
		c-1.1-0.1-2.2-0.6-3-1.4c-5.5-5.4-10.9-10.8-16.3-16.3c-1.3-1.5-3.1-2.2-5.1-2.2c-4.6,0.1-9.3,0.3-13.9,0c-3.4-0.2-5.6,1.2-7.4,3.8
		l-6.8-7c1.9-1.9,3.9-4,6-6c0.7-0.4,1.4-0.5,2.1-0.4c8.4,0,16.7-0.1,25.1,0c1.1,0.1,2.2,0.5,3,1.3c5.6,5.5,11.2,11,16.7,16.6
		c1.2,1.4,3,2.1,4.9,2c4-0.1,8.1-0.1,12.2,0c3.5,0.1,7.1,0.4,8.8-3.6L214.7,240.9z"/>
	<path id="Path_50" class="st1" d="M81.1,238.5l-7,7c-4.9-4.9-9.9-9.7-14.5-14.9c-2.5-2.8-5.2-4.1-9-3.7c-3.1,0.2-6.2,0.2-9.4,0.1
		c-3.7-0.1-7.6-0.6-9.6,3.7l-7.2-7.4c1.9-1.8,3.9-3.7,6-5.5c0.7-0.5,1.5-0.7,2.3-0.6c8.4,0,16.9,0,25.3,0c0.9,0,1.8,0.2,2.5,0.8
		C67.4,224.7,74.2,231.5,81.1,238.5z"/>
	<path id="Path_51" class="st1" d="M378.5,238.4l-7.1,7.2c-5.6-5.7-11-11.4-16.7-16.9c-1.1-1-2.5-1.5-3.9-1.6
		c-4-0.2-8.1-0.1-12.2-0.1c-3.7,0-7.6-0.8-9.6,3.8l-7.2-7.7c1.8-1.6,3.8-3.6,5.9-5.3c0.7-0.5,1.5-0.7,2.3-0.7c8.4,0,16.9,0,25.3,0
		c0.9,0,1.8,0.3,2.5,0.8C364.9,224.7,371.7,231.5,378.5,238.4z"/>
	<path id="Path_52" class="st1" d="M179.9,230.3l-6.7-6.9c1.9-1.8,3.9-3.8,6-5.6c0.7-0.5,1.5-0.7,2.3-0.6c8.4,0,16.9-0.1,25.3,0
		c1,0,1.9,0.3,2.7,1c6.7,6.6,13.4,13.3,20,20c0.1,0.1,0.2,0.3,0.2,0.4l-7,6.8c-3.5-3.6-7-7.2-10.6-10.9c-2.5-2.5-4.7-5.9-7.7-7.2
		s-7-0.4-10.5-0.4c-1,0-2,0-3,0c-2,0-4.2-0.4-6,0.1C183,227.6,181.6,229.1,179.9,230.3z"/>
	<path id="Path_53" class="st1" d="M527.4,238.5l-7.2,7c-0.9-1-1.9-2.2-3-3.4c-4.5-4.6-9-9.1-13.6-13.6c-0.9-0.9-2.2-1.4-3.5-1.5
		c-5.8-0.1-11.6-0.1-17.5,0c-0.9,0.1-1.7,0.4-2.4,1c-0.8,0.9-1.6,1.8-2.3,2.8l-7.3-7.6c1.9-1.7,3.8-3.6,6-5.4
		c0.7-0.5,1.5-0.7,2.3-0.7c8.4,0,16.9,0,25.3,0c0.9,0,1.8,0.2,2.5,0.8C513.7,224.7,520.5,231.6,527.4,238.5z"/>
	<path id="Path_54" class="st1" d="M14.5,233.2l7.2,7.2c-1.9,1.9-3.8,3.8-5.8,5.5c-0.7,0.5-1.5,0.7-2.3,0.7c-8.5,0-17.1,0-25.6,0
		c-0.8,0-1.6-0.2-2.3-0.7c-6.9-6.8-13.8-13.7-20.5-20.5l7.1-7.1c2.8,3,5.8,6.1,8.9,9.3c1.9,2,4.1,3.8,5.9,6c1.9,2.5,5,3.8,8.1,3.4
		c3.5-0.3,7.1-0.3,10.6,0C9.3,237.3,12.5,237.1,14.5,233.2z"/>
	<path id="Path_55" class="st1" d="M411.2,225.4l7.2-7.1c4.2,4.3,8.7,8.4,12.6,13c3.7,4.5,8,6.5,13.8,5.7c2.2-0.2,4.4-0.2,6.6,0
		c3.7,0.2,7.4,0.4,9.4-3.7l6.8,7.5c-1.6,1.6-3.7,3.6-5.9,5.5c-0.6,0.3-1.3,0.4-1.9,0.3c-8.4,0-16.9,0-25.3,0c-0.9,0-1.8-0.2-2.5-0.7
		C424.9,239.2,418.1,232.3,411.2,225.4z"/>
	<path id="Path_56" class="st1" d="M113.7,225.5l7.2-7c2,2.1,4.2,4.4,6.4,6.7c3.4,3.4,6.7,6.9,10.2,10.2c1,0.9,2.3,1.5,3.7,1.6
		c5.1,0.2,10.3,0,15.4,0.1c2.2,0.1,3.9-0.4,5.3-2.2c0.4-0.5,0.9-0.9,1.4-1.3l7,7.1c-1.9,1.7-3.8,3.6-5.8,5.3
		c-0.7,0.5-1.5,0.7-2.3,0.7c-8.7,0-17.4,0-26.1,0c-0.7,0-1.3-0.2-1.8-0.7C127.5,239.2,120.6,232.4,113.7,225.5z"/>
	<path id="Path_57" class="st1" d="M263.1,225.2l6.1-6.9c1.2,1.4,2.3,2.7,3.4,3.8c4.7,4.8,9.5,9.6,14.3,14.2
		c0.8,0.6,1.7,0.9,2.7,0.9c5.9,0,11.7-0.1,17.6-0.3c0.9-0.1,1.7-0.5,2.4-1.1c0.8-0.9,1.5-1.9,2.2-3l7.4,7.6c-2,1.9-4,3.8-6,5.7
		c-0.4,0.3-0.8,0.5-1.3,0.6c-3.7-0.1-7.4-0.3-11.1-0.3c-3.9-0.1-7.9,0.1-11.8,0.4c-3.8,0.4-6.4-0.9-9-3.7c-5.1-5.7-10.6-11-16-16.6
		C263.7,226.1,263.4,225.7,263.1,225.2z"/>
	<path id="Path_58" class="st1" d="M395.1,195.7l12.7,13l-7,6.8l-5.5-6.7l-21.5,21.7l-6.6-7L395.1,195.7z"/>
	<path id="Path_59" class="st1" d="M267.4,233.1l6.6,7L246,268l-12.8-12.8l6.8-6.9l6,6.6L267.4,233.1z"/>
	<path id="Path_60" class="st1" d="M75.9,230.4l-6-6.3l27.9-27.7l12.5,12.6l-6.6,6.5c-1.5-1.6-3.2-3.2-4.7-5c-1.1-1.3-1.7-1.3-2.9,0
		C89.4,217.1,82.7,223.7,75.9,230.4z"/>
	<path id="Path_61" class="st1" d="M84.3,254.9l7-6.9l5.9,7.1l21.5-21.9l6.3,6.9l-27.8,27.6L84.3,254.9z"/>
	<path id="Path_62" class="st1" d="M416,233.3l6.8,7l-27.9,27.8l-13.1-13.2l6.9-6.8l5.7,7L416,233.3z"/>
	<path id="Path_63" class="st1" d="M246.4,208.7l-21.6,21.8l-6.3-6.8l27.9-27.8l12.7,13l-7,6.4L246.4,208.7z"/>
	<path id="Path_64" class="st1" d="M-51.3,267.6c0-3.9,0-7.9,0-11.8c0.1-0.7,0.4-1.4,0.9-1.9c6.7-6.8,13.4-13.6,20-20.3l6.5,6.8
		L-51.3,267.6z"/>
	<path id="Path_65" class="st1" d="M515.9,223.8l27.6-27.7c0,4.1,0,8.3,0,12.5c-0.1,0.5-0.3,1-0.6,1.3c-6.8,6.9-13.6,13.8-20.5,20.7
		L515.9,223.8z"/>
	<path id="Path_66" class="st1" d="M233.2,225.2l6.4-6.5l19.6,19.9l-6.5,6.4L233.2,225.2z"/>
	<path id="Path_67" class="st1" d="M407.9,238.9l-6.3,6.2L382,225l6.3-6.1L407.9,238.9z"/>
	<path id="Path_68" class="st1" d="M110.1,238.9l-6,6.1l-19.3-19.5l6.4-6.2L110.1,238.9z"/>
	<path id="Path_69" class="st1" d="M-45.1,245.2c-1.6-1.7-3.5-3.4-5.1-5.3c-0.6-0.7-0.9-1.5-1-2.4c-0.1-3.9,0-7.8,0-11.2l12.5,12.6
		L-45.1,245.2z"/>
	<path id="Path_70" class="st1" d="M537.6,218.6c1.7,1.8,3.5,3.7,5.3,5.7c0.4,0.5,0.6,1.1,0.7,1.8c0.1,4,0,8,0,11.8L530.7,225
		L537.6,218.6z"/>
	<path id="Path_71" class="st1" d="M-38.3,209.2l-7,6c-1.6-1.6-3.6-3.6-5.5-5.7c-0.3-0.3-0.4-0.7-0.4-1.1c0-4.1,0-8.2,0-12.2
		L-38.3,209.2z"/>
	<path id="Path_72" class="st1" d="M537.2,248.5c0.2,0.1,0.3,0.2,0.5,0.3c7.7,4.6,5.9,12.1,5.8,18.8l-12.8-12.7L537.2,248.5z"/>
</g>
</svg>
