<svg xmlns="http://www.w3.org/2000/svg" width="25.453" height="32.167" viewBox="0 0 25.453 32.167">
  <path id="Path_2544" data-name="Path 2544" d="M43,328.6a5,5,0,0,1-1.519-2.068c-1.309-2.77-1.583-6.671-1.583-9.456,0-.012,0-.024,0-.036a9.126,9.126,0,0,0-5.372-8.278v-2.177A3.585,3.585,0,0,0,30.95,303h-.3a3.584,3.584,0,0,0-3.577,3.583v2.177a9.127,9.127,0,0,0-5.373,8.314c0,2.785-.275,6.686-1.583,9.456A5,5,0,0,1,18.6,328.6a.916.916,0,0,0-.5,1.042.959.959,0,0,0,.945.737H25.95a4.852,4.852,0,0,0,9.7,0H42.56a.959.959,0,0,0,.945-.737A.917.917,0,0,0,43,328.6ZM28.96,306.583a1.7,1.7,0,0,1,1.693-1.7h.3a1.7,1.7,0,0,1,1.693,1.7v1.565a9.125,9.125,0,0,0-3.682,0Zm1.841,26.7a2.974,2.974,0,0,1-2.967-2.9h5.934a2.974,2.974,0,0,1-2.967,2.9Zm3.795-4.79H21.19a9.91,9.91,0,0,0,.494-.867c1.263-2.491,1.9-6.039,1.9-10.548a7.214,7.214,0,1,1,14.428,0c0,.012,0,.023,0,.035,0,4.49.644,8.026,1.9,10.51a9.911,9.911,0,0,0,.494.867Zm0,0" transform="translate(-18.075 -303)" fill="#fff"/>
</svg>
