<svg xmlns="http://www.w3.org/2000/svg" width="42" height="42" viewBox="0 0 42 42">
  <g id="Group_16913" data-name="Group 16913" transform="translate(-0.45 0.09)">
    <rect id="Rectangle_9" data-name="Rectangle 9" width="42" height="42" rx="12" transform="translate(0.45 -0.09)" fill="#cb9118"/>
    <path id="Path_11659" data-name="Path 11659" d="M349.907,42.344l-.548-2.191a3.182,3.182,0,0,0-2.086-2.263l-4.017-1.338c-.98-.408-1.428-1.986-1.525-2.585a3.8,3.8,0,0,0,1.342-2.468.744.744,0,0,1,.11-.47.457.457,0,0,0,.313-.274,6.823,6.823,0,0,0,.489-1.995.438.438,0,0,0-.014-.11,1.174,1.174,0,0,0-.443-.665v-2.42a2.672,2.672,0,0,0-.922-2.424c-.09-.708-.849-2.141-3.643-2.141a4.76,4.76,0,0,0-4.565,4.565v2.42a1.174,1.174,0,0,0-.443.665.438.438,0,0,0-.014.11,6.825,6.825,0,0,0,.489,2,.388.388,0,0,0,.274.262c.051.026.147.158.147.481a3.8,3.8,0,0,0,1.349,2.472c-.1.6-.541,2.175-1.494,2.573l-4.053,1.346a3.182,3.182,0,0,0-2.085,2.261l-.548,2.191a.456.456,0,0,0,.442.569h21a.457.457,0,0,0,.443-.567Z" transform="translate(-317.826 -11.045)" fill="#f4f5f7"/>
  </g>
</svg>
