<svg xmlns="http://www.w3.org/2000/svg" width="22" height="22" viewBox="0 0 22 22"><defs><style>.a{fill:#3a3a3a;}</style></defs><path class="a" d="M-317.254-115.1l-3-3a2.045,2.045,0,0,0-2.829,0l-13.439,13.572a.5.5,0,0,0-.126.215l-2,7.006a.5.5,0,0,0,.127.491.5.5,0,0,0,.354.147.506.506,0,0,0,.137-.019l7-2a.5.5,0,0,0,.215-.126l13.562-13.452a1.989,1.989,0,0,0,.586-1.415A1.989,1.989,0,0,0-317.254-115.1Zm-17.223,11.43.862,1.724a.5.5,0,0,0,.224.224l1.724.862v1.314l-2.392.683-2.414-2.414.683-2.392Zm3.533,2.053-1.38-.69,9.609-9.609,1.84,1.84-9.794,9.706v-.8A.5.5,0,0,0-330.944-101.614Zm-2.087-1.4-.69-1.38a.5.5,0,0,0-.447-.276h-.8l9.706-9.794,1.841,1.841Zm-3.758,2.836,1.628,1.629-2.28.651Zm18.829-12.787-2.2,2.185-4.394-4.394,2.184-2.2a1.023,1.023,0,0,1,1.414,0l3,3a.993.993,0,0,1,.293.707A.992.992,0,0,1-317.959-112.961Z" transform="translate(338.668 118.667)"/></svg>