<svg xmlns="http://www.w3.org/2000/svg" width="21.353" height="21.335" viewBox="0 0 21.353 21.335"><defs><style>.a{fill:none;stroke:#3a3a3a;}</style></defs><path class="a" d="M348.333,40.809l-.508-2.034a2.953,2.953,0,0,0-1.936-2.1l-3.728-1.242c-.909-.379-1.325-1.843-1.415-2.4a3.523,3.523,0,0,0,1.246-2.29.691.691,0,0,1,.1-.436.424.424,0,0,0,.291-.254,6.331,6.331,0,0,0,.454-1.851.409.409,0,0,0-.013-.1,1.09,1.09,0,0,0-.411-.617V25.237a2.48,2.48,0,0,0-.856-2.25c-.084-.658-.788-1.987-3.381-1.987a4.418,4.418,0,0,0-4.237,4.237v2.246a1.09,1.09,0,0,0-.411.617.406.406,0,0,0-.013.1,6.332,6.332,0,0,0,.454,1.852.36.36,0,0,0,.254.243c.047.024.136.147.136.446a3.522,3.522,0,0,0,1.252,2.295c-.089.555-.5,2.018-1.386,2.388l-3.761,1.249a2.953,2.953,0,0,0-1.935,2.1l-.508,2.034a.424.424,0,0,0,.41.528h19.488a.423.423,0,0,0,.411-.526Z" transform="translate(-327.493 -20.5)"/></svg>